{"glyphs":{"0":{"ha":947,"x_min":56,"x_max":892,"o":"m 474 -21 q 251 40 346 -21 q 106 215 157 101 q 56 485 56 329 q 106 755 56 640 q 249 931 156 869 q 474 992 343 992 q 697 931 603 992 q 842 755 792 869 q 892 485 892 640 q 842 215 892 329 q 697 40 792 101 q 474 -21 603 -21 m 474 138 q 652 230 589 138 q 715 483 715 322 q 653 738 715 644 q 475 831 590 831 q 297 738 360 831 q 233 483 233 644 q 297 230 233 322 q 474 138 360 138 z "},"1":{"ha":519,"x_min":56,"x_max":436,"o":"m 261 785 l 56 636 l 56 800 l 289 971 l 436 971 l 436 0 l 261 0 l 261 785 z "},"2":{"ha":813,"x_min":56,"x_max":757,"o":"m 56 114 l 247 290 l 339 372 q 455 479 415 439 q 519 566 494 519 q 544 667 544 613 q 498 788 544 746 q 365 831 451 831 q 227 806 299 831 q 97 738 156 782 l 97 906 q 394 992 218 992 q 636 908 550 992 q 722 681 722 825 q 696 553 722 613 q 621 439 669 494 q 489 307 572 383 l 315 146 l 757 146 l 757 0 l 56 0 l 56 114 z "},"3":{"ha":806,"x_min":56,"x_max":750,"o":"m 360 -21 q 194 -7 274 -21 q 56 35 114 7 l 56 169 q 336 110 188 110 q 513 152 454 110 q 572 274 572 194 q 515 390 572 356 q 336 424 457 424 l 215 424 l 215 560 l 332 560 q 486 597 429 560 q 543 708 543 633 q 492 822 543 783 q 350 861 442 861 q 208 842 271 861 q 79 783 144 824 l 79 919 q 374 992 204 992 q 633 919 546 992 q 721 715 721 846 q 683 585 721 643 q 569 493 644 526 q 704 409 658 467 q 750 265 750 351 q 657 55 750 131 q 360 -21 564 -21 z "},"4":{"ha":846,"x_min":28,"x_max":818,"o":"m 492 231 l 28 231 l 28 335 l 496 971 l 668 971 l 668 363 l 818 363 l 818 231 l 668 231 l 668 0 l 492 0 l 492 231 m 517 363 l 517 767 l 221 363 l 517 363 z "},"5":{"ha":801,"x_min":56,"x_max":746,"o":"m 335 -21 q 182 -4 257 -21 q 56 42 107 13 l 56 190 q 188 134 114 154 q 328 114 261 114 q 568 304 568 114 q 509 444 568 396 q 343 493 450 493 q 240 483 294 493 q 144 457 186 474 l 71 499 l 108 971 l 678 971 l 678 825 l 268 825 l 250 603 q 419 619 326 619 q 660 535 574 619 q 746 304 746 450 q 643 63 746 146 q 335 -21 540 -21 z "},"6":{"ha":860,"x_min":56,"x_max":804,"o":"m 435 -21 q 240 29 326 -21 q 105 175 154 79 q 56 404 56 271 q 112 724 56 592 q 274 924 168 856 q 526 992 381 992 q 676 972 611 992 l 676 831 q 540 856 622 856 q 325 774 404 856 q 231 539 246 693 q 343 610 276 588 q 489 633 410 633 q 655 594 583 633 q 765 484 726 556 q 804 314 804 413 q 761 142 804 218 q 634 22 718 65 q 435 -21 550 -21 m 435 108 q 577 163 524 108 q 631 306 631 217 q 577 450 631 396 q 435 504 524 504 q 296 448 351 504 q 240 306 240 392 q 265 208 240 253 q 333 135 289 163 q 435 108 376 108 z "},"7":{"ha":757,"x_min":42,"x_max":715,"o":"m 535 825 l 42 825 l 42 971 l 715 971 l 715 849 l 332 0 l 161 0 l 535 825 z "},"8":{"ha":850,"x_min":56,"x_max":794,"o":"m 425 -21 q 156 55 256 -21 q 56 269 56 131 q 101 421 56 360 q 221 506 146 482 q 124 592 158 536 q 89 721 89 649 q 181 919 89 847 q 425 992 272 992 q 670 919 579 992 q 761 721 761 847 q 726 592 761 649 q 629 506 692 536 q 749 421 704 482 q 794 269 794 360 q 695 55 794 131 q 425 -21 596 -21 m 425 556 q 550 597 503 556 q 597 707 597 638 q 549 819 597 776 q 425 863 501 863 q 301 819 349 863 q 254 707 254 776 q 301 597 254 638 q 425 556 349 556 m 425 106 q 568 152 515 106 q 621 281 621 199 q 567 406 621 360 q 425 451 513 451 q 283 406 338 451 q 229 281 229 360 q 283 152 229 199 q 425 106 336 106 z "},"9":{"ha":860,"x_min":56,"x_max":804,"o":"m 333 -21 q 183 -1 249 -21 l 183 140 q 319 115 238 115 q 535 197 456 115 q 629 432 614 278 q 378 338 540 338 q 210 376 283 338 q 97 488 138 415 q 56 657 56 560 q 99 829 56 753 q 226 949 142 906 q 425 992 310 992 q 619 942 533 992 q 755 796 706 892 q 804 567 804 700 q 748 247 804 379 q 585 47 692 115 q 333 -21 479 -21 m 425 467 q 564 523 508 467 q 619 665 619 579 q 595 763 619 718 q 527 835 571 808 q 425 863 483 863 q 283 808 336 863 q 229 665 229 754 q 283 521 229 575 q 425 467 336 467 z "},"\r":{"ha":361,"x_min":0,"x_max":0,"o":""}," ":{"ha":500,"x_min":0,"x_max":0,"o":""},"A":{"ha":1058,"x_min":56,"x_max":1003,"o":"m 444 971 l 615 971 l 1003 0 l 824 0 l 735 224 l 324 224 l 236 0 l 56 0 l 444 971 m 686 369 l 529 782 l 372 369 l 686 369 z "},"Á":{"ha":1058,"x_min":56,"x_max":1003,"o":"m 553 1272 l 738 1272 l 618 1031 l 457 1031 l 553 1272 m 444 971 l 615 971 l 1003 0 l 824 0 l 735 224 l 324 224 l 236 0 l 56 0 l 444 971 m 686 369 l 529 782 l 372 369 l 686 369 z "},"Ă":{"ha":1058,"x_min":56,"x_max":1003,"o":"m 529 1031 q 365 1088 425 1031 q 306 1240 306 1146 l 438 1240 q 461 1171 438 1194 q 529 1147 485 1147 q 597 1171 574 1147 q 621 1240 621 1194 l 753 1240 q 693 1088 753 1146 q 529 1031 633 1031 m 444 971 l 615 971 l 1003 0 l 824 0 l 735 224 l 324 224 l 236 0 l 56 0 l 444 971 m 686 369 l 529 782 l 372 369 l 686 369 z "},"Ắ":{"ha":1058,"x_min":56,"x_max":1003,"o":"m 540 1415 l 681 1415 l 588 1240 l 468 1240 l 540 1415 m 529 1031 q 370 1086 428 1031 q 313 1235 313 1142 l 440 1235 q 463 1167 440 1190 q 529 1144 486 1144 q 595 1167 572 1144 q 618 1235 618 1190 l 746 1235 q 688 1086 746 1142 q 529 1031 631 1031 m 444 971 l 615 971 l 1003 0 l 824 0 l 735 224 l 324 224 l 236 0 l 56 0 l 444 971 m 686 369 l 529 782 l 372 369 l 686 369 z "},"Ặ":{"ha":1058,"x_min":56,"x_max":1003,"o":"m 529 1031 q 365 1088 425 1031 q 306 1240 306 1146 l 438 1240 q 461 1171 438 1194 q 529 1147 485 1147 q 597 1171 574 1147 q 621 1240 621 1194 l 753 1240 q 693 1088 753 1146 q 529 1031 633 1031 m 444 971 l 615 971 l 1003 0 l 824 0 l 735 224 l 324 224 l 236 0 l 56 0 l 444 971 m 686 369 l 529 782 l 372 369 l 686 369 m 531 -249 q 465 -222 493 -249 q 438 -157 438 -194 q 465 -91 438 -118 q 531 -64 493 -64 q 595 -91 568 -64 q 622 -157 622 -118 q 595 -222 622 -196 q 531 -249 568 -249 z "},"Ằ":{"ha":1058,"x_min":56,"x_max":1003,"o":"m 378 1415 l 518 1415 l 590 1240 l 471 1240 l 378 1415 m 529 1031 q 370 1086 428 1031 q 313 1235 313 1142 l 440 1235 q 463 1167 440 1190 q 529 1144 486 1144 q 595 1167 572 1144 q 618 1235 618 1190 l 746 1235 q 688 1086 746 1142 q 529 1031 631 1031 m 444 971 l 615 971 l 1003 0 l 824 0 l 735 224 l 324 224 l 236 0 l 56 0 l 444 971 m 686 369 l 529 782 l 372 369 l 686 369 z "},"Ẳ":{"ha":1058,"x_min":56,"x_max":1003,"o":"m 476 1294 q 537 1304 518 1294 q 556 1338 556 1314 q 542 1366 556 1358 q 497 1374 528 1374 q 440 1363 463 1374 l 440 1431 q 488 1442 460 1438 q 540 1446 515 1446 q 639 1419 603 1446 q 675 1349 675 1393 q 651 1290 675 1314 q 586 1258 628 1265 l 586 1225 l 476 1225 l 476 1294 m 529 1031 q 370 1086 428 1031 q 313 1235 313 1142 l 438 1235 q 462 1166 438 1190 q 529 1142 486 1142 q 597 1166 572 1142 q 621 1235 621 1190 l 746 1235 q 688 1086 746 1142 q 529 1031 631 1031 m 444 971 l 615 971 l 1003 0 l 824 0 l 735 224 l 324 224 l 236 0 l 56 0 l 444 971 m 686 369 l 529 782 l 372 369 l 686 369 z "},"Ẵ":{"ha":1058,"x_min":56,"x_max":1003,"o":"m 638 1285 q 586 1293 611 1285 q 524 1317 561 1301 q 466 1338 488 1331 q 424 1344 444 1344 q 365 1331 390 1344 q 315 1286 339 1318 l 315 1410 q 424 1458 349 1458 q 472 1451 447 1458 q 533 1428 496 1443 q 563 1417 540 1425 q 603 1403 585 1408 q 638 1399 622 1399 q 697 1412 671 1399 q 746 1457 724 1425 l 746 1332 q 638 1285 713 1285 m 529 1031 q 370 1086 428 1031 q 313 1235 313 1142 l 440 1235 q 463 1167 440 1190 q 529 1144 486 1144 q 595 1167 572 1144 q 618 1235 618 1190 l 746 1235 q 688 1086 746 1142 q 529 1031 631 1031 m 444 971 l 615 971 l 1003 0 l 824 0 l 735 224 l 324 224 l 236 0 l 56 0 l 444 971 m 686 369 l 529 782 l 372 369 l 686 369 z "},"Ǎ":{"ha":1058,"x_min":56,"x_max":1003,"o":"m 249 1268 l 425 1268 l 531 1129 l 636 1268 l 811 1268 l 608 1031 l 453 1031 l 249 1268 m 444 971 l 615 971 l 1003 0 l 824 0 l 735 224 l 324 224 l 236 0 l 56 0 l 444 971 m 686 369 l 529 782 l 372 369 l 686 369 z "},"Â":{"ha":1058,"x_min":56,"x_max":1003,"o":"m 453 1268 l 608 1268 l 811 1031 l 636 1031 l 531 1168 l 425 1031 l 249 1031 l 453 1268 m 444 971 l 615 971 l 1003 0 l 824 0 l 735 224 l 324 224 l 236 0 l 56 0 l 444 971 m 686 369 l 529 782 l 372 369 l 686 369 z "},"Ấ":{"ha":1058,"x_min":56,"x_max":1003,"o":"m 803 1347 l 965 1347 l 858 1169 l 718 1169 l 803 1347 m 456 1243 l 603 1243 l 794 1032 l 629 1032 l 529 1149 l 429 1032 l 263 1032 l 456 1243 m 444 971 l 615 971 l 1003 0 l 824 0 l 735 224 l 324 224 l 236 0 l 56 0 l 444 971 m 686 369 l 529 782 l 372 369 l 686 369 z "},"Ậ":{"ha":1058,"x_min":56,"x_max":1003,"o":"m 453 1268 l 608 1268 l 811 1031 l 636 1031 l 531 1168 l 425 1031 l 249 1031 l 453 1268 m 444 971 l 615 971 l 1003 0 l 824 0 l 735 224 l 324 224 l 236 0 l 56 0 l 444 971 m 686 369 l 529 782 l 372 369 l 686 369 m 531 -249 q 465 -222 493 -249 q 438 -157 438 -194 q 465 -91 438 -118 q 531 -64 493 -64 q 595 -91 568 -64 q 622 -157 622 -118 q 595 -222 622 -196 q 531 -249 568 -249 z "},"Ầ":{"ha":1058,"x_min":56,"x_max":1003,"o":"m 93 1346 l 256 1346 l 340 1168 l 200 1168 l 93 1346 m 456 1242 l 603 1242 l 796 1031 l 629 1031 l 529 1147 l 429 1031 l 264 1031 l 456 1242 m 444 971 l 615 971 l 1003 0 l 824 0 l 735 224 l 324 224 l 236 0 l 56 0 l 444 971 m 686 369 l 529 782 l 372 369 l 686 369 z "},"Ẩ":{"ha":1058,"x_min":56,"x_max":1003,"o":"m 718 1224 q 778 1233 760 1224 q 797 1267 797 1243 q 783 1295 797 1288 q 739 1303 769 1303 q 682 1292 704 1303 l 682 1360 q 729 1371 701 1367 q 782 1375 757 1375 q 881 1349 844 1375 q 917 1278 917 1322 q 893 1219 917 1243 q 828 1188 869 1194 l 828 1154 l 718 1154 l 718 1224 m 456 1243 l 603 1243 l 794 1032 l 629 1032 l 529 1149 l 429 1032 l 263 1032 l 456 1243 m 444 971 l 615 971 l 1003 0 l 824 0 l 735 224 l 324 224 l 236 0 l 56 0 l 444 971 m 686 369 l 529 782 l 372 369 l 686 369 z "},"Ẫ":{"ha":1058,"x_min":56,"x_max":1003,"o":"m 642 1258 q 590 1267 615 1258 q 528 1290 565 1275 q 470 1311 492 1304 q 428 1318 449 1318 q 369 1305 394 1318 q 319 1260 343 1292 l 319 1383 q 428 1432 353 1432 q 476 1424 451 1432 q 538 1401 500 1417 q 567 1390 544 1399 q 608 1377 589 1382 q 642 1372 626 1372 q 701 1385 675 1372 q 750 1431 728 1399 l 750 1306 q 642 1258 717 1258 m 457 1242 l 604 1242 l 796 1031 l 631 1031 l 531 1147 l 431 1031 l 264 1031 l 457 1242 m 444 971 l 615 971 l 1003 0 l 824 0 l 735 224 l 324 224 l 236 0 l 56 0 l 444 971 m 686 369 l 529 782 l 372 369 l 686 369 z "},"Ä":{"ha":1058,"x_min":56,"x_max":1003,"o":"m 365 1044 q 300 1072 328 1044 q 272 1136 272 1099 q 300 1202 272 1175 q 365 1229 328 1229 q 430 1202 403 1229 q 457 1136 457 1175 q 430 1071 457 1097 q 365 1044 403 1044 m 694 1044 q 629 1072 657 1044 q 601 1136 601 1099 q 629 1202 601 1175 q 694 1229 657 1229 q 759 1202 732 1229 q 786 1136 786 1175 q 759 1071 786 1097 q 694 1044 732 1044 m 444 971 l 615 971 l 1003 0 l 824 0 l 735 224 l 324 224 l 236 0 l 56 0 l 444 971 m 686 369 l 529 782 l 372 369 l 686 369 z "},"Ạ":{"ha":1058,"x_min":56,"x_max":1003,"o":"m 444 971 l 615 971 l 1003 0 l 824 0 l 735 224 l 324 224 l 236 0 l 56 0 l 444 971 m 686 369 l 529 782 l 372 369 l 686 369 m 529 -249 q 464 -222 492 -249 q 436 -157 436 -194 q 464 -91 436 -118 q 529 -64 492 -64 q 594 -91 567 -64 q 621 -157 621 -118 q 594 -222 621 -196 q 529 -249 567 -249 z "},"À":{"ha":1058,"x_min":56,"x_max":1003,"o":"m 325 1272 l 510 1272 l 606 1031 l 444 1031 l 325 1272 m 444 971 l 615 971 l 1003 0 l 824 0 l 735 224 l 324 224 l 236 0 l 56 0 l 444 971 m 686 369 l 529 782 l 372 369 l 686 369 z "},"Ả":{"ha":1058,"x_min":56,"x_max":1003,"o":"m 453 1133 q 547 1149 515 1133 q 579 1201 579 1164 q 559 1241 579 1229 q 493 1253 539 1253 q 444 1247 475 1253 q 401 1236 414 1242 l 401 1328 q 465 1342 428 1336 q 538 1347 503 1347 q 682 1310 632 1347 q 732 1208 732 1272 q 699 1122 732 1157 q 606 1078 665 1088 l 606 1031 l 453 1031 l 453 1133 m 444 971 l 615 971 l 1003 0 l 824 0 l 735 224 l 324 224 l 236 0 l 56 0 l 444 971 m 686 369 l 529 782 l 372 369 l 686 369 z "},"Ā":{"ha":1058,"x_min":56,"x_max":1003,"o":"m 306 1161 l 754 1161 l 754 1044 l 306 1044 l 306 1161 m 444 971 l 615 971 l 1003 0 l 824 0 l 735 224 l 324 224 l 236 0 l 56 0 l 444 971 m 686 369 l 529 782 l 372 369 l 686 369 z "},"Ą":{"ha":1058,"x_min":56,"x_max":1003,"o":"m 867 -137 q 883 -178 867 -164 q 924 -193 899 -193 q 990 -178 960 -193 l 990 -278 q 869 -296 943 -296 q 757 -263 800 -296 q 714 -168 714 -231 q 742 -72 714 -115 q 815 0 769 -29 l 824 0 l 735 224 l 324 224 l 236 0 l 56 0 l 444 971 l 615 971 l 1003 0 l 976 0 q 894 -66 921 -33 q 867 -137 867 -99 m 686 369 l 529 782 l 372 369 l 686 369 z "},"Å":{"ha":1058,"x_min":56,"x_max":1003,"o":"m 1003 0 l 824 0 l 735 224 l 324 224 l 236 0 l 56 0 l 432 939 q 377 999 397 963 q 357 1081 357 1036 q 407 1203 357 1153 q 529 1254 457 1254 q 652 1203 601 1254 q 703 1081 703 1153 q 683 999 703 1036 q 628 939 663 963 l 1003 0 m 529 1151 q 479 1131 500 1151 q 458 1081 458 1110 q 479 1031 458 1051 q 529 1010 500 1010 q 579 1031 558 1010 q 600 1081 600 1051 q 579 1131 600 1110 q 529 1151 558 1151 m 686 369 l 529 782 l 372 369 l 686 369 z "},"Ǻ":{"ha":1058,"x_min":56,"x_max":1003,"o":"m 610 1276 l 449 1276 l 544 1469 l 729 1469 l 610 1276 m 1003 0 l 824 0 l 735 224 l 324 224 l 236 0 l 56 0 l 432 939 q 377 999 397 963 q 357 1081 357 1036 q 407 1203 357 1153 q 529 1254 457 1254 q 652 1203 601 1254 q 703 1081 703 1153 q 683 999 703 1036 q 628 939 663 963 l 1003 0 m 529 1151 q 479 1131 500 1151 q 458 1081 458 1110 q 479 1031 458 1051 q 529 1010 500 1010 q 579 1031 558 1010 q 600 1081 600 1051 q 579 1131 600 1110 q 529 1151 558 1151 m 686 369 l 529 782 l 372 369 l 686 369 z "},"Ã":{"ha":1058,"x_min":56,"x_max":1003,"o":"m 260 1174 q 399 1233 304 1233 q 458 1225 429 1233 q 533 1199 488 1217 q 601 1173 572 1182 q 661 1164 631 1164 q 800 1235 747 1164 l 800 1092 q 661 1033 757 1033 q 594 1042 626 1033 q 521 1069 563 1051 q 453 1094 479 1086 q 399 1103 428 1103 q 324 1086 358 1103 q 260 1031 290 1069 l 260 1174 m 444 971 l 615 971 l 1003 0 l 824 0 l 735 224 l 324 224 l 236 0 l 56 0 l 444 971 m 686 369 l 529 782 l 372 369 l 686 369 z "},"Æ":{"ha":1283,"x_min":56,"x_max":1228,"o":"m 515 971 l 1228 971 l 1228 825 l 796 825 l 796 558 l 1104 558 l 1104 413 l 796 413 l 796 146 l 1228 146 l 1228 0 l 619 0 l 619 238 l 354 238 l 244 0 l 56 0 l 515 971 m 619 369 l 619 808 l 615 808 l 421 369 l 619 369 z "},"Ǽ":{"ha":1283,"x_min":56,"x_max":1228,"o":"m 779 1272 l 964 1272 l 844 1031 l 683 1031 l 779 1272 m 515 971 l 1228 971 l 1228 825 l 796 825 l 796 558 l 1104 558 l 1104 413 l 796 413 l 796 146 l 1228 146 l 1228 0 l 619 0 l 619 238 l 354 238 l 244 0 l 56 0 l 515 971 m 619 369 l 619 808 l 615 808 l 421 369 l 619 369 z "},"B":{"ha":914,"x_min":83,"x_max":858,"o":"m 83 971 l 544 971 q 752 904 678 971 q 826 710 826 838 q 794 587 826 642 q 707 503 761 532 q 858 279 858 453 q 819 130 858 193 q 715 33 781 67 q 568 0 649 0 l 83 0 l 83 971 m 517 567 q 613 599 576 567 q 649 699 649 632 q 613 803 649 775 q 508 832 578 832 l 258 832 l 258 567 l 517 567 m 528 139 q 641 169 601 139 q 681 278 681 200 q 639 390 681 356 q 518 425 597 425 l 258 425 l 258 139 l 528 139 z "},"C":{"ha":978,"x_min":56,"x_max":922,"o":"m 575 -21 q 304 41 422 -21 q 121 217 186 103 q 56 485 56 332 q 121 752 56 638 q 304 929 186 867 q 575 992 422 992 q 911 896 776 992 l 911 728 q 590 831 790 831 q 403 788 483 831 q 278 668 322 746 q 233 485 233 590 q 278 301 233 379 q 404 181 324 224 q 590 139 485 139 q 774 165 693 139 q 922 247 854 190 l 922 79 q 575 -21 794 -21 z "},"Ć":{"ha":978,"x_min":56,"x_max":922,"o":"m 578 1272 l 763 1272 l 643 1031 l 482 1031 l 578 1272 m 575 -21 q 304 41 422 -21 q 121 217 186 103 q 56 485 56 332 q 121 752 56 638 q 304 929 186 867 q 575 992 422 992 q 911 896 776 992 l 911 728 q 590 831 790 831 q 403 788 483 831 q 278 668 322 746 q 233 485 233 590 q 278 301 233 379 q 404 181 324 224 q 590 139 485 139 q 774 165 693 139 q 922 247 854 190 l 922 79 q 575 -21 794 -21 z "},"Č":{"ha":978,"x_min":56,"x_max":922,"o":"m 282 1268 l 458 1268 l 564 1129 l 669 1268 l 844 1268 l 642 1031 l 486 1031 l 282 1268 m 575 -21 q 304 41 422 -21 q 121 217 186 103 q 56 485 56 332 q 121 752 56 638 q 304 929 186 867 q 575 992 422 992 q 911 896 776 992 l 911 728 q 590 831 790 831 q 403 788 483 831 q 278 668 322 746 q 233 485 233 590 q 278 301 233 379 q 404 181 324 224 q 590 139 485 139 q 774 165 693 139 q 922 247 854 190 l 922 79 q 575 -21 794 -21 z "},"Ç":{"ha":978,"x_min":56,"x_max":922,"o":"m 922 79 q 667 -17 822 1 l 644 -72 q 737 -116 704 -79 q 769 -208 769 -153 q 715 -309 769 -274 q 569 -344 661 -344 q 497 -340 532 -344 q 443 -328 463 -335 l 444 -232 q 482 -244 460 -239 q 525 -249 504 -249 q 607 -192 607 -249 q 574 -138 607 -158 q 469 -118 542 -118 l 508 -18 q 271 60 374 -6 q 112 234 168 125 q 56 485 56 343 q 121 752 56 638 q 304 929 186 867 q 575 992 422 992 q 911 896 776 992 l 911 728 q 590 831 790 831 q 403 788 483 831 q 278 668 322 746 q 233 485 233 590 q 278 301 233 379 q 404 181 324 224 q 590 139 485 139 q 774 165 693 139 q 922 247 854 190 l 922 79 z "},"Ĉ":{"ha":978,"x_min":56,"x_max":922,"o":"m 486 1268 l 642 1268 l 844 1031 l 669 1031 l 564 1168 l 458 1031 l 282 1031 l 486 1268 m 575 -21 q 304 41 422 -21 q 121 217 186 103 q 56 485 56 332 q 121 752 56 638 q 304 929 186 867 q 575 992 422 992 q 911 896 776 992 l 911 728 q 590 831 790 831 q 403 788 483 831 q 278 668 322 746 q 233 485 233 590 q 278 301 233 379 q 404 181 324 224 q 590 139 485 139 q 774 165 693 139 q 922 247 854 190 l 922 79 q 575 -21 794 -21 z "},"Ċ":{"ha":978,"x_min":56,"x_max":922,"o":"m 558 1044 q 493 1072 521 1044 q 465 1136 465 1099 q 493 1202 465 1175 q 558 1229 521 1229 q 623 1202 596 1229 q 650 1136 650 1175 q 623 1071 650 1097 q 558 1044 596 1044 m 575 -21 q 304 41 422 -21 q 121 217 186 103 q 56 485 56 332 q 121 752 56 638 q 304 929 186 867 q 575 992 422 992 q 911 896 776 992 l 911 728 q 590 831 790 831 q 403 788 483 831 q 278 668 322 746 q 233 485 233 590 q 278 301 233 379 q 404 181 324 224 q 590 139 485 139 q 774 165 693 139 q 922 247 854 190 l 922 79 q 575 -21 794 -21 z "},"D":{"ha":981,"x_min":83,"x_max":925,"o":"m 83 971 l 408 971 q 683 913 567 971 q 863 746 800 854 q 925 490 925 638 q 785 124 925 249 q 393 0 644 0 l 83 0 l 83 971 m 396 146 q 656 237 565 146 q 747 490 747 328 q 707 665 747 589 q 592 783 667 740 q 414 825 517 825 l 260 825 l 260 146 l 396 146 z "},"Ð":{"ha":1007,"x_min":28,"x_max":951,"o":"m 110 418 l 28 418 l 28 551 l 110 551 l 110 971 l 435 971 q 710 913 593 971 q 889 746 826 854 q 951 490 951 638 q 811 124 951 249 q 419 0 671 0 l 110 0 l 110 418 m 422 146 q 683 237 592 146 q 774 490 774 328 q 733 665 774 589 q 618 783 693 740 q 440 825 543 825 l 286 825 l 286 551 l 525 551 l 525 418 l 286 418 l 286 146 l 422 146 z "},"Ď":{"ha":981,"x_min":83,"x_max":925,"o":"m 178 1268 l 354 1268 l 460 1129 l 565 1268 l 740 1268 l 538 1031 l 382 1031 l 178 1268 m 83 971 l 408 971 q 683 913 567 971 q 863 746 800 854 q 925 490 925 638 q 785 124 925 249 q 393 0 644 0 l 83 0 l 83 971 m 396 146 q 656 237 565 146 q 747 490 747 328 q 707 665 747 589 q 592 783 667 740 q 414 825 517 825 l 260 825 l 260 146 l 396 146 z "},"Đ":{"ha":1007,"x_min":28,"x_max":951,"o":"m 110 418 l 28 418 l 28 551 l 110 551 l 110 971 l 435 971 q 710 913 593 971 q 889 746 826 854 q 951 490 951 638 q 811 124 951 249 q 419 0 671 0 l 110 0 l 110 418 m 422 146 q 683 237 592 146 q 774 490 774 328 q 733 665 774 589 q 618 783 693 740 q 440 825 543 825 l 286 825 l 286 551 l 525 551 l 525 418 l 286 418 l 286 146 l 422 146 z "},"Ḍ":{"ha":981,"x_min":83,"x_max":925,"o":"m 83 971 l 408 971 q 683 913 567 971 q 863 746 800 854 q 925 490 925 638 q 785 124 925 249 q 393 0 644 0 l 83 0 l 83 971 m 396 146 q 656 237 565 146 q 747 490 747 328 q 707 665 747 589 q 592 783 667 740 q 414 825 517 825 l 260 825 l 260 146 l 396 146 m 385 -249 q 319 -222 347 -249 q 292 -157 292 -194 q 319 -91 292 -118 q 385 -64 347 -64 q 449 -91 422 -64 q 476 -157 476 -118 q 449 -222 476 -196 q 385 -249 422 -249 z "},"Ḏ":{"ha":981,"x_min":83,"x_max":925,"o":"m 83 971 l 408 971 q 683 913 567 971 q 863 746 800 854 q 925 490 925 638 q 785 124 925 249 q 393 0 644 0 l 83 0 l 83 971 m 396 146 q 656 237 565 146 q 747 490 747 328 q 707 665 747 589 q 592 783 667 740 q 414 825 517 825 l 260 825 l 260 146 l 396 146 m 185 -94 l 633 -94 l 633 -210 l 185 -210 l 185 -94 z "},"E":{"ha":782,"x_min":83,"x_max":740,"o":"m 83 971 l 740 971 l 740 825 l 260 825 l 260 558 l 617 558 l 617 413 l 260 413 l 260 146 l 740 146 l 740 0 l 83 0 l 83 971 z "},"É":{"ha":782,"x_min":83,"x_max":740,"o":"m 399 1272 l 583 1272 l 464 1031 l 303 1031 l 399 1272 m 83 971 l 740 971 l 740 825 l 260 825 l 260 558 l 617 558 l 617 413 l 260 413 l 260 146 l 740 146 l 740 0 l 83 0 l 83 971 z "},"Ĕ":{"ha":796,"x_min":83,"x_max":740,"o":"m 431 1031 q 267 1088 326 1031 q 207 1240 207 1146 l 339 1240 q 363 1171 339 1194 q 431 1147 386 1147 q 499 1171 475 1147 q 522 1240 522 1194 l 654 1240 q 594 1088 654 1146 q 431 1031 535 1031 m 83 971 l 740 971 l 740 825 l 260 825 l 260 558 l 617 558 l 617 413 l 260 413 l 260 146 l 740 146 l 740 0 l 83 0 l 83 971 z "},"Ě":{"ha":796,"x_min":83,"x_max":740,"o":"m 156 1268 l 332 1268 l 438 1129 l 543 1268 l 718 1268 l 515 1031 l 360 1031 l 156 1268 m 83 971 l 740 971 l 740 825 l 260 825 l 260 558 l 617 558 l 617 413 l 260 413 l 260 146 l 740 146 l 740 0 l 83 0 l 83 971 z "},"Ê":{"ha":796,"x_min":83,"x_max":740,"o":"m 314 1268 l 469 1268 l 672 1031 l 497 1031 l 392 1168 l 286 1031 l 110 1031 l 314 1268 m 83 971 l 740 971 l 740 825 l 260 825 l 260 558 l 617 558 l 617 413 l 260 413 l 260 146 l 740 146 l 740 0 l 83 0 l 83 971 z "},"Ế":{"ha":782,"x_min":83,"x_max":822,"o":"m 660 1346 l 822 1346 l 715 1168 l 575 1168 l 660 1346 m 313 1242 l 460 1242 l 651 1031 l 486 1031 l 386 1147 l 286 1031 l 119 1031 l 313 1242 m 83 971 l 740 971 l 740 825 l 260 825 l 260 558 l 617 558 l 617 413 l 260 413 l 260 146 l 740 146 l 740 0 l 83 0 l 83 971 z "},"Ệ":{"ha":799,"x_min":86,"x_max":743,"o":"m 329 1268 l 485 1268 l 688 1031 l 513 1031 l 407 1168 l 301 1031 l 125 1031 l 329 1268 m 86 971 l 743 971 l 743 825 l 263 825 l 263 558 l 619 558 l 619 413 l 263 413 l 263 146 l 743 146 l 743 0 l 86 0 l 86 971 m 408 -249 q 343 -222 371 -249 q 315 -157 315 -194 q 343 -91 315 -118 q 408 -64 371 -64 q 473 -91 446 -64 q 500 -157 500 -118 q 473 -222 500 -196 q 408 -249 446 -249 z "},"Ề":{"ha":782,"x_min":-21,"x_max":740,"o":"m -21 1346 l 142 1346 l 226 1168 l 86 1168 l -21 1346 m 342 1242 l 489 1242 l 682 1031 l 515 1031 l 415 1147 l 315 1031 l 150 1031 l 342 1242 m 83 971 l 740 971 l 740 825 l 260 825 l 260 558 l 617 558 l 617 413 l 260 413 l 260 146 l 740 146 l 740 0 l 83 0 l 83 971 z "},"Ể":{"ha":782,"x_min":83,"x_max":800,"o":"m 601 1222 q 662 1232 643 1222 q 681 1265 681 1242 q 667 1294 681 1286 q 622 1301 653 1301 q 565 1290 588 1301 l 565 1358 q 613 1369 585 1365 q 665 1374 640 1374 q 764 1347 728 1374 q 800 1276 800 1321 q 776 1217 800 1242 q 711 1186 753 1193 l 711 1153 l 601 1153 l 601 1222 m 339 1242 l 486 1242 l 678 1031 l 513 1031 l 413 1147 l 313 1031 l 146 1031 l 339 1242 m 83 971 l 740 971 l 740 825 l 260 825 l 260 558 l 617 558 l 617 413 l 260 413 l 260 146 l 740 146 l 740 0 l 83 0 l 83 971 z "},"Ễ":{"ha":796,"x_min":83,"x_max":740,"o":"m 528 1258 q 476 1267 501 1258 q 414 1290 451 1275 q 356 1311 378 1304 q 314 1318 335 1318 q 255 1305 281 1318 q 206 1260 229 1292 l 206 1383 q 314 1432 239 1432 q 362 1424 338 1432 q 424 1401 386 1417 q 453 1390 431 1399 q 494 1377 475 1382 q 528 1372 513 1372 q 588 1385 561 1372 q 636 1431 614 1399 l 636 1306 q 528 1258 603 1258 m 343 1242 l 490 1242 l 682 1031 l 517 1031 l 417 1147 l 317 1031 l 150 1031 l 343 1242 m 83 971 l 740 971 l 740 825 l 260 825 l 260 558 l 617 558 l 617 413 l 260 413 l 260 146 l 740 146 l 740 0 l 83 0 l 83 971 z "},"Ë":{"ha":796,"x_min":83,"x_max":740,"o":"m 238 1044 q 172 1072 200 1044 q 144 1136 144 1099 q 172 1202 144 1175 q 238 1229 200 1229 q 302 1202 275 1229 q 329 1136 329 1175 q 302 1071 329 1097 q 238 1044 275 1044 m 567 1044 q 501 1072 529 1044 q 474 1136 474 1099 q 501 1202 474 1175 q 567 1229 529 1229 q 631 1202 604 1229 q 658 1136 658 1175 q 631 1071 658 1097 q 567 1044 604 1044 m 83 971 l 740 971 l 740 825 l 260 825 l 260 558 l 617 558 l 617 413 l 260 413 l 260 146 l 740 146 l 740 0 l 83 0 l 83 971 z "},"Ė":{"ha":796,"x_min":83,"x_max":740,"o":"m 428 1044 q 363 1072 390 1044 q 335 1136 335 1099 q 363 1202 335 1175 q 428 1229 390 1229 q 492 1202 465 1229 q 519 1136 519 1175 q 492 1071 519 1097 q 428 1044 465 1044 m 83 971 l 740 971 l 740 825 l 260 825 l 260 558 l 617 558 l 617 413 l 260 413 l 260 146 l 740 146 l 740 0 l 83 0 l 83 971 z "},"Ẹ":{"ha":796,"x_min":83,"x_max":740,"o":"m 83 971 l 740 971 l 740 825 l 260 825 l 260 558 l 617 558 l 617 413 l 260 413 l 260 146 l 740 146 l 740 0 l 83 0 l 83 971 m 407 -249 q 342 -222 369 -249 q 314 -157 314 -194 q 342 -91 314 -118 q 407 -64 369 -64 q 472 -91 444 -64 q 499 -157 499 -118 q 472 -222 499 -196 q 407 -249 444 -249 z "},"È":{"ha":796,"x_min":83,"x_max":740,"o":"m 213 1272 l 397 1272 l 493 1031 l 332 1031 l 213 1272 m 83 971 l 740 971 l 740 825 l 260 825 l 260 558 l 617 558 l 617 413 l 260 413 l 260 146 l 740 146 l 740 0 l 83 0 l 83 971 z "},"Ẻ":{"ha":796,"x_min":83,"x_max":740,"o":"m 324 1133 q 418 1149 386 1133 q 450 1201 450 1164 q 430 1241 450 1229 q 364 1253 410 1253 q 315 1247 346 1253 q 272 1236 285 1242 l 272 1328 q 336 1342 299 1336 q 408 1347 374 1347 q 553 1310 503 1347 q 603 1208 603 1272 q 569 1122 603 1157 q 476 1078 536 1088 l 476 1031 l 324 1031 l 324 1133 m 83 971 l 740 971 l 740 825 l 260 825 l 260 558 l 617 558 l 617 413 l 260 413 l 260 146 l 740 146 l 740 0 l 83 0 l 83 971 z "},"Ē":{"ha":796,"x_min":83,"x_max":740,"o":"m 197 1161 l 646 1161 l 646 1044 l 197 1044 l 197 1161 m 83 971 l 740 971 l 740 825 l 260 825 l 260 558 l 617 558 l 617 413 l 260 413 l 260 146 l 740 146 l 740 0 l 83 0 l 83 971 z "},"Ę":{"ha":796,"x_min":83,"x_max":740,"o":"m 260 825 l 260 558 l 617 558 l 617 413 l 260 413 l 260 146 l 740 146 l 740 0 l 726 0 q 644 -66 671 -33 q 617 -137 617 -99 q 633 -178 617 -164 q 674 -193 649 -193 q 740 -178 710 -193 l 740 -278 q 619 -296 693 -296 q 507 -263 550 -296 q 464 -168 464 -231 q 492 -72 464 -115 q 565 0 519 -29 l 83 0 l 83 971 l 740 971 l 740 825 l 260 825 z "},"Ẽ":{"ha":796,"x_min":83,"x_max":740,"o":"m 139 1174 q 278 1233 183 1233 q 338 1225 308 1233 q 413 1199 367 1217 q 481 1173 451 1182 q 540 1164 510 1164 q 679 1235 626 1164 l 679 1092 q 540 1033 636 1033 q 474 1042 506 1033 q 400 1069 442 1051 q 333 1094 358 1086 q 278 1103 307 1103 q 203 1086 238 1103 q 139 1031 169 1069 l 139 1174 m 83 971 l 740 971 l 740 825 l 260 825 l 260 558 l 617 558 l 617 413 l 260 413 l 260 146 l 740 146 l 740 0 l 83 0 l 83 971 z "},"F":{"ha":768,"x_min":83,"x_max":740,"o":"m 83 971 l 740 971 l 740 824 l 260 824 l 260 551 l 617 551 l 617 419 l 260 419 l 260 0 l 83 0 l 83 971 z "},"G":{"ha":990,"x_min":56,"x_max":935,"o":"m 575 -21 q 304 41 422 -21 q 121 217 186 103 q 56 485 56 332 q 121 752 56 638 q 304 929 186 867 q 575 992 422 992 q 761 969 679 992 q 910 899 843 947 l 910 731 q 769 807 849 783 q 590 831 690 831 q 409 788 490 831 q 281 667 328 746 q 233 485 233 589 q 278 301 233 379 q 401 180 322 222 q 582 138 481 138 q 758 174 689 138 l 758 392 l 594 392 l 594 532 l 935 532 l 935 79 q 575 -21 806 -21 z "},"Ğ":{"ha":990,"x_min":56,"x_max":935,"o":"m 581 1031 q 417 1088 476 1031 q 357 1240 357 1146 l 489 1240 q 513 1171 489 1194 q 581 1147 536 1147 q 649 1171 625 1147 q 672 1240 672 1194 l 804 1240 q 744 1088 804 1146 q 581 1031 685 1031 m 575 -21 q 304 41 422 -21 q 121 217 186 103 q 56 485 56 332 q 121 752 56 638 q 304 929 186 867 q 575 992 422 992 q 761 969 679 992 q 910 899 843 947 l 910 731 q 769 807 849 783 q 590 831 690 831 q 409 788 490 831 q 281 667 328 746 q 233 485 233 589 q 278 301 233 379 q 401 180 322 222 q 582 138 481 138 q 758 174 689 138 l 758 392 l 594 392 l 594 532 l 935 532 l 935 79 q 575 -21 806 -21 z "},"Ǧ":{"ha":990,"x_min":56,"x_max":935,"o":"m 272 1268 l 449 1268 l 554 1129 l 660 1268 l 835 1268 l 632 1031 l 476 1031 l 272 1268 m 575 -21 q 304 41 422 -21 q 121 217 186 103 q 56 485 56 332 q 121 752 56 638 q 304 929 186 867 q 575 992 422 992 q 761 969 679 992 q 910 899 843 947 l 910 731 q 769 807 849 783 q 590 831 690 831 q 409 788 490 831 q 281 667 328 746 q 233 485 233 589 q 278 301 233 379 q 401 180 322 222 q 582 138 481 138 q 758 174 689 138 l 758 392 l 594 392 l 594 532 l 935 532 l 935 79 q 575 -21 806 -21 z "},"Ĝ":{"ha":990,"x_min":56,"x_max":935,"o":"m 492 1268 l 647 1268 l 850 1031 l 675 1031 l 569 1168 l 464 1031 l 288 1031 l 492 1268 m 575 -21 q 304 41 422 -21 q 121 217 186 103 q 56 485 56 332 q 121 752 56 638 q 304 929 186 867 q 575 992 422 992 q 761 969 679 992 q 910 899 843 947 l 910 731 q 769 807 849 783 q 590 831 690 831 q 409 788 490 831 q 281 667 328 746 q 233 485 233 589 q 278 301 233 379 q 401 180 322 222 q 582 138 481 138 q 758 174 689 138 l 758 392 l 594 392 l 594 532 l 935 532 l 935 79 q 575 -21 806 -21 z "},"Ģ":{"ha":990,"x_min":56,"x_max":935,"o":"m 575 -21 q 304 41 422 -21 q 121 217 186 103 q 56 485 56 332 q 121 752 56 638 q 304 929 186 867 q 575 992 422 992 q 761 969 679 992 q 910 899 843 947 l 910 731 q 769 807 849 783 q 590 831 690 831 q 409 788 490 831 q 281 667 328 746 q 233 485 233 589 q 278 301 233 379 q 401 180 322 222 q 582 138 481 138 q 758 174 689 138 l 758 392 l 594 392 l 594 532 l 935 532 l 935 79 q 575 -21 806 -21 m 513 -78 l 694 -78 l 558 -360 l 399 -360 l 513 -78 z "},"Ġ":{"ha":990,"x_min":56,"x_max":935,"o":"m 576 1044 q 511 1072 539 1044 q 483 1136 483 1099 q 511 1202 483 1175 q 576 1229 539 1229 q 641 1202 614 1229 q 668 1136 668 1175 q 641 1071 668 1097 q 576 1044 614 1044 m 575 -21 q 304 41 422 -21 q 121 217 186 103 q 56 485 56 332 q 121 752 56 638 q 304 929 186 867 q 575 992 422 992 q 761 969 679 992 q 910 899 843 947 l 910 731 q 769 807 849 783 q 590 831 690 831 q 409 788 490 831 q 281 667 328 746 q 233 485 233 589 q 278 301 233 379 q 401 180 322 222 q 582 138 481 138 q 758 174 689 138 l 758 392 l 594 392 l 594 532 l 935 532 l 935 79 q 575 -21 806 -21 z "},"Ḡ":{"ha":990,"x_min":56,"x_max":935,"o":"m 349 1161 l 797 1161 l 797 1044 l 349 1044 l 349 1161 m 575 -21 q 304 41 422 -21 q 121 217 186 103 q 56 485 56 332 q 121 752 56 638 q 304 929 186 867 q 575 992 422 992 q 761 969 679 992 q 910 899 843 947 l 910 731 q 769 807 849 783 q 590 831 690 831 q 409 788 490 831 q 281 667 328 746 q 233 485 233 589 q 278 301 233 379 q 401 180 322 222 q 582 138 481 138 q 758 174 689 138 l 758 392 l 594 392 l 594 532 l 935 532 l 935 79 q 575 -21 806 -21 z "},"H":{"ha":985,"x_min":83,"x_max":901,"o":"m 83 971 l 260 971 l 260 568 l 726 568 l 726 971 l 901 971 l 901 0 l 726 0 l 726 422 l 260 422 l 260 0 l 83 0 l 83 971 z "},"Ħ":{"ha":1008,"x_min":28,"x_max":981,"o":"m 90 693 l 28 693 l 28 839 l 90 839 l 90 971 l 267 971 l 267 839 l 733 839 l 733 971 l 908 971 l 908 839 l 981 839 l 981 693 l 908 693 l 908 0 l 733 0 l 733 422 l 267 422 l 267 0 l 90 0 l 90 693 m 733 568 l 733 693 l 267 693 l 267 568 l 733 568 z "},"Ḫ":{"ha":985,"x_min":83,"x_max":901,"o":"m 83 971 l 260 971 l 260 568 l 726 568 l 726 971 l 901 971 l 901 0 l 726 0 l 726 422 l 260 422 l 260 0 l 83 0 l 83 971 m 492 -292 q 328 -234 388 -292 q 268 -82 268 -176 l 400 -82 q 424 -151 400 -128 q 492 -175 447 -175 q 560 -151 536 -175 q 583 -82 583 -128 l 715 -82 q 656 -234 715 -176 q 492 -292 596 -292 z "},"Ĥ":{"ha":985,"x_min":83,"x_max":901,"o":"m 415 1268 l 571 1268 l 774 1031 l 599 1031 l 493 1168 l 388 1031 l 211 1031 l 415 1268 m 83 971 l 260 971 l 260 568 l 726 568 l 726 971 l 901 971 l 901 0 l 726 0 l 726 422 l 260 422 l 260 0 l 83 0 l 83 971 z "},"Ḥ":{"ha":985,"x_min":83,"x_max":901,"o":"m 83 971 l 260 971 l 260 568 l 726 568 l 726 971 l 901 971 l 901 0 l 726 0 l 726 422 l 260 422 l 260 0 l 83 0 l 83 971 m 493 -249 q 428 -222 456 -249 q 400 -157 400 -194 q 428 -91 400 -118 q 493 -64 456 -64 q 558 -91 531 -64 q 585 -157 585 -118 q 558 -222 585 -196 q 493 -249 531 -249 z "},"I":{"ha":343,"x_min":83,"x_max":260,"o":"m 83 971 l 260 971 l 260 0 l 83 0 l 83 971 z "},"Ĳ":{"ha":879,"x_min":88,"x_max":799,"o":"m 88 971 l 264 971 l 264 0 l 88 0 l 88 971 m 529 -21 q 442 -13 488 -21 q 374 6 397 -6 l 374 153 q 486 133 419 133 q 622 263 622 133 l 622 971 l 799 971 l 799 253 q 728 52 799 125 q 529 -21 657 -21 z "},"Í":{"ha":351,"x_min":88,"x_max":376,"o":"m 192 1272 l 376 1272 l 257 1031 l 96 1031 l 192 1272 m 88 971 l 264 971 l 264 0 l 88 0 l 88 971 z "},"Ĭ":{"ha":351,"x_min":-49,"x_max":399,"o":"m 175 1031 q 11 1088 71 1031 q -49 1240 -49 1146 l 83 1240 q 107 1171 83 1194 q 175 1147 131 1147 q 243 1171 219 1147 q 267 1240 267 1194 l 399 1240 q 339 1088 399 1146 q 175 1031 279 1031 m 88 971 l 264 971 l 264 0 l 88 0 l 88 971 z "},"Ǐ":{"ha":343,"x_min":-108,"x_max":454,"o":"m -108 1299 l 68 1299 l 174 1160 l 279 1299 l 454 1299 l 251 1061 l 96 1061 l -108 1299 m 83 971 l 260 971 l 260 0 l 83 0 l 83 971 z "},"Î":{"ha":351,"x_min":-106,"x_max":457,"o":"m 99 1268 l 254 1268 l 457 1031 l 282 1031 l 176 1168 l 71 1031 l -106 1031 l 99 1268 m 88 971 l 264 971 l 264 0 l 88 0 l 88 971 z "},"Ï":{"ha":351,"x_min":-82,"x_max":432,"o":"m 11 1044 q -54 1072 -26 1044 q -82 1136 -82 1099 q -54 1202 -82 1175 q 11 1229 -26 1229 q 76 1202 49 1229 q 103 1136 103 1175 q 76 1071 103 1097 q 11 1044 49 1044 m 340 1044 q 275 1072 303 1044 q 247 1136 247 1099 q 275 1202 247 1175 q 340 1229 303 1229 q 405 1202 378 1229 q 432 1136 432 1175 q 405 1071 432 1097 q 340 1044 378 1044 m 88 971 l 264 971 l 264 0 l 88 0 l 88 971 z "},"İ":{"ha":351,"x_min":83,"x_max":268,"o":"m 176 1044 q 111 1072 139 1044 q 83 1136 83 1099 q 111 1202 83 1175 q 176 1229 139 1229 q 241 1202 214 1229 q 268 1136 268 1175 q 241 1071 268 1097 q 176 1044 214 1044 m 88 971 l 264 971 l 264 0 l 88 0 l 88 971 z "},"Ị":{"ha":351,"x_min":83,"x_max":268,"o":"m 88 971 l 264 971 l 264 0 l 88 0 l 88 971 m 176 -249 q 111 -222 139 -249 q 83 -157 83 -194 q 111 -91 83 -118 q 176 -64 139 -64 q 241 -91 214 -64 q 268 -157 268 -118 q 241 -222 268 -196 q 176 -249 214 -249 z "},"Ì":{"ha":351,"x_min":-26,"x_max":264,"o":"m -26 1272 l 158 1272 l 254 1031 l 93 1031 l -26 1272 m 88 971 l 264 971 l 264 0 l 88 0 l 88 971 z "},"Ỉ":{"ha":351,"x_min":46,"x_max":376,"o":"m 97 1133 q 192 1149 160 1133 q 224 1201 224 1164 q 203 1241 224 1229 q 138 1253 183 1253 q 89 1247 119 1253 q 46 1236 58 1242 l 46 1328 q 110 1342 72 1336 q 182 1347 147 1347 q 326 1310 276 1347 q 376 1208 376 1272 q 343 1122 376 1157 q 250 1078 310 1088 l 250 1031 l 97 1031 l 97 1133 m 88 971 l 264 971 l 264 0 l 88 0 l 88 971 z "},"Ī":{"ha":351,"x_min":-56,"x_max":406,"o":"m -56 1161 l 406 1161 l 406 1044 l -56 1044 l -56 1161 m 88 971 l 264 971 l 264 0 l 88 0 l 88 971 z "},"Į":{"ha":351,"x_min":-4,"x_max":272,"o":"m 206 -193 q 272 -178 242 -193 l 272 -278 q 151 -296 225 -296 q 39 -263 82 -296 q -4 -168 -4 -231 q 24 -72 -4 -115 q 97 0 51 -29 l 88 0 l 88 971 l 264 971 l 264 0 l 258 0 q 176 -66 203 -33 q 149 -137 149 -99 q 165 -178 149 -164 q 206 -193 181 -193 z "},"Ĩ":{"ha":351,"x_min":-94,"x_max":446,"o":"m -94 1174 q 44 1233 -50 1233 q 104 1225 75 1233 q 179 1199 133 1217 q 247 1173 218 1182 q 307 1164 276 1164 q 446 1235 393 1164 l 446 1092 q 307 1033 403 1033 q 240 1042 272 1033 q 167 1069 208 1051 q 99 1094 125 1086 q 44 1103 74 1103 q -30 1086 4 1103 q -94 1031 -64 1069 l -94 1174 m 88 971 l 264 971 l 264 0 l 88 0 l 88 971 z "},"J":{"ha":536,"x_min":28,"x_max":453,"o":"m 183 -21 q 97 -13 142 -21 q 28 6 51 -6 l 28 153 q 140 133 74 133 q 276 263 276 133 l 276 971 l 453 971 l 453 253 q 382 52 453 125 q 183 -21 311 -21 z "},"Ĵ":{"ha":533,"x_min":28,"x_max":647,"o":"m 289 1268 l 444 1268 l 647 1031 l 472 1031 l 367 1168 l 261 1031 l 85 1031 l 289 1268 m 183 -21 q 97 -13 142 -21 q 28 6 51 -6 l 28 153 q 140 133 74 133 q 276 263 276 133 l 276 971 l 453 971 l 453 253 q 382 52 453 125 q 183 -21 311 -21 z "},"K":{"ha":953,"x_min":83,"x_max":897,"o":"m 83 971 l 260 971 l 260 531 l 658 971 l 869 971 l 439 496 l 897 0 l 686 0 l 260 461 l 260 0 l 83 0 l 83 971 z "},"Ķ":{"ha":953,"x_min":83,"x_max":897,"o":"m 83 971 l 260 971 l 260 531 l 658 971 l 869 971 l 439 496 l 897 0 l 686 0 l 260 461 l 260 0 l 83 0 l 83 971 m 368 -78 l 550 -78 l 414 -360 l 254 -360 l 368 -78 z "},"L":{"ha":754,"x_min":83,"x_max":726,"o":"m 83 971 l 260 971 l 260 146 l 726 146 l 726 0 l 83 0 l 83 971 z "},"Ĺ":{"ha":754,"x_min":83,"x_max":726,"o":"m 188 1272 l 372 1272 l 253 1031 l 92 1031 l 188 1272 m 83 971 l 260 971 l 260 146 l 726 146 l 726 0 l 83 0 l 83 971 z "},"Ľ":{"ha":754,"x_min":83,"x_max":726,"o":"m 510 982 l 692 982 l 556 700 l 396 700 l 510 982 m 83 971 l 260 971 l 260 146 l 726 146 l 726 0 l 83 0 l 83 971 z "},"Ļ":{"ha":754,"x_min":83,"x_max":726,"o":"m 83 971 l 260 971 l 260 146 l 726 146 l 726 0 l 83 0 l 83 971 m 326 -78 l 508 -78 l 372 -360 l 213 -360 l 326 -78 z "},"Ŀ":{"ha":754,"x_min":83,"x_max":726,"o":"m 83 971 l 260 971 l 260 146 l 726 146 l 726 0 l 83 0 l 83 971 m 526 446 q 461 473 489 446 q 433 538 433 500 q 461 603 433 576 q 526 631 489 631 q 591 603 564 631 q 618 538 618 576 q 591 472 618 499 q 526 446 564 446 z "},"Ḷ":{"ha":754,"x_min":83,"x_max":726,"o":"m 83 971 l 260 971 l 260 146 l 726 146 l 726 0 l 83 0 l 83 971 m 364 -249 q 299 -222 326 -249 q 271 -157 271 -194 q 299 -91 271 -118 q 364 -64 326 -64 q 428 -91 401 -64 q 456 -157 456 -118 q 428 -222 456 -196 q 364 -249 401 -249 z "},"Ḹ":{"ha":778,"x_min":97,"x_max":750,"o":"m 97 1161 l 546 1161 l 546 1044 l 97 1044 l 97 1161 m 107 971 l 283 971 l 283 146 l 750 146 l 750 0 l 107 0 l 107 971 m 421 -249 q 356 -222 383 -249 q 328 -157 328 -194 q 356 -91 328 -118 q 421 -64 383 -64 q 485 -91 458 -64 q 513 -157 513 -118 q 485 -222 513 -196 q 421 -249 458 -249 z "},"Ḻ":{"ha":754,"x_min":83,"x_max":726,"o":"m 83 971 l 260 971 l 260 146 l 726 146 l 726 0 l 83 0 l 83 971 m 174 -94 l 622 -94 l 622 -210 l 174 -210 l 174 -94 z "},"Ł":{"ha":815,"x_min":14,"x_max":788,"o":"m 144 393 l 14 335 l 14 503 l 144 561 l 144 971 l 321 971 l 321 639 l 536 736 l 536 568 l 321 471 l 321 146 l 788 146 l 788 0 l 144 0 l 144 393 z "},"M":{"ha":1161,"x_min":83,"x_max":1078,"o":"m 83 971 l 256 971 l 581 260 l 906 971 l 1078 971 l 1078 0 l 911 0 l 911 631 l 622 0 l 539 0 l 250 631 l 250 0 l 83 0 l 83 971 z "},"Ṃ":{"ha":1161,"x_min":83,"x_max":1078,"o":"m 83 971 l 256 971 l 581 260 l 906 971 l 1078 971 l 1078 0 l 911 0 l 911 631 l 622 0 l 539 0 l 250 631 l 250 0 l 83 0 l 83 971 m 582 -249 q 517 -222 544 -249 q 489 -157 489 -194 q 517 -91 489 -118 q 582 -64 544 -64 q 647 -91 619 -64 q 674 -157 674 -118 q 647 -222 674 -196 q 582 -249 619 -249 z "},"N":{"ha":964,"x_min":83,"x_max":881,"o":"m 83 971 l 250 971 l 704 294 l 704 971 l 881 971 l 881 0 l 714 0 l 260 678 l 260 0 l 83 0 l 83 971 z "},"Ń":{"ha":964,"x_min":83,"x_max":881,"o":"m 482 1272 l 667 1272 l 547 1031 l 386 1031 l 482 1272 m 83 971 l 250 971 l 704 294 l 704 971 l 881 971 l 881 0 l 714 0 l 260 678 l 260 0 l 83 0 l 83 971 z "},"Ň":{"ha":964,"x_min":83,"x_max":881,"o":"m 199 1268 l 375 1268 l 481 1129 l 586 1268 l 761 1268 l 558 1031 l 403 1031 l 199 1268 m 83 971 l 250 971 l 704 294 l 704 971 l 881 971 l 881 0 l 714 0 l 260 678 l 260 0 l 83 0 l 83 971 z "},"Ņ":{"ha":964,"x_min":83,"x_max":881,"o":"m 83 971 l 250 971 l 704 294 l 704 971 l 881 971 l 881 0 l 714 0 l 260 678 l 260 0 l 83 0 l 83 971 m 401 -78 l 583 -78 l 447 -360 l 288 -360 l 401 -78 z "},"Ṅ":{"ha":964,"x_min":83,"x_max":881,"o":"m 486 1044 q 421 1072 449 1044 q 393 1136 393 1099 q 421 1202 393 1175 q 486 1229 449 1229 q 551 1202 524 1229 q 578 1136 578 1175 q 551 1071 578 1097 q 486 1044 524 1044 m 83 971 l 250 971 l 704 294 l 704 971 l 881 971 l 881 0 l 714 0 l 260 678 l 260 0 l 83 0 l 83 971 z "},"Ṇ":{"ha":964,"x_min":83,"x_max":881,"o":"m 83 971 l 250 971 l 704 294 l 704 971 l 881 971 l 881 0 l 714 0 l 260 678 l 260 0 l 83 0 l 83 971 m 485 -249 q 419 -222 447 -249 q 392 -157 392 -194 q 419 -91 392 -118 q 485 -64 447 -64 q 549 -91 522 -64 q 576 -157 576 -118 q 549 -222 576 -196 q 485 -249 522 -249 z "},"Ŋ":{"ha":964,"x_min":83,"x_max":881,"o":"m 881 971 l 881 0 l 881 -76 q 811 -258 881 -197 q 624 -319 742 -319 q 507 -301 557 -319 l 507 -160 q 593 -176 544 -176 q 678 -148 650 -176 q 706 -58 706 -119 l 706 13 l 260 678 l 260 0 l 83 0 l 83 971 l 250 971 l 704 294 l 704 971 l 881 971 z "},"Ṉ":{"ha":964,"x_min":83,"x_max":881,"o":"m 83 971 l 250 971 l 704 294 l 704 971 l 881 971 l 881 0 l 714 0 l 260 678 l 260 0 l 83 0 l 83 971 m 267 -94 l 715 -94 l 715 -210 l 267 -210 l 267 -94 z "},"Ñ":{"ha":964,"x_min":83,"x_max":881,"o":"m 222 1174 q 361 1233 267 1233 q 421 1225 392 1233 q 496 1199 450 1217 q 564 1173 535 1182 q 624 1164 593 1164 q 763 1235 710 1164 l 763 1092 q 624 1033 719 1033 q 557 1042 589 1033 q 483 1069 525 1051 q 416 1094 442 1086 q 361 1103 390 1103 q 287 1086 321 1103 q 222 1031 253 1069 l 222 1174 m 83 971 l 250 971 l 704 294 l 704 971 l 881 971 l 881 0 l 714 0 l 260 678 l 260 0 l 83 0 l 83 971 z "},"O":{"ha":1140,"x_min":56,"x_max":1085,"o":"m 571 -21 q 308 42 425 -21 q 123 221 190 106 q 56 485 56 336 q 123 749 56 633 q 308 928 190 864 q 571 992 425 992 q 833 928 715 992 q 1017 749 950 864 q 1085 485 1085 633 q 1017 222 1085 336 q 833 43 950 107 q 571 -21 715 -21 m 571 139 q 740 181 664 139 q 862 302 817 224 q 907 485 907 381 q 863 666 907 588 q 742 788 818 744 q 571 831 665 831 q 399 788 476 831 q 278 666 322 744 q 233 485 233 588 q 278 302 233 381 q 401 181 324 224 q 571 139 478 139 z "},"Ó":{"ha":1140,"x_min":56,"x_max":1085,"o":"m 583 1272 l 768 1272 l 649 1031 l 488 1031 l 583 1272 m 571 -21 q 308 42 425 -21 q 123 221 190 106 q 56 485 56 336 q 123 749 56 633 q 308 928 190 864 q 571 992 425 992 q 833 928 715 992 q 1017 749 950 864 q 1085 485 1085 633 q 1017 222 1085 336 q 833 43 950 107 q 571 -21 715 -21 m 571 139 q 740 181 664 139 q 862 302 817 224 q 907 485 907 381 q 863 666 907 588 q 742 788 818 744 q 571 831 665 831 q 399 788 476 831 q 278 666 322 744 q 233 485 233 588 q 278 302 233 381 q 401 181 324 224 q 571 139 478 139 z "},"Ŏ":{"ha":1140,"x_min":56,"x_max":1085,"o":"m 569 1031 q 406 1088 465 1031 q 346 1240 346 1146 l 478 1240 q 501 1171 478 1194 q 569 1147 525 1147 q 638 1171 614 1147 q 661 1240 661 1194 l 793 1240 q 733 1088 793 1146 q 569 1031 674 1031 m 571 -21 q 308 42 425 -21 q 123 221 190 106 q 56 485 56 336 q 123 749 56 633 q 308 928 190 864 q 571 992 425 992 q 833 928 715 992 q 1017 749 950 864 q 1085 485 1085 633 q 1017 222 1085 336 q 833 43 950 107 q 571 -21 715 -21 m 571 139 q 740 181 664 139 q 862 302 817 224 q 907 485 907 381 q 863 666 907 588 q 742 788 818 744 q 571 831 665 831 q 399 788 476 831 q 278 666 322 744 q 233 485 233 588 q 278 302 233 381 q 401 181 324 224 q 571 139 478 139 z "},"Ǒ":{"ha":1140,"x_min":56,"x_max":1085,"o":"m 288 1268 l 464 1268 l 569 1129 l 675 1268 l 850 1268 l 647 1031 l 492 1031 l 288 1268 m 571 -21 q 308 42 425 -21 q 123 221 190 106 q 56 485 56 336 q 123 749 56 633 q 308 928 190 864 q 571 992 425 992 q 833 928 715 992 q 1017 749 950 864 q 1085 485 1085 633 q 1017 222 1085 336 q 833 43 950 107 q 571 -21 715 -21 m 571 139 q 740 181 664 139 q 862 302 817 224 q 907 485 907 381 q 863 666 907 588 q 742 788 818 744 q 571 831 665 831 q 399 788 476 831 q 278 666 322 744 q 233 485 233 588 q 278 302 233 381 q 401 181 324 224 q 571 139 478 139 z "},"Ô":{"ha":1140,"x_min":56,"x_max":1085,"o":"m 493 1268 l 649 1268 l 851 1031 l 676 1031 l 571 1168 l 465 1031 l 289 1031 l 493 1268 m 571 -21 q 308 42 425 -21 q 123 221 190 106 q 56 485 56 336 q 123 749 56 633 q 308 928 190 864 q 571 992 425 992 q 833 928 715 992 q 1017 749 950 864 q 1085 485 1085 633 q 1017 222 1085 336 q 833 43 950 107 q 571 -21 715 -21 m 571 139 q 740 181 664 139 q 862 302 817 224 q 907 485 907 381 q 863 666 907 588 q 742 788 818 744 q 571 831 665 831 q 399 788 476 831 q 278 666 322 744 q 233 485 233 588 q 278 302 233 381 q 401 181 324 224 q 571 139 478 139 z "},"Ố":{"ha":1140,"x_min":56,"x_max":1085,"o":"m 863 1346 l 1025 1346 l 918 1168 l 778 1168 l 863 1346 m 515 1242 l 663 1242 l 854 1031 l 689 1031 l 589 1147 l 489 1031 l 322 1031 l 515 1242 m 571 -21 q 308 42 425 -21 q 123 221 190 106 q 56 485 56 336 q 123 749 56 633 q 308 928 190 864 q 571 992 425 992 q 833 928 715 992 q 1017 749 950 864 q 1085 485 1085 633 q 1017 222 1085 336 q 833 43 950 107 q 571 -21 715 -21 m 571 139 q 740 181 664 139 q 862 302 817 224 q 907 485 907 381 q 863 666 907 588 q 742 788 818 744 q 571 831 665 831 q 399 788 476 831 q 278 666 322 744 q 233 485 233 588 q 278 302 233 381 q 401 181 324 224 q 571 139 478 139 z "},"Ộ":{"ha":1140,"x_min":56,"x_max":1085,"o":"m 493 1268 l 649 1268 l 851 1031 l 676 1031 l 571 1168 l 465 1031 l 289 1031 l 493 1268 m 571 -21 q 308 42 425 -21 q 123 221 190 106 q 56 485 56 336 q 123 749 56 633 q 308 928 190 864 q 571 992 425 992 q 833 928 715 992 q 1017 749 950 864 q 1085 485 1085 633 q 1017 222 1085 336 q 833 43 950 107 q 571 -21 715 -21 m 571 139 q 740 181 664 139 q 862 302 817 224 q 907 485 907 381 q 863 666 907 588 q 742 788 818 744 q 571 831 665 831 q 399 788 476 831 q 278 666 322 744 q 233 485 233 588 q 278 302 233 381 q 401 181 324 224 q 571 139 478 139 m 572 -249 q 507 -222 535 -249 q 479 -157 479 -194 q 507 -91 479 -118 q 572 -64 535 -64 q 637 -91 610 -64 q 664 -157 664 -118 q 637 -222 664 -196 q 572 -249 610 -249 z "},"Ồ":{"ha":1140,"x_min":56,"x_max":1085,"o":"m 142 1346 l 304 1346 l 389 1168 l 249 1168 l 142 1346 m 504 1242 l 651 1242 l 844 1031 l 678 1031 l 578 1147 l 478 1031 l 313 1031 l 504 1242 m 571 -21 q 308 42 425 -21 q 123 221 190 106 q 56 485 56 336 q 123 749 56 633 q 308 928 190 864 q 571 992 425 992 q 833 928 715 992 q 1017 749 950 864 q 1085 485 1085 633 q 1017 222 1085 336 q 833 43 950 107 q 571 -21 715 -21 m 571 139 q 740 181 664 139 q 862 302 817 224 q 907 485 907 381 q 863 666 907 588 q 742 788 818 744 q 571 831 665 831 q 399 788 476 831 q 278 666 322 744 q 233 485 233 588 q 278 302 233 381 q 401 181 324 224 q 571 139 478 139 z "},"Ổ":{"ha":1140,"x_min":56,"x_max":1085,"o":"m 778 1222 q 838 1232 819 1222 q 857 1265 857 1242 q 843 1294 857 1286 q 799 1301 829 1301 q 742 1290 764 1301 l 742 1358 q 789 1369 761 1365 q 842 1374 817 1374 q 940 1347 904 1374 q 976 1276 976 1321 q 953 1217 976 1242 q 888 1186 929 1193 l 888 1153 l 778 1153 l 778 1222 m 515 1242 l 663 1242 l 854 1031 l 689 1031 l 589 1147 l 489 1031 l 322 1031 l 515 1242 m 571 -21 q 308 42 425 -21 q 123 221 190 106 q 56 485 56 336 q 123 749 56 633 q 308 928 190 864 q 571 992 425 992 q 833 928 715 992 q 1017 749 950 864 q 1085 485 1085 633 q 1017 222 1085 336 q 833 43 950 107 q 571 -21 715 -21 m 571 139 q 740 181 664 139 q 862 302 817 224 q 907 485 907 381 q 863 666 907 588 q 742 788 818 744 q 571 831 665 831 q 399 788 476 831 q 278 666 322 744 q 233 485 233 588 q 278 302 233 381 q 401 181 324 224 q 571 139 478 139 z "},"Ỗ":{"ha":1140,"x_min":56,"x_max":1085,"o":"m 678 1285 q 626 1293 651 1285 q 564 1317 601 1301 q 506 1338 528 1331 q 464 1344 485 1344 q 405 1331 431 1344 q 356 1286 379 1318 l 356 1410 q 464 1458 389 1458 q 512 1451 488 1458 q 574 1428 536 1443 q 603 1417 581 1425 q 644 1403 625 1408 q 678 1399 663 1399 q 738 1412 711 1399 q 786 1457 764 1425 l 786 1332 q 678 1285 753 1285 m 569 1031 q 410 1086 468 1031 q 353 1235 353 1142 l 481 1235 q 503 1167 481 1190 q 569 1144 526 1144 q 635 1167 613 1144 q 658 1235 658 1190 l 786 1235 q 728 1086 786 1142 q 569 1031 671 1031 m 571 -21 q 308 42 425 -21 q 123 221 190 106 q 56 485 56 336 q 123 749 56 633 q 308 928 190 864 q 571 992 425 992 q 833 928 715 992 q 1017 749 950 864 q 1085 485 1085 633 q 1017 222 1085 336 q 833 43 950 107 q 571 -21 715 -21 m 571 139 q 740 181 664 139 q 862 302 817 224 q 907 485 907 381 q 863 666 907 588 q 742 788 818 744 q 571 831 665 831 q 399 788 476 831 q 278 666 322 744 q 233 485 233 588 q 278 302 233 381 q 401 181 324 224 q 571 139 478 139 z "},"Ö":{"ha":1140,"x_min":56,"x_max":1085,"o":"m 406 1044 q 340 1072 368 1044 q 313 1136 313 1099 q 340 1202 313 1175 q 406 1229 368 1229 q 470 1202 443 1229 q 497 1136 497 1175 q 470 1071 497 1097 q 406 1044 443 1044 m 735 1044 q 669 1072 697 1044 q 642 1136 642 1099 q 669 1202 642 1175 q 735 1229 697 1229 q 799 1202 772 1229 q 826 1136 826 1175 q 799 1071 826 1097 q 735 1044 772 1044 m 571 -21 q 308 42 425 -21 q 123 221 190 106 q 56 485 56 336 q 123 749 56 633 q 308 928 190 864 q 571 992 425 992 q 833 928 715 992 q 1017 749 950 864 q 1085 485 1085 633 q 1017 222 1085 336 q 833 43 950 107 q 571 -21 715 -21 m 571 139 q 740 181 664 139 q 862 302 817 224 q 907 485 907 381 q 863 666 907 588 q 742 788 818 744 q 571 831 665 831 q 399 788 476 831 q 278 666 322 744 q 233 485 233 588 q 278 302 233 381 q 401 181 324 224 q 571 139 478 139 z "},"Ọ":{"ha":1140,"x_min":56,"x_max":1085,"o":"m 571 -21 q 308 42 425 -21 q 123 221 190 106 q 56 485 56 336 q 123 749 56 633 q 308 928 190 864 q 571 992 425 992 q 833 928 715 992 q 1017 749 950 864 q 1085 485 1085 633 q 1017 222 1085 336 q 833 43 950 107 q 571 -21 715 -21 m 571 139 q 740 181 664 139 q 862 302 817 224 q 907 485 907 381 q 863 666 907 588 q 742 788 818 744 q 571 831 665 831 q 399 788 476 831 q 278 666 322 744 q 233 485 233 588 q 278 302 233 381 q 401 181 324 224 q 571 139 478 139 m 571 -249 q 506 -222 533 -249 q 478 -157 478 -194 q 506 -91 478 -118 q 571 -64 533 -64 q 635 -91 608 -64 q 663 -157 663 -118 q 635 -222 663 -196 q 571 -249 608 -249 z "},"Ò":{"ha":1140,"x_min":56,"x_max":1085,"o":"m 382 1272 l 567 1272 l 663 1031 l 501 1031 l 382 1272 m 571 -21 q 308 42 425 -21 q 123 221 190 106 q 56 485 56 336 q 123 749 56 633 q 308 928 190 864 q 571 992 425 992 q 833 928 715 992 q 1017 749 950 864 q 1085 485 1085 633 q 1017 222 1085 336 q 833 43 950 107 q 571 -21 715 -21 m 571 139 q 740 181 664 139 q 862 302 817 224 q 907 485 907 381 q 863 666 907 588 q 742 788 818 744 q 571 831 665 831 q 399 788 476 831 q 278 666 322 744 q 233 485 233 588 q 278 302 233 381 q 401 181 324 224 q 571 139 478 139 z "},"Ỏ":{"ha":1140,"x_min":56,"x_max":1085,"o":"m 488 1133 q 582 1149 550 1133 q 614 1201 614 1164 q 594 1241 614 1229 q 528 1253 574 1253 q 479 1247 510 1253 q 436 1236 449 1242 l 436 1328 q 500 1342 463 1336 q 572 1347 538 1347 q 717 1310 667 1347 q 767 1208 767 1272 q 733 1122 767 1157 q 640 1078 700 1088 l 640 1031 l 488 1031 l 488 1133 m 571 -21 q 308 42 425 -21 q 123 221 190 106 q 56 485 56 336 q 123 749 56 633 q 308 928 190 864 q 571 992 425 992 q 833 928 715 992 q 1017 749 950 864 q 1085 485 1085 633 q 1017 222 1085 336 q 833 43 950 107 q 571 -21 715 -21 m 571 139 q 740 181 664 139 q 862 302 817 224 q 907 485 907 381 q 863 666 907 588 q 742 788 818 744 q 571 831 665 831 q 399 788 476 831 q 278 666 322 744 q 233 485 233 588 q 278 302 233 381 q 401 181 324 224 q 571 139 478 139 z "},"Ơ":{"ha":1211,"x_min":56,"x_max":1197,"o":"m 571 -21 q 308 42 425 -21 q 123 221 190 106 q 56 485 56 336 q 123 749 56 633 q 308 928 190 864 q 571 992 425 992 q 760 960 671 992 q 917 869 849 928 q 1010 896 985 871 q 1035 989 1035 921 l 1035 1038 l 1197 1038 l 1197 979 q 1150 827 1197 893 q 1022 739 1103 761 q 1085 485 1085 626 q 1017 222 1085 336 q 833 43 950 107 q 571 -21 715 -21 m 571 147 q 736 189 661 147 q 855 307 811 231 q 899 485 899 383 q 856 662 899 585 q 738 781 813 739 q 571 822 663 822 q 403 781 479 822 q 285 662 328 739 q 242 485 242 585 q 285 307 242 383 q 404 189 329 231 q 571 147 479 147 z "},"Ớ":{"ha":1211,"x_min":56,"x_max":1197,"o":"m 590 1272 l 775 1272 l 656 1031 l 494 1031 l 590 1272 m 571 -21 q 308 42 425 -21 q 123 221 190 106 q 56 485 56 336 q 123 749 56 633 q 308 928 190 864 q 571 992 425 992 q 760 960 671 992 q 917 869 849 928 q 1010 896 985 871 q 1035 989 1035 921 l 1035 1038 l 1197 1038 l 1197 979 q 1150 827 1197 893 q 1022 739 1103 761 q 1085 485 1085 626 q 1017 222 1085 336 q 833 43 950 107 q 571 -21 715 -21 m 571 147 q 736 189 661 147 q 855 307 811 231 q 899 485 899 383 q 856 662 899 585 q 738 781 813 739 q 571 822 663 822 q 403 781 479 822 q 285 662 328 739 q 242 485 242 585 q 285 307 242 383 q 404 189 329 231 q 571 147 479 147 z "},"Ợ":{"ha":1211,"x_min":56,"x_max":1197,"o":"m 571 -21 q 308 42 425 -21 q 123 221 190 106 q 56 485 56 336 q 123 749 56 633 q 308 928 190 864 q 571 992 425 992 q 760 960 671 992 q 917 869 849 928 q 1010 896 985 871 q 1035 989 1035 921 l 1035 1038 l 1197 1038 l 1197 979 q 1150 827 1197 893 q 1022 739 1103 761 q 1085 485 1085 626 q 1017 222 1085 336 q 833 43 950 107 q 571 -21 715 -21 m 571 147 q 736 189 661 147 q 855 307 811 231 q 899 485 899 383 q 856 662 899 585 q 738 781 813 739 q 571 822 663 822 q 403 781 479 822 q 285 662 328 739 q 242 485 242 585 q 285 307 242 383 q 404 189 329 231 q 571 147 479 147 m 563 -249 q 497 -222 525 -249 q 469 -157 469 -194 q 497 -91 469 -118 q 563 -64 525 -64 q 627 -91 600 -64 q 654 -157 654 -118 q 627 -222 654 -196 q 563 -249 600 -249 z "},"Ờ":{"ha":1211,"x_min":56,"x_max":1197,"o":"m 357 1272 l 542 1272 l 638 1031 l 476 1031 l 357 1272 m 571 -21 q 308 42 425 -21 q 123 221 190 106 q 56 485 56 336 q 123 749 56 633 q 308 928 190 864 q 571 992 425 992 q 760 960 671 992 q 917 869 849 928 q 1010 896 985 871 q 1035 989 1035 921 l 1035 1038 l 1197 1038 l 1197 979 q 1150 827 1197 893 q 1022 739 1103 761 q 1085 485 1085 626 q 1017 222 1085 336 q 833 43 950 107 q 571 -21 715 -21 m 571 147 q 736 189 661 147 q 855 307 811 231 q 899 485 899 383 q 856 662 899 585 q 738 781 813 739 q 571 822 663 822 q 403 781 479 822 q 285 662 328 739 q 242 485 242 585 q 285 307 242 383 q 404 189 329 231 q 571 147 479 147 z "},"Ở":{"ha":1211,"x_min":56,"x_max":1197,"o":"m 492 1133 q 586 1149 554 1133 q 618 1201 618 1164 q 598 1241 618 1229 q 532 1253 578 1253 q 483 1247 514 1253 q 440 1236 453 1242 l 440 1328 q 504 1342 467 1336 q 576 1347 542 1347 q 721 1310 671 1347 q 771 1208 771 1272 q 738 1122 771 1157 q 644 1078 704 1088 l 644 1031 l 492 1031 l 492 1133 m 571 -21 q 308 42 425 -21 q 123 221 190 106 q 56 485 56 336 q 123 749 56 633 q 308 928 190 864 q 571 992 425 992 q 760 960 671 992 q 917 869 849 928 q 1010 896 985 871 q 1035 989 1035 921 l 1035 1038 l 1197 1038 l 1197 979 q 1150 827 1197 893 q 1022 739 1103 761 q 1085 485 1085 626 q 1017 222 1085 336 q 833 43 950 107 q 571 -21 715 -21 m 571 147 q 736 189 661 147 q 855 307 811 231 q 899 485 899 383 q 856 662 899 585 q 738 781 813 739 q 571 822 663 822 q 403 781 479 822 q 285 662 328 739 q 242 485 242 585 q 285 307 242 383 q 404 189 329 231 q 571 147 479 147 z "},"Ỡ":{"ha":1211,"x_min":56,"x_max":1197,"o":"m 321 1174 q 460 1233 365 1233 q 519 1225 490 1233 q 594 1199 549 1217 q 663 1173 633 1182 q 722 1164 692 1164 q 861 1235 808 1164 l 861 1092 q 722 1033 818 1033 q 656 1042 688 1033 q 582 1069 624 1051 q 515 1094 540 1086 q 460 1103 489 1103 q 385 1086 419 1103 q 321 1031 351 1069 l 321 1174 m 571 -21 q 308 42 425 -21 q 123 221 190 106 q 56 485 56 336 q 123 749 56 633 q 308 928 190 864 q 571 992 425 992 q 760 960 671 992 q 917 869 849 928 q 1010 896 985 871 q 1035 989 1035 921 l 1035 1038 l 1197 1038 l 1197 979 q 1150 827 1197 893 q 1022 739 1103 761 q 1085 485 1085 626 q 1017 222 1085 336 q 833 43 950 107 q 571 -21 715 -21 m 571 147 q 736 189 661 147 q 855 307 811 231 q 899 485 899 383 q 856 662 899 585 q 738 781 813 739 q 571 822 663 822 q 403 781 479 822 q 285 662 328 739 q 242 485 242 585 q 285 307 242 383 q 404 189 329 231 q 571 147 479 147 z "},"Ő":{"ha":1140,"x_min":56,"x_max":1085,"o":"m 422 1272 l 593 1272 l 474 1031 l 326 1031 l 422 1272 m 733 1272 l 903 1272 l 783 1031 l 636 1031 l 733 1272 m 571 -21 q 308 42 425 -21 q 123 221 190 106 q 56 485 56 336 q 123 749 56 633 q 308 928 190 864 q 571 992 425 992 q 833 928 715 992 q 1017 749 950 864 q 1085 485 1085 633 q 1017 222 1085 336 q 833 43 950 107 q 571 -21 715 -21 m 571 139 q 740 181 664 139 q 862 302 817 224 q 907 485 907 381 q 863 666 907 588 q 742 788 818 744 q 571 831 665 831 q 399 788 476 831 q 278 666 322 744 q 233 485 233 588 q 278 302 233 381 q 401 181 324 224 q 571 139 478 139 z "},"Ō":{"ha":1140,"x_min":56,"x_max":1085,"o":"m 346 1161 l 794 1161 l 794 1044 l 346 1044 l 346 1161 m 571 -21 q 308 42 425 -21 q 123 221 190 106 q 56 485 56 336 q 123 749 56 633 q 308 928 190 864 q 571 992 425 992 q 833 928 715 992 q 1017 749 950 864 q 1085 485 1085 633 q 1017 222 1085 336 q 833 43 950 107 q 571 -21 715 -21 m 571 139 q 740 181 664 139 q 862 302 817 224 q 907 485 907 381 q 863 666 907 588 q 742 788 818 744 q 571 831 665 831 q 399 788 476 831 q 278 666 322 744 q 233 485 233 588 q 278 302 233 381 q 401 181 324 224 q 571 139 478 139 z "},"Ø":{"ha":1140,"x_min":56,"x_max":1085,"o":"m 308 42 q 123 221 190 106 q 56 485 56 336 q 123 749 56 633 q 308 928 190 864 q 571 992 425 992 q 685 981 626 992 l 729 1089 l 901 1089 l 836 925 q 1018 747 951 861 q 1085 485 1085 632 q 1017 222 1085 336 q 833 43 950 107 q 571 -21 715 -21 q 458 -10 517 -21 l 415 -119 l 243 -119 l 308 42 m 624 826 q 571 831 597 831 q 399 788 476 831 q 278 666 322 744 q 233 485 233 588 q 270 317 233 390 q 371 199 307 243 l 624 826 m 571 139 q 740 181 664 139 q 862 302 817 224 q 907 485 907 381 q 871 649 907 576 q 772 768 835 722 l 521 142 q 571 139 551 139 z "},"Ǿ":{"ha":1140,"x_min":56,"x_max":1085,"o":"m 582 1272 l 767 1272 l 647 1031 l 486 1031 l 582 1272 m 308 42 q 123 221 190 106 q 56 485 56 336 q 123 749 56 633 q 308 928 190 864 q 571 992 425 992 q 685 981 626 992 l 729 1089 l 901 1089 l 836 925 q 1018 747 951 861 q 1085 485 1085 632 q 1017 222 1085 336 q 833 43 950 107 q 571 -21 715 -21 q 458 -10 517 -21 l 415 -119 l 243 -119 l 308 42 m 624 826 q 571 831 597 831 q 399 788 476 831 q 278 666 322 744 q 233 485 233 588 q 270 317 233 390 q 371 199 307 243 l 624 826 m 571 139 q 740 181 664 139 q 862 302 817 224 q 907 485 907 381 q 871 649 907 576 q 772 768 835 722 l 521 142 q 571 139 551 139 z "},"Õ":{"ha":1140,"x_min":56,"x_max":1085,"o":"m 301 1174 q 440 1233 346 1233 q 500 1225 471 1233 q 575 1199 529 1217 q 643 1173 614 1182 q 703 1164 672 1164 q 842 1235 789 1164 l 842 1092 q 703 1033 799 1033 q 636 1042 668 1033 q 563 1069 604 1051 q 495 1094 521 1086 q 440 1103 469 1103 q 366 1086 400 1103 q 301 1031 332 1069 l 301 1174 m 571 -21 q 308 42 425 -21 q 123 221 190 106 q 56 485 56 336 q 123 749 56 633 q 308 928 190 864 q 571 992 425 992 q 833 928 715 992 q 1017 749 950 864 q 1085 485 1085 633 q 1017 222 1085 336 q 833 43 950 107 q 571 -21 715 -21 m 571 139 q 740 181 664 139 q 862 302 817 224 q 907 485 907 381 q 863 666 907 588 q 742 788 818 744 q 571 831 665 831 q 399 788 476 831 q 278 666 322 744 q 233 485 233 588 q 278 302 233 381 q 401 181 324 224 q 571 139 478 139 z "},"Œ":{"ha":1242,"x_min":56,"x_max":1186,"o":"m 588 0 q 314 58 435 0 q 124 226 193 117 q 56 485 56 336 q 124 744 56 633 q 314 913 193 854 q 588 971 435 971 l 1186 971 l 1186 825 l 769 825 l 769 558 l 1063 558 l 1063 413 l 769 413 l 769 146 l 1186 146 l 1186 0 l 588 0 m 593 146 l 593 825 l 575 825 q 399 783 476 825 q 277 665 321 742 q 233 485 233 588 q 277 304 233 381 q 398 187 321 228 q 575 146 475 146 l 593 146 z "},"P":{"ha":853,"x_min":83,"x_max":825,"o":"m 83 971 l 472 971 q 728 886 632 971 q 825 654 825 801 q 729 422 825 501 q 471 342 633 342 l 260 342 l 260 0 l 83 0 l 83 971 m 450 488 q 649 654 649 488 q 450 825 649 825 l 260 825 l 260 488 l 450 488 z "},"Þ":{"ha":853,"x_min":83,"x_max":825,"o":"m 83 971 l 260 971 l 260 792 l 483 792 q 735 716 646 792 q 825 488 825 640 q 735 260 825 335 q 483 185 646 185 l 260 185 l 260 0 l 83 0 l 83 971 m 450 331 q 596 364 543 331 q 649 488 649 397 q 596 613 649 579 q 450 646 543 646 l 260 646 l 260 331 l 450 331 z "},"Q":{"ha":1131,"x_min":56,"x_max":1103,"o":"m 593 0 q 309 60 431 0 q 122 231 188 119 q 56 489 56 342 q 123 752 56 638 q 308 929 190 867 q 571 992 425 992 q 833 929 715 992 q 1017 752 950 867 q 1085 489 1085 638 q 1040 298 1085 389 q 925 154 996 207 l 1103 154 l 1103 0 l 593 0 m 571 160 q 816 246 725 160 q 907 489 907 332 q 863 669 907 592 q 742 789 818 747 q 571 831 665 831 q 399 789 476 831 q 278 669 322 747 q 233 489 233 592 q 324 245 233 331 q 571 160 415 160 z "},"R":{"ha":881,"x_min":83,"x_max":825,"o":"m 83 971 l 489 971 q 738 892 650 971 q 825 663 825 813 q 772 481 825 556 q 622 374 719 406 l 819 0 l 639 0 l 451 356 l 260 356 l 260 0 l 83 0 l 83 971 m 457 501 q 596 542 543 501 q 649 663 649 582 q 457 825 649 825 l 260 825 l 260 501 l 457 501 z "},"Ŕ":{"ha":881,"x_min":83,"x_max":825,"o":"m 400 1272 l 585 1272 l 465 1031 l 304 1031 l 400 1272 m 83 971 l 489 971 q 738 892 650 971 q 825 663 825 813 q 772 481 825 556 q 622 374 719 406 l 819 0 l 639 0 l 451 356 l 260 356 l 260 0 l 83 0 l 83 971 m 457 501 q 596 542 543 501 q 649 663 649 582 q 457 825 649 825 l 260 825 l 260 501 l 457 501 z "},"Ř":{"ha":881,"x_min":83,"x_max":825,"o":"m 94 1268 l 271 1268 l 376 1129 l 482 1268 l 657 1268 l 454 1031 l 299 1031 l 94 1268 m 83 971 l 489 971 q 738 892 650 971 q 825 663 825 813 q 772 481 825 556 q 622 374 719 406 l 819 0 l 639 0 l 451 356 l 260 356 l 260 0 l 83 0 l 83 971 m 457 501 q 596 542 543 501 q 649 663 649 582 q 457 825 649 825 l 260 825 l 260 501 l 457 501 z "},"Ŗ":{"ha":881,"x_min":83,"x_max":825,"o":"m 83 971 l 489 971 q 738 892 650 971 q 825 663 825 813 q 772 481 825 556 q 622 374 719 406 l 819 0 l 639 0 l 451 356 l 260 356 l 260 0 l 83 0 l 83 971 m 457 501 q 596 542 543 501 q 649 663 649 582 q 457 825 649 825 l 260 825 l 260 501 l 457 501 m 342 -78 l 524 -78 l 388 -360 l 228 -360 l 342 -78 z "},"Ṛ":{"ha":881,"x_min":83,"x_max":825,"o":"m 83 971 l 489 971 q 738 892 650 971 q 825 663 825 813 q 772 481 825 556 q 622 374 719 406 l 819 0 l 639 0 l 451 356 l 260 356 l 260 0 l 83 0 l 83 971 m 457 501 q 596 542 543 501 q 649 663 649 582 q 457 825 649 825 l 260 825 l 260 501 l 457 501 m 425 -249 q 360 -222 388 -249 q 332 -157 332 -194 q 360 -91 332 -118 q 425 -64 388 -64 q 490 -91 463 -64 q 517 -157 517 -118 q 490 -222 517 -196 q 425 -249 463 -249 z "},"Ṝ":{"ha":881,"x_min":83,"x_max":825,"o":"m 171 1161 l 619 1161 l 619 1044 l 171 1044 l 171 1161 m 83 971 l 489 971 q 738 892 650 971 q 825 663 825 813 q 772 481 825 556 q 622 374 719 406 l 819 0 l 639 0 l 451 356 l 260 356 l 260 0 l 83 0 l 83 971 m 457 501 q 596 542 543 501 q 649 663 649 582 q 457 825 649 825 l 260 825 l 260 501 l 457 501 m 397 -249 q 332 -222 360 -249 q 304 -157 304 -194 q 332 -91 304 -118 q 397 -64 360 -64 q 462 -91 435 -64 q 489 -157 489 -118 q 462 -222 489 -196 q 397 -249 435 -249 z "},"Ṟ":{"ha":881,"x_min":83,"x_max":825,"o":"m 83 971 l 489 971 q 738 892 650 971 q 825 663 825 813 q 772 481 825 556 q 622 374 719 406 l 819 0 l 639 0 l 451 356 l 260 356 l 260 0 l 83 0 l 83 971 m 457 501 q 596 542 543 501 q 649 663 649 582 q 457 825 649 825 l 260 825 l 260 501 l 457 501 m 199 -94 l 647 -94 l 647 -210 l 199 -210 l 199 -94 z "},"S":{"ha":788,"x_min":56,"x_max":732,"o":"m 364 -21 q 194 -5 278 -21 q 56 38 110 11 l 56 189 q 201 139 125 156 q 351 122 278 122 q 493 157 444 122 q 542 253 542 192 q 519 324 542 296 q 454 374 497 353 q 322 431 411 396 q 125 554 186 486 q 64 724 64 622 q 107 864 64 803 q 228 958 150 925 q 407 992 306 992 q 555 978 490 992 q 682 938 619 965 l 682 790 q 438 849 561 849 q 300 816 349 849 q 251 724 251 783 q 274 653 251 681 q 333 608 296 626 q 465 549 369 589 q 619 469 563 508 q 703 378 675 431 q 732 251 732 326 q 639 51 732 122 q 364 -21 546 -21 z "},"Ś":{"ha":788,"x_min":56,"x_max":732,"o":"m 401 1272 l 586 1272 l 467 1031 l 306 1031 l 401 1272 m 364 -21 q 194 -5 278 -21 q 56 38 110 11 l 56 189 q 201 139 125 156 q 351 122 278 122 q 493 157 444 122 q 542 253 542 192 q 519 324 542 296 q 454 374 497 353 q 322 431 411 396 q 125 554 186 486 q 64 724 64 622 q 107 864 64 803 q 228 958 150 925 q 407 992 306 992 q 555 978 490 992 q 682 938 619 965 l 682 790 q 438 849 561 849 q 300 816 349 849 q 251 724 251 783 q 274 653 251 681 q 333 608 296 626 q 465 549 369 589 q 619 469 563 508 q 703 378 675 431 q 732 251 732 326 q 639 51 732 122 q 364 -21 546 -21 z "},"Š":{"ha":788,"x_min":56,"x_max":732,"o":"m 122 1268 l 299 1268 l 404 1129 l 510 1268 l 685 1268 l 482 1031 l 326 1031 l 122 1268 m 364 -21 q 194 -5 278 -21 q 56 38 110 11 l 56 189 q 201 139 125 156 q 351 122 278 122 q 493 157 444 122 q 542 253 542 192 q 519 324 542 296 q 454 374 497 353 q 322 431 411 396 q 125 554 186 486 q 64 724 64 622 q 107 864 64 803 q 228 958 150 925 q 407 992 306 992 q 555 978 490 992 q 682 938 619 965 l 682 790 q 438 849 561 849 q 300 816 349 849 q 251 724 251 783 q 274 653 251 681 q 333 608 296 626 q 465 549 369 589 q 619 469 563 508 q 703 378 675 431 q 732 251 732 326 q 639 51 732 122 q 364 -21 546 -21 z "},"Ş":{"ha":788,"x_min":56,"x_max":732,"o":"m 732 251 q 658 67 732 138 q 439 -17 585 -3 l 418 -72 q 510 -116 478 -79 q 543 -208 543 -153 q 489 -309 543 -274 q 343 -344 435 -344 q 271 -340 306 -344 q 217 -328 236 -335 l 218 -232 q 256 -244 233 -239 q 299 -249 278 -249 q 381 -192 381 -249 q 348 -138 381 -158 q 243 -118 315 -118 l 282 -17 q 156 3 215 -11 q 56 38 97 17 l 56 189 q 201 139 125 156 q 351 122 278 122 q 493 157 444 122 q 542 253 542 192 q 519 324 542 296 q 454 374 497 353 q 322 431 411 396 q 125 554 186 486 q 64 724 64 622 q 107 864 64 803 q 228 958 150 925 q 407 992 306 992 q 555 978 490 992 q 682 938 619 965 l 682 790 q 438 849 561 849 q 300 816 349 849 q 251 724 251 783 q 274 653 251 681 q 333 608 296 626 q 465 549 369 589 q 619 469 563 508 q 703 378 675 431 q 732 251 732 326 z "},"Ŝ":{"ha":788,"x_min":56,"x_max":732,"o":"m 307 1268 l 463 1268 l 665 1031 l 490 1031 l 385 1168 l 279 1031 l 103 1031 l 307 1268 m 364 -21 q 194 -5 278 -21 q 56 38 110 11 l 56 189 q 201 139 125 156 q 351 122 278 122 q 493 157 444 122 q 542 253 542 192 q 519 324 542 296 q 454 374 497 353 q 322 431 411 396 q 125 554 186 486 q 64 724 64 622 q 107 864 64 803 q 228 958 150 925 q 407 992 306 992 q 555 978 490 992 q 682 938 619 965 l 682 790 q 438 849 561 849 q 300 816 349 849 q 251 724 251 783 q 274 653 251 681 q 333 608 296 626 q 465 549 369 589 q 619 469 563 508 q 703 378 675 431 q 732 251 732 326 q 639 51 732 122 q 364 -21 546 -21 z "},"Ș":{"ha":788,"x_min":56,"x_max":732,"o":"m 364 -21 q 194 -5 278 -21 q 56 38 110 11 l 56 189 q 201 139 125 156 q 351 122 278 122 q 493 157 444 122 q 542 253 542 192 q 519 324 542 296 q 454 374 497 353 q 322 431 411 396 q 125 554 186 486 q 64 724 64 622 q 107 864 64 803 q 228 958 150 925 q 407 992 306 992 q 555 978 490 992 q 682 938 619 965 l 682 790 q 438 849 561 849 q 300 816 349 849 q 251 724 251 783 q 274 653 251 681 q 333 608 296 626 q 465 549 369 589 q 619 469 563 508 q 703 378 675 431 q 732 251 732 326 q 639 51 732 122 q 364 -21 546 -21 m 283 -78 l 465 -78 l 329 -360 l 169 -360 l 283 -78 z "},"Ṡ":{"ha":788,"x_min":56,"x_max":732,"o":"m 404 1044 q 339 1072 367 1044 q 311 1136 311 1099 q 339 1202 311 1175 q 404 1229 367 1229 q 469 1202 442 1229 q 496 1136 496 1175 q 469 1071 496 1097 q 404 1044 442 1044 m 364 -21 q 194 -5 278 -21 q 56 38 110 11 l 56 189 q 201 139 125 156 q 351 122 278 122 q 493 157 444 122 q 542 253 542 192 q 519 324 542 296 q 454 374 497 353 q 322 431 411 396 q 125 554 186 486 q 64 724 64 622 q 107 864 64 803 q 228 958 150 925 q 407 992 306 992 q 555 978 490 992 q 682 938 619 965 l 682 790 q 438 849 561 849 q 300 816 349 849 q 251 724 251 783 q 274 653 251 681 q 333 608 296 626 q 465 549 369 589 q 619 469 563 508 q 703 378 675 431 q 732 251 732 326 q 639 51 732 122 q 364 -21 546 -21 z "},"Ṣ":{"ha":788,"x_min":56,"x_max":732,"o":"m 364 -21 q 194 -5 278 -21 q 56 38 110 11 l 56 189 q 201 139 125 156 q 351 122 278 122 q 493 157 444 122 q 542 253 542 192 q 519 324 542 296 q 454 374 497 353 q 322 431 411 396 q 125 554 186 486 q 64 724 64 622 q 107 864 64 803 q 228 958 150 925 q 407 992 306 992 q 555 978 490 992 q 682 938 619 965 l 682 790 q 438 849 561 849 q 300 816 349 849 q 251 724 251 783 q 274 653 251 681 q 333 608 296 626 q 465 549 369 589 q 619 469 563 508 q 703 378 675 431 q 732 251 732 326 q 639 51 732 122 q 364 -21 546 -21 m 374 -249 q 308 -222 336 -249 q 281 -157 281 -194 q 308 -91 281 -118 q 374 -64 336 -64 q 438 -91 411 -64 q 465 -157 465 -118 q 438 -222 465 -196 q 374 -249 411 -249 z "},"ẞ":{"ha":886,"x_min":76,"x_max":831,"o":"m 514 -21 q 333 6 396 -21 l 333 168 q 474 139 390 139 q 606 176 560 139 q 653 285 653 213 q 597 402 653 367 q 450 438 542 438 l 390 438 l 390 536 l 576 728 q 524 801 565 772 q 419 831 482 831 q 297 783 342 831 q 251 643 251 735 l 251 0 l 76 0 l 76 638 q 163 899 76 806 q 419 992 249 992 q 601 952 525 992 q 719 846 678 913 q 764 697 760 779 l 615 544 q 779 458 728 525 q 831 276 831 392 q 749 60 831 142 q 514 -21 667 -21 z "},"Ə":{"ha":1147,"x_min":56,"x_max":1092,"o":"m 571 -21 q 288 42 404 -21 q 114 215 172 106 q 56 465 56 325 l 56 549 l 904 549 q 782 766 890 686 q 497 846 674 846 q 311 829 407 846 q 146 785 215 813 l 146 928 q 317 974 214 956 q 522 992 419 992 q 829 933 701 992 q 1024 760 957 874 q 1092 488 1092 647 q 1032 219 1092 333 q 855 42 972 104 q 571 -21 738 -21 m 567 121 q 813 201 729 121 q 906 417 897 282 l 225 417 q 317 201 232 282 q 567 121 401 121 z "},"T":{"ha":818,"x_min":28,"x_max":790,"o":"m 321 825 l 28 825 l 28 971 l 790 971 l 790 825 l 497 825 l 497 0 l 321 0 l 321 825 z "},"Ŧ":{"ha":818,"x_min":28,"x_max":790,"o":"m 317 388 l 153 388 l 153 536 l 317 536 l 317 815 l 28 815 l 28 971 l 790 971 l 790 815 l 501 815 l 501 536 l 667 536 l 667 388 l 501 388 l 501 0 l 317 0 l 317 388 z "},"Ť":{"ha":818,"x_min":28,"x_max":790,"o":"m 128 1268 l 304 1268 l 410 1129 l 515 1268 l 690 1268 l 488 1031 l 332 1031 l 128 1268 m 321 825 l 28 825 l 28 971 l 790 971 l 790 825 l 497 825 l 497 0 l 321 0 l 321 825 z "},"Ţ":{"ha":818,"x_min":28,"x_max":790,"o":"m 489 0 l 461 -72 q 553 -116 521 -79 q 586 -208 586 -153 q 532 -309 586 -274 q 386 -344 478 -344 q 314 -340 349 -344 q 260 -328 279 -335 l 261 -232 q 299 -244 276 -239 q 342 -249 321 -249 q 424 -192 424 -249 q 391 -138 424 -158 q 286 -118 358 -118 l 332 0 l 321 0 l 321 825 l 28 825 l 28 971 l 790 971 l 790 825 l 497 825 l 497 0 l 489 0 z "},"Ț":{"ha":818,"x_min":28,"x_max":790,"o":"m 321 825 l 28 825 l 28 971 l 790 971 l 790 825 l 497 825 l 497 0 l 321 0 l 321 825 m 314 -78 l 496 -78 l 360 -360 l 200 -360 l 314 -78 z "},"Ṭ":{"ha":818,"x_min":28,"x_max":790,"o":"m 321 825 l 28 825 l 28 971 l 790 971 l 790 825 l 497 825 l 497 0 l 321 0 l 321 825 m 410 -249 q 344 -222 372 -249 q 317 -157 317 -194 q 344 -91 317 -118 q 410 -64 372 -64 q 474 -91 447 -64 q 501 -157 501 -118 q 474 -222 501 -196 q 410 -249 447 -249 z "},"Ṯ":{"ha":818,"x_min":28,"x_max":790,"o":"m 321 825 l 28 825 l 28 971 l 790 971 l 790 825 l 497 825 l 497 0 l 321 0 l 321 825 m 185 -94 l 633 -94 l 633 -210 l 185 -210 l 185 -94 z "},"U":{"ha":982,"x_min":76,"x_max":906,"o":"m 492 -21 q 181 87 286 -21 q 76 378 76 194 l 76 971 l 253 971 l 253 375 q 317 199 253 260 q 492 139 382 139 q 665 199 600 139 q 729 375 729 260 l 729 971 l 906 971 l 906 378 q 801 87 906 194 q 492 -21 697 -21 z "},"Ú":{"ha":982,"x_min":76,"x_max":906,"o":"m 497 1272 l 682 1272 l 563 1031 l 401 1031 l 497 1272 m 492 -21 q 181 87 286 -21 q 76 378 76 194 l 76 971 l 253 971 l 253 375 q 317 199 253 260 q 492 139 382 139 q 665 199 600 139 q 729 375 729 260 l 729 971 l 906 971 l 906 378 q 801 87 906 194 q 492 -21 697 -21 z "},"Ŭ":{"ha":982,"x_min":76,"x_max":906,"o":"m 490 1031 q 326 1088 386 1031 q 267 1240 267 1146 l 399 1240 q 422 1171 399 1194 q 490 1147 446 1147 q 558 1171 535 1147 q 582 1240 582 1194 l 714 1240 q 654 1088 714 1146 q 490 1031 594 1031 m 492 -21 q 181 87 286 -21 q 76 378 76 194 l 76 971 l 253 971 l 253 375 q 317 199 253 260 q 492 139 382 139 q 665 199 600 139 q 729 375 729 260 l 729 971 l 906 971 l 906 378 q 801 87 906 194 q 492 -21 697 -21 z "},"Ǔ":{"ha":982,"x_min":76,"x_max":906,"o":"m 210 1268 l 386 1268 l 492 1129 l 597 1268 l 772 1268 l 569 1031 l 414 1031 l 210 1268 m 492 -21 q 181 87 286 -21 q 76 378 76 194 l 76 971 l 253 971 l 253 375 q 317 199 253 260 q 492 139 382 139 q 665 199 600 139 q 729 375 729 260 l 729 971 l 906 971 l 906 378 q 801 87 906 194 q 492 -21 697 -21 z "},"Û":{"ha":982,"x_min":76,"x_max":906,"o":"m 414 1268 l 569 1268 l 772 1031 l 597 1031 l 492 1168 l 386 1031 l 210 1031 l 414 1268 m 492 -21 q 181 87 286 -21 q 76 378 76 194 l 76 971 l 253 971 l 253 375 q 317 199 253 260 q 492 139 382 139 q 665 199 600 139 q 729 375 729 260 l 729 971 l 906 971 l 906 378 q 801 87 906 194 q 492 -21 697 -21 z "},"Ü":{"ha":982,"x_min":76,"x_max":906,"o":"m 326 1044 q 261 1072 289 1044 q 233 1136 233 1099 q 261 1202 233 1175 q 326 1229 289 1229 q 391 1202 364 1229 q 418 1136 418 1175 q 391 1071 418 1097 q 326 1044 364 1044 m 656 1044 q 590 1072 618 1044 q 563 1136 563 1099 q 590 1202 563 1175 q 656 1229 618 1229 q 720 1202 693 1229 q 747 1136 747 1175 q 720 1071 747 1097 q 656 1044 693 1044 m 492 -21 q 181 87 286 -21 q 76 378 76 194 l 76 971 l 253 971 l 253 375 q 317 199 253 260 q 492 139 382 139 q 665 199 600 139 q 729 375 729 260 l 729 971 l 906 971 l 906 378 q 801 87 906 194 q 492 -21 697 -21 z "},"Ǘ":{"ha":982,"x_min":76,"x_max":906,"o":"m 506 1378 l 668 1378 l 561 1200 l 421 1200 l 506 1378 m 315 1044 q 250 1072 278 1044 q 222 1136 222 1099 q 250 1202 222 1175 q 315 1229 278 1229 q 380 1202 353 1229 q 407 1136 407 1175 q 380 1071 407 1097 q 315 1044 353 1044 m 672 1044 q 607 1072 635 1044 q 579 1136 579 1099 q 607 1202 579 1175 q 672 1229 635 1229 q 737 1202 710 1229 q 764 1136 764 1175 q 737 1071 764 1097 q 672 1044 710 1044 m 492 -21 q 181 87 286 -21 q 76 378 76 194 l 76 971 l 253 971 l 253 375 q 317 199 253 260 q 492 139 382 139 q 665 199 600 139 q 729 375 729 260 l 729 971 l 906 971 l 906 378 q 801 87 906 194 q 492 -21 697 -21 z "},"Ǚ":{"ha":982,"x_min":76,"x_max":906,"o":"m 254 1389 l 401 1389 l 490 1285 l 579 1389 l 728 1389 l 556 1200 l 425 1200 l 254 1389 m 311 1044 q 247 1071 274 1044 q 219 1136 219 1097 q 247 1202 219 1175 q 311 1229 274 1229 q 376 1202 349 1229 q 404 1136 404 1175 q 376 1072 404 1099 q 311 1044 349 1044 m 668 1044 q 603 1071 631 1044 q 576 1136 576 1097 q 603 1202 576 1175 q 668 1229 631 1229 q 733 1202 706 1229 q 761 1136 761 1175 q 733 1072 761 1099 q 668 1044 706 1044 m 492 -21 q 181 87 286 -21 q 76 378 76 194 l 76 971 l 253 971 l 253 375 q 317 199 253 260 q 492 139 382 139 q 665 199 600 139 q 729 375 729 260 l 729 971 l 906 971 l 906 378 q 801 87 906 194 q 492 -21 697 -21 z "},"Ǜ":{"ha":982,"x_min":76,"x_max":906,"o":"m 319 1378 l 482 1378 l 567 1200 l 426 1200 l 319 1378 m 315 1044 q 251 1071 278 1044 q 224 1136 224 1097 q 251 1202 224 1175 q 315 1229 278 1229 q 381 1202 353 1229 q 408 1136 408 1175 q 381 1072 408 1099 q 315 1044 353 1044 m 672 1044 q 608 1071 635 1044 q 581 1136 581 1097 q 608 1202 581 1175 q 672 1229 635 1229 q 738 1202 710 1229 q 765 1136 765 1175 q 738 1072 765 1099 q 672 1044 710 1044 m 492 -21 q 181 87 286 -21 q 76 378 76 194 l 76 971 l 253 971 l 253 375 q 317 199 253 260 q 492 139 382 139 q 665 199 600 139 q 729 375 729 260 l 729 971 l 906 971 l 906 378 q 801 87 906 194 q 492 -21 697 -21 z "},"Ǖ":{"ha":982,"x_min":76,"x_max":906,"o":"m 267 1407 l 715 1407 l 715 1290 l 267 1290 l 267 1407 m 326 1044 q 261 1072 289 1044 q 233 1136 233 1099 q 261 1202 233 1175 q 326 1229 289 1229 q 391 1202 364 1229 q 418 1136 418 1175 q 391 1071 418 1097 q 326 1044 364 1044 m 656 1044 q 590 1072 618 1044 q 563 1136 563 1099 q 590 1202 563 1175 q 656 1229 618 1229 q 720 1202 693 1229 q 747 1136 747 1175 q 720 1071 747 1097 q 656 1044 693 1044 m 492 -21 q 181 87 286 -21 q 76 378 76 194 l 76 971 l 253 971 l 253 375 q 317 199 253 260 q 492 139 382 139 q 665 199 600 139 q 729 375 729 260 l 729 971 l 906 971 l 906 378 q 801 87 906 194 q 492 -21 697 -21 z "},"Ụ":{"ha":982,"x_min":76,"x_max":906,"o":"m 492 -21 q 181 87 286 -21 q 76 378 76 194 l 76 971 l 253 971 l 253 375 q 317 199 253 260 q 492 139 382 139 q 665 199 600 139 q 729 375 729 260 l 729 971 l 906 971 l 906 378 q 801 87 906 194 q 492 -21 697 -21 m 492 -249 q 426 -222 454 -249 q 399 -157 399 -194 q 426 -91 399 -118 q 492 -64 454 -64 q 556 -91 529 -64 q 583 -157 583 -118 q 556 -222 583 -196 q 492 -249 529 -249 z "},"Ù":{"ha":982,"x_min":76,"x_max":906,"o":"m 297 1272 l 482 1272 l 578 1031 l 417 1031 l 297 1272 m 492 -21 q 181 87 286 -21 q 76 378 76 194 l 76 971 l 253 971 l 253 375 q 317 199 253 260 q 492 139 382 139 q 665 199 600 139 q 729 375 729 260 l 729 971 l 906 971 l 906 378 q 801 87 906 194 q 492 -21 697 -21 z "},"Ủ":{"ha":982,"x_min":76,"x_max":906,"o":"m 400 1133 q 494 1149 463 1133 q 526 1201 526 1164 q 506 1241 526 1229 q 440 1253 486 1253 q 392 1247 422 1253 q 349 1236 361 1242 l 349 1328 q 413 1342 375 1336 q 485 1347 450 1347 q 629 1310 579 1347 q 679 1208 679 1272 q 646 1122 679 1157 q 553 1078 613 1088 l 553 1031 l 400 1031 l 400 1133 m 492 -21 q 181 87 286 -21 q 76 378 76 194 l 76 971 l 253 971 l 253 375 q 317 199 253 260 q 492 139 382 139 q 665 199 600 139 q 729 375 729 260 l 729 971 l 906 971 l 906 378 q 801 87 906 194 q 492 -21 697 -21 z "},"Ư":{"ha":1197,"x_min":76,"x_max":1183,"o":"m 492 -21 q 181 87 286 -21 q 76 378 76 194 l 76 971 l 261 971 l 261 375 q 322 203 261 260 q 492 147 382 147 q 660 204 600 147 q 721 375 721 261 l 721 971 l 906 971 l 906 868 q 997 894 974 868 q 1021 989 1021 921 l 1021 1038 l 1183 1038 l 1183 979 q 1115 800 1183 868 q 906 731 1047 732 l 906 378 q 801 87 906 194 q 492 -21 697 -21 z "},"Ứ":{"ha":1197,"x_min":76,"x_max":1183,"o":"m 493 1272 l 678 1272 l 558 1031 l 397 1031 l 493 1272 m 492 -21 q 181 87 286 -21 q 76 378 76 194 l 76 971 l 261 971 l 261 375 q 322 203 261 260 q 492 147 382 147 q 660 204 600 147 q 721 375 721 261 l 721 971 l 906 971 l 906 868 q 997 894 974 868 q 1021 989 1021 921 l 1021 1038 l 1183 1038 l 1183 979 q 1115 800 1183 868 q 906 731 1047 732 l 906 378 q 801 87 906 194 q 492 -21 697 -21 z "},"Ự":{"ha":1197,"x_min":76,"x_max":1183,"o":"m 492 -21 q 181 87 286 -21 q 76 378 76 194 l 76 971 l 261 971 l 261 375 q 322 203 261 260 q 492 147 382 147 q 660 204 600 147 q 721 375 721 261 l 721 971 l 906 971 l 906 868 q 997 894 974 868 q 1021 989 1021 921 l 1021 1038 l 1183 1038 l 1183 979 q 1115 800 1183 868 q 906 731 1047 732 l 906 378 q 801 87 906 194 q 492 -21 697 -21 m 488 -249 q 422 -222 450 -249 q 394 -157 394 -194 q 422 -91 394 -118 q 488 -64 450 -64 q 552 -91 525 -64 q 579 -157 579 -118 q 552 -222 579 -196 q 488 -249 525 -249 z "},"Ừ":{"ha":1197,"x_min":76,"x_max":1183,"o":"m 294 1272 l 479 1272 l 575 1031 l 414 1031 l 294 1272 m 492 -21 q 181 87 286 -21 q 76 378 76 194 l 76 971 l 261 971 l 261 375 q 322 203 261 260 q 492 147 382 147 q 660 204 600 147 q 721 375 721 261 l 721 971 l 906 971 l 906 868 q 997 894 974 868 q 1021 989 1021 921 l 1021 1038 l 1183 1038 l 1183 979 q 1115 800 1183 868 q 906 731 1047 732 l 906 378 q 801 87 906 194 q 492 -21 697 -21 z "},"Ử":{"ha":1197,"x_min":76,"x_max":1183,"o":"m 408 1133 q 503 1149 471 1133 q 535 1201 535 1164 q 515 1241 535 1229 q 449 1253 494 1253 q 400 1247 431 1253 q 357 1236 369 1242 l 357 1328 q 421 1342 383 1336 q 493 1347 458 1347 q 638 1310 588 1347 q 688 1208 688 1272 q 654 1122 688 1157 q 561 1078 621 1088 l 561 1031 l 408 1031 l 408 1133 m 492 -21 q 181 87 286 -21 q 76 378 76 194 l 76 971 l 261 971 l 261 375 q 322 203 261 260 q 492 147 382 147 q 660 204 600 147 q 721 375 721 261 l 721 971 l 906 971 l 906 868 q 997 894 974 868 q 1021 989 1021 921 l 1021 1038 l 1183 1038 l 1183 979 q 1115 800 1183 868 q 906 731 1047 732 l 906 378 q 801 87 906 194 q 492 -21 697 -21 z "},"Ữ":{"ha":1197,"x_min":76,"x_max":1183,"o":"m 236 1174 q 375 1233 281 1233 q 435 1225 406 1233 q 510 1199 464 1217 q 578 1173 549 1182 q 638 1164 607 1164 q 776 1235 724 1164 l 776 1092 q 638 1033 733 1033 q 571 1042 603 1033 q 497 1069 539 1051 q 430 1094 456 1086 q 375 1103 404 1103 q 301 1086 335 1103 q 236 1031 267 1069 l 236 1174 m 492 -21 q 181 87 286 -21 q 76 378 76 194 l 76 971 l 261 971 l 261 375 q 322 203 261 260 q 492 147 382 147 q 660 204 600 147 q 721 375 721 261 l 721 971 l 906 971 l 906 868 q 997 894 974 868 q 1021 989 1021 921 l 1021 1038 l 1183 1038 l 1183 979 q 1115 800 1183 868 q 906 731 1047 732 l 906 378 q 801 87 906 194 q 492 -21 697 -21 z "},"Ű":{"ha":982,"x_min":76,"x_max":906,"o":"m 353 1272 l 524 1272 l 404 1031 l 257 1031 l 353 1272 m 664 1272 l 833 1272 l 714 1031 l 567 1031 l 664 1272 m 492 -21 q 181 87 286 -21 q 76 378 76 194 l 76 971 l 253 971 l 253 375 q 317 199 253 260 q 492 139 382 139 q 665 199 600 139 q 729 375 729 260 l 729 971 l 906 971 l 906 378 q 801 87 906 194 q 492 -21 697 -21 z "},"Ū":{"ha":982,"x_min":76,"x_max":906,"o":"m 267 1161 l 715 1161 l 715 1044 l 267 1044 l 267 1161 m 492 -21 q 181 87 286 -21 q 76 378 76 194 l 76 971 l 253 971 l 253 375 q 317 199 253 260 q 492 139 382 139 q 665 199 600 139 q 729 375 729 260 l 729 971 l 906 971 l 906 378 q 801 87 906 194 q 492 -21 697 -21 z "},"Ų":{"ha":982,"x_min":76,"x_max":906,"o":"m 906 971 l 906 378 q 820 108 906 213 q 567 -17 735 3 q 503 -75 524 -46 q 483 -137 483 -104 q 499 -178 483 -164 q 540 -193 515 -193 q 607 -178 576 -193 l 607 -278 q 486 -296 560 -296 q 374 -263 417 -296 q 331 -168 331 -231 q 410 -15 331 -78 q 160 110 244 6 q 76 378 76 214 l 76 971 l 253 971 l 253 375 q 317 199 253 260 q 492 139 382 139 q 665 199 600 139 q 729 375 729 260 l 729 971 l 906 971 z "},"Ů":{"ha":982,"x_min":76,"x_max":906,"o":"m 490 1031 q 368 1081 418 1031 q 318 1203 318 1131 q 368 1326 318 1275 q 490 1376 418 1376 q 613 1326 563 1376 q 664 1203 664 1275 q 613 1081 664 1131 q 490 1031 563 1031 m 490 1132 q 540 1153 519 1132 q 561 1203 561 1174 q 540 1253 561 1232 q 490 1274 519 1274 q 440 1253 461 1274 q 419 1203 419 1232 q 440 1153 419 1174 q 490 1132 461 1132 m 492 -21 q 181 87 286 -21 q 76 378 76 194 l 76 971 l 253 971 l 253 375 q 317 199 253 260 q 492 139 382 139 q 665 199 600 139 q 729 375 729 260 l 729 971 l 906 971 l 906 378 q 801 87 906 194 q 492 -21 697 -21 z "},"Ũ":{"ha":982,"x_min":76,"x_max":906,"o":"m 228 1174 q 367 1233 272 1233 q 426 1225 397 1233 q 501 1199 456 1217 q 569 1173 540 1182 q 629 1164 599 1164 q 768 1235 715 1164 l 768 1092 q 629 1033 725 1033 q 563 1042 594 1033 q 489 1069 531 1051 q 422 1094 447 1086 q 367 1103 396 1103 q 292 1086 326 1103 q 228 1031 258 1069 l 228 1174 m 492 -21 q 181 87 286 -21 q 76 378 76 194 l 76 971 l 253 971 l 253 375 q 317 199 253 260 q 492 139 382 139 q 665 199 600 139 q 729 375 729 260 l 729 971 l 906 971 l 906 378 q 801 87 906 194 q 492 -21 697 -21 z "},"V":{"ha":1058,"x_min":56,"x_max":1003,"o":"m 56 971 l 243 971 l 529 236 l 817 971 l 1003 971 l 615 0 l 444 0 l 56 971 z "},"W":{"ha":1381,"x_min":56,"x_max":1325,"o":"m 56 971 l 239 971 l 432 285 l 622 971 l 758 971 l 949 285 l 1142 971 l 1325 971 l 1049 0 l 885 0 l 690 675 l 496 0 l 332 0 l 56 971 z "},"Ẃ":{"ha":1397,"x_min":64,"x_max":1333,"o":"m 722 1272 l 907 1272 l 788 1031 l 626 1031 l 722 1272 m 64 971 l 247 971 l 440 285 l 631 971 l 767 971 l 957 285 l 1150 971 l 1333 971 l 1057 0 l 893 0 l 699 675 l 504 0 l 340 0 l 64 971 z "},"Ŵ":{"ha":1397,"x_min":64,"x_max":1333,"o":"m 622 1268 l 778 1268 l 981 1031 l 806 1031 l 700 1168 l 594 1031 l 418 1031 l 622 1268 m 64 971 l 247 971 l 440 285 l 631 971 l 767 971 l 957 285 l 1150 971 l 1333 971 l 1057 0 l 893 0 l 699 675 l 504 0 l 340 0 l 64 971 z "},"Ẅ":{"ha":1397,"x_min":64,"x_max":1333,"o":"m 535 1044 q 469 1072 497 1044 q 442 1136 442 1099 q 469 1202 442 1175 q 535 1229 497 1229 q 599 1202 572 1229 q 626 1136 626 1175 q 599 1071 626 1097 q 535 1044 572 1044 m 864 1044 q 799 1072 826 1044 q 771 1136 771 1099 q 799 1202 771 1175 q 864 1229 826 1229 q 928 1202 901 1229 q 956 1136 956 1175 q 928 1071 956 1097 q 864 1044 901 1044 m 64 971 l 247 971 l 440 285 l 631 971 l 767 971 l 957 285 l 1150 971 l 1333 971 l 1057 0 l 893 0 l 699 675 l 504 0 l 340 0 l 64 971 z "},"Ẁ":{"ha":1397,"x_min":64,"x_max":1333,"o":"m 492 1272 l 676 1272 l 772 1031 l 611 1031 l 492 1272 m 64 971 l 247 971 l 440 285 l 631 971 l 767 971 l 957 285 l 1150 971 l 1333 971 l 1057 0 l 893 0 l 699 675 l 504 0 l 340 0 l 64 971 z "},"X":{"ha":1031,"x_min":56,"x_max":975,"o":"m 415 490 l 64 971 l 265 971 l 515 628 l 767 971 l 968 971 l 617 490 l 975 0 l 774 0 l 515 353 l 257 0 l 56 0 l 415 490 z "},"Y":{"ha":992,"x_min":56,"x_max":936,"o":"m 408 369 l 56 971 l 243 971 l 493 539 l 750 971 l 936 971 l 576 369 l 576 0 l 408 0 l 408 369 z "},"Ý":{"ha":1008,"x_min":64,"x_max":944,"o":"m 510 1272 l 694 1272 l 575 1031 l 414 1031 l 510 1272 m 417 369 l 64 971 l 251 971 l 501 539 l 758 971 l 944 971 l 585 369 l 585 0 l 417 0 l 417 369 z "},"Ŷ":{"ha":1008,"x_min":64,"x_max":944,"o":"m 425 1268 l 581 1268 l 783 1031 l 608 1031 l 503 1168 l 397 1031 l 221 1031 l 425 1268 m 417 369 l 64 971 l 251 971 l 501 539 l 758 971 l 944 971 l 585 369 l 585 0 l 417 0 l 417 369 z "},"Ÿ":{"ha":1008,"x_min":64,"x_max":944,"o":"m 338 1044 q 272 1072 300 1044 q 244 1136 244 1099 q 272 1202 244 1175 q 338 1229 300 1229 q 402 1202 375 1229 q 429 1136 429 1175 q 402 1071 429 1097 q 338 1044 375 1044 m 667 1044 q 601 1072 629 1044 q 574 1136 574 1099 q 601 1202 574 1175 q 667 1229 629 1229 q 731 1202 704 1229 q 758 1136 758 1175 q 731 1071 758 1097 q 667 1044 704 1044 m 417 369 l 64 971 l 251 971 l 501 539 l 758 971 l 944 971 l 585 369 l 585 0 l 417 0 l 417 369 z "},"Ẏ":{"ha":1008,"x_min":64,"x_max":944,"o":"m 503 1044 q 438 1072 465 1044 q 410 1136 410 1099 q 438 1202 410 1175 q 503 1229 465 1229 q 567 1202 540 1229 q 594 1136 594 1175 q 567 1071 594 1097 q 503 1044 540 1044 m 417 369 l 64 971 l 251 971 l 501 539 l 758 971 l 944 971 l 585 369 l 585 0 l 417 0 l 417 369 z "},"Ỵ":{"ha":1008,"x_min":64,"x_max":944,"o":"m 417 369 l 64 971 l 251 971 l 501 539 l 758 971 l 944 971 l 585 369 l 585 0 l 417 0 l 417 369 m 503 -249 q 438 -222 465 -249 q 410 -157 410 -194 q 438 -91 410 -118 q 503 -64 465 -64 q 567 -91 540 -64 q 594 -157 594 -118 q 567 -222 594 -196 q 503 -249 540 -249 z "},"Ỳ":{"ha":1008,"x_min":64,"x_max":944,"o":"m 314 1272 l 499 1272 l 594 1031 l 433 1031 l 314 1272 m 417 369 l 64 971 l 251 971 l 501 539 l 758 971 l 944 971 l 585 369 l 585 0 l 417 0 l 417 369 z "},"Ỷ":{"ha":1008,"x_min":64,"x_max":944,"o":"m 419 1133 q 514 1149 482 1133 q 546 1201 546 1164 q 526 1241 546 1229 q 460 1253 506 1253 q 411 1247 442 1253 q 368 1236 381 1242 l 368 1328 q 432 1342 394 1336 q 504 1347 469 1347 q 649 1310 599 1347 q 699 1208 699 1272 q 665 1122 699 1157 q 572 1078 632 1088 l 572 1031 l 419 1031 l 419 1133 m 417 369 l 64 971 l 251 971 l 501 539 l 758 971 l 944 971 l 585 369 l 585 0 l 417 0 l 417 369 z "},"Ỹ":{"ha":1008,"x_min":64,"x_max":944,"o":"m 232 1174 q 371 1233 276 1233 q 431 1225 401 1233 q 506 1199 460 1217 q 574 1173 544 1182 q 633 1164 603 1164 q 772 1235 719 1164 l 772 1092 q 633 1033 729 1033 q 567 1042 599 1033 q 493 1069 535 1051 q 426 1094 451 1086 q 371 1103 400 1103 q 297 1086 331 1103 q 232 1031 263 1069 l 232 1174 m 417 369 l 64 971 l 251 971 l 501 539 l 758 971 l 944 971 l 585 369 l 585 0 l 417 0 l 417 369 z "},"Z":{"ha":860,"x_min":56,"x_max":804,"o":"m 56 115 l 564 825 l 68 825 l 68 971 l 779 971 l 779 856 l 272 146 l 804 146 l 804 0 l 56 0 l 56 115 z "},"Ź":{"ha":860,"x_min":56,"x_max":804,"o":"m 417 1272 l 601 1272 l 482 1031 l 321 1031 l 417 1272 m 56 115 l 564 825 l 68 825 l 68 971 l 779 971 l 779 856 l 272 146 l 804 146 l 804 0 l 56 0 l 56 115 z "},"Ž":{"ha":860,"x_min":56,"x_max":804,"o":"m 143 1268 l 319 1268 l 425 1129 l 531 1268 l 706 1268 l 503 1031 l 347 1031 l 143 1268 m 56 115 l 564 825 l 68 825 l 68 971 l 779 971 l 779 856 l 272 146 l 804 146 l 804 0 l 56 0 l 56 115 z "},"Ż":{"ha":860,"x_min":56,"x_max":804,"o":"m 415 1044 q 350 1072 378 1044 q 322 1136 322 1099 q 350 1202 322 1175 q 415 1229 378 1229 q 480 1202 453 1229 q 507 1136 507 1175 q 480 1071 507 1097 q 415 1044 453 1044 m 56 115 l 564 825 l 68 825 l 68 971 l 779 971 l 779 856 l 272 146 l 804 146 l 804 0 l 56 0 l 56 115 z "},"Ẓ":{"ha":860,"x_min":56,"x_max":804,"o":"m 56 115 l 564 825 l 68 825 l 68 971 l 779 971 l 779 856 l 272 146 l 804 146 l 804 0 l 56 0 l 56 115 m 444 -249 q 379 -222 407 -249 q 351 -157 351 -194 q 379 -91 351 -118 q 444 -64 407 -64 q 509 -91 482 -64 q 536 -157 536 -118 q 509 -222 536 -196 q 444 -249 482 -249 z "},"a":{"ha":801,"x_min":56,"x_max":725,"o":"m 328 -21 q 132 42 208 -21 q 56 213 56 106 q 128 386 56 324 q 331 449 200 449 q 549 397 457 449 l 549 415 q 505 518 549 486 q 364 550 461 550 q 243 538 303 550 q 138 506 183 526 l 138 643 q 249 675 179 663 q 385 688 319 688 q 642 613 558 688 q 725 407 725 539 l 725 0 l 560 0 l 560 65 q 462 1 517 24 q 328 -21 407 -21 m 371 107 q 476 130 429 107 q 549 193 524 153 l 549 267 q 374 321 472 321 q 233 213 233 321 q 269 133 233 160 q 371 107 304 107 z "},"á":{"ha":801,"x_min":56,"x_max":725,"o":"m 418 985 l 603 985 l 483 743 l 322 743 l 418 985 m 328 -21 q 132 42 208 -21 q 56 213 56 106 q 128 386 56 324 q 331 449 200 449 q 549 397 457 449 l 549 415 q 505 518 549 486 q 364 550 461 550 q 243 538 303 550 q 138 506 183 526 l 138 643 q 249 675 179 663 q 385 688 319 688 q 642 613 558 688 q 725 407 725 539 l 725 0 l 560 0 l 560 65 q 462 1 517 24 q 328 -21 407 -21 m 371 107 q 476 130 429 107 q 549 193 524 153 l 549 267 q 374 321 472 321 q 233 213 233 321 q 269 133 233 160 q 371 107 304 107 z "},"ă":{"ha":801,"x_min":56,"x_max":725,"o":"m 419 743 q 256 801 315 743 q 196 953 196 858 l 328 953 q 351 883 328 907 q 419 860 375 860 q 488 883 464 860 q 511 953 511 907 l 643 953 q 583 801 643 858 q 419 743 524 743 m 328 -21 q 132 42 208 -21 q 56 213 56 106 q 128 386 56 324 q 331 449 200 449 q 549 397 457 449 l 549 415 q 505 518 549 486 q 364 550 461 550 q 243 538 303 550 q 138 506 183 526 l 138 643 q 249 675 179 663 q 385 688 319 688 q 642 613 558 688 q 725 407 725 539 l 725 0 l 560 0 l 560 65 q 462 1 517 24 q 328 -21 407 -21 m 371 107 q 476 130 429 107 q 549 193 524 153 l 549 267 q 374 321 472 321 q 233 213 233 321 q 269 133 233 160 q 371 107 304 107 z "},"ắ":{"ha":801,"x_min":56,"x_max":725,"o":"m 426 1128 l 567 1128 l 474 953 l 354 953 l 426 1128 m 415 743 q 256 799 314 743 q 199 947 199 854 l 326 947 q 349 880 326 903 q 415 857 372 857 q 481 880 458 857 q 504 947 504 903 l 632 947 q 574 799 632 854 q 415 743 517 743 m 328 -21 q 132 42 208 -21 q 56 213 56 106 q 128 386 56 324 q 331 449 200 449 q 549 397 457 449 l 549 415 q 505 518 549 486 q 364 550 461 550 q 243 538 303 550 q 138 506 183 526 l 138 643 q 249 675 179 663 q 385 688 319 688 q 642 613 558 688 q 725 407 725 539 l 725 0 l 560 0 l 560 65 q 462 1 517 24 q 328 -21 407 -21 m 371 107 q 476 130 429 107 q 549 193 524 153 l 549 267 q 374 321 472 321 q 233 213 233 321 q 269 133 233 160 q 371 107 304 107 z "},"ặ":{"ha":801,"x_min":56,"x_max":725,"o":"m 414 743 q 250 801 310 743 q 190 953 190 858 l 322 953 q 346 883 322 907 q 414 860 369 860 q 482 883 458 860 q 506 953 506 907 l 638 953 q 578 801 638 858 q 414 743 518 743 m 328 -21 q 132 42 208 -21 q 56 213 56 106 q 128 386 56 324 q 331 449 200 449 q 549 397 457 449 l 549 415 q 505 518 549 486 q 364 550 461 550 q 243 538 303 550 q 138 506 183 526 l 138 643 q 249 675 179 663 q 385 688 319 688 q 642 613 558 688 q 725 407 725 539 l 725 0 l 560 0 l 560 65 q 462 1 517 24 q 328 -21 407 -21 m 371 107 q 476 130 429 107 q 549 193 524 153 l 549 267 q 374 321 472 321 q 233 213 233 321 q 269 133 233 160 q 371 107 304 107 m 401 -249 q 336 -222 364 -249 q 308 -157 308 -194 q 336 -91 308 -118 q 401 -64 364 -64 q 466 -91 439 -64 q 493 -157 493 -118 q 466 -222 493 -196 q 401 -249 439 -249 z "},"ằ":{"ha":801,"x_min":56,"x_max":725,"o":"m 257 1128 l 397 1128 l 469 953 l 350 953 l 257 1128 m 408 743 q 249 799 307 743 q 192 947 192 854 l 319 947 q 342 880 319 903 q 408 857 365 857 q 474 880 451 857 q 497 947 497 903 l 625 947 q 567 799 625 854 q 408 743 510 743 m 328 -21 q 132 42 208 -21 q 56 213 56 106 q 128 386 56 324 q 331 449 200 449 q 549 397 457 449 l 549 415 q 505 518 549 486 q 364 550 461 550 q 243 538 303 550 q 138 506 183 526 l 138 643 q 249 675 179 663 q 385 688 319 688 q 642 613 558 688 q 725 407 725 539 l 725 0 l 560 0 l 560 65 q 462 1 517 24 q 328 -21 407 -21 m 371 107 q 476 130 429 107 q 549 193 524 153 l 549 267 q 374 321 472 321 q 233 213 233 321 q 269 133 233 160 q 371 107 304 107 z "},"ẳ":{"ha":801,"x_min":56,"x_max":725,"o":"m 358 1000 q 419 1010 400 1000 q 438 1043 438 1019 q 424 1072 438 1064 q 379 1079 410 1079 q 322 1068 344 1079 l 322 1136 q 369 1147 342 1143 q 422 1151 397 1151 q 521 1125 485 1151 q 557 1054 557 1099 q 533 995 557 1019 q 468 964 510 971 l 468 931 l 358 931 l 358 1000 m 411 736 q 252 792 310 736 q 194 940 194 847 l 319 940 q 344 872 319 896 q 411 847 368 847 q 478 872 454 847 q 503 940 503 896 l 628 940 q 570 792 628 847 q 411 736 513 736 m 328 -21 q 132 42 208 -21 q 56 213 56 106 q 128 386 56 324 q 331 449 200 449 q 549 397 457 449 l 549 415 q 505 518 549 486 q 364 550 461 550 q 243 538 303 550 q 138 506 183 526 l 138 643 q 249 675 179 663 q 385 688 319 688 q 642 613 558 688 q 725 407 725 539 l 725 0 l 560 0 l 560 65 q 462 1 517 24 q 328 -21 407 -21 m 371 107 q 476 130 429 107 q 549 193 524 153 l 549 267 q 374 321 472 321 q 233 213 233 321 q 269 133 233 160 q 371 107 304 107 z "},"ẵ":{"ha":801,"x_min":56,"x_max":725,"o":"m 544 997 q 493 1006 518 997 q 431 1029 468 1014 q 373 1050 394 1043 q 331 1057 351 1057 q 272 1044 297 1057 q 222 999 246 1031 l 222 1122 q 331 1171 256 1171 q 378 1163 354 1171 q 440 1140 403 1156 q 469 1129 447 1138 q 510 1116 492 1121 q 544 1111 529 1111 q 604 1124 578 1111 q 653 1169 631 1138 l 653 1044 q 544 997 619 997 m 436 743 q 277 799 335 743 q 219 947 219 854 l 347 947 q 370 880 347 903 q 436 857 393 857 q 502 880 479 857 q 525 947 525 903 l 653 947 q 595 799 653 854 q 436 743 538 743 m 328 -21 q 132 42 208 -21 q 56 213 56 106 q 128 386 56 324 q 331 449 200 449 q 549 397 457 449 l 549 415 q 505 518 549 486 q 364 550 461 550 q 243 538 303 550 q 138 506 183 526 l 138 643 q 249 675 179 663 q 385 688 319 688 q 642 613 558 688 q 725 407 725 539 l 725 0 l 560 0 l 560 65 q 462 1 517 24 q 328 -21 407 -21 m 371 107 q 476 130 429 107 q 549 193 524 153 l 549 267 q 374 321 472 321 q 233 213 233 321 q 269 133 233 160 q 371 107 304 107 z "},"ǎ":{"ha":801,"x_min":56,"x_max":725,"o":"m 150 981 l 326 981 l 432 842 l 538 981 l 713 981 l 510 743 l 354 743 l 150 981 m 328 -21 q 132 42 208 -21 q 56 213 56 106 q 128 386 56 324 q 331 449 200 449 q 549 397 457 449 l 549 415 q 505 518 549 486 q 364 550 461 550 q 243 538 303 550 q 138 506 183 526 l 138 643 q 249 675 179 663 q 385 688 319 688 q 642 613 558 688 q 725 407 725 539 l 725 0 l 560 0 l 560 65 q 462 1 517 24 q 328 -21 407 -21 m 371 107 q 476 130 429 107 q 549 193 524 153 l 549 267 q 374 321 472 321 q 233 213 233 321 q 269 133 233 160 q 371 107 304 107 z "},"â":{"ha":801,"x_min":56,"x_max":725,"o":"m 335 981 l 490 981 l 693 743 l 518 743 l 413 881 l 307 743 l 131 743 l 335 981 m 328 -21 q 132 42 208 -21 q 56 213 56 106 q 128 386 56 324 q 331 449 200 449 q 549 397 457 449 l 549 415 q 505 518 549 486 q 364 550 461 550 q 243 538 303 550 q 138 506 183 526 l 138 643 q 249 675 179 663 q 385 688 319 688 q 642 613 558 688 q 725 407 725 539 l 725 0 l 560 0 l 560 65 q 462 1 517 24 q 328 -21 407 -21 m 371 107 q 476 130 429 107 q 549 193 524 153 l 549 267 q 374 321 472 321 q 233 213 233 321 q 269 133 233 160 q 371 107 304 107 z "},"ấ":{"ha":801,"x_min":56,"x_max":863,"o":"m 700 1058 l 863 1058 l 756 881 l 615 881 l 700 1058 m 353 954 l 500 954 l 692 743 l 526 743 l 426 860 l 326 743 l 160 743 l 353 954 m 328 -21 q 132 42 208 -21 q 56 213 56 106 q 128 386 56 324 q 331 449 200 449 q 549 397 457 449 l 549 415 q 505 518 549 486 q 364 550 461 550 q 243 538 303 550 q 138 506 183 526 l 138 643 q 249 675 179 663 q 385 688 319 688 q 642 613 558 688 q 725 407 725 539 l 725 0 l 560 0 l 560 65 q 462 1 517 24 q 328 -21 407 -21 m 371 107 q 476 130 429 107 q 549 193 524 153 l 549 267 q 374 321 472 321 q 233 213 233 321 q 269 133 233 160 q 371 107 304 107 z "},"ậ":{"ha":801,"x_min":56,"x_max":725,"o":"m 328 981 l 483 981 l 686 743 l 511 743 l 406 881 l 300 743 l 124 743 l 328 981 m 328 -21 q 132 42 208 -21 q 56 213 56 106 q 128 386 56 324 q 331 449 200 449 q 549 397 457 449 l 549 415 q 505 518 549 486 q 364 550 461 550 q 243 538 303 550 q 138 506 183 526 l 138 643 q 249 675 179 663 q 385 688 319 688 q 642 613 558 688 q 725 407 725 539 l 725 0 l 560 0 l 560 65 q 462 1 517 24 q 328 -21 407 -21 m 371 107 q 476 130 429 107 q 549 193 524 153 l 549 267 q 374 321 472 321 q 233 213 233 321 q 269 133 233 160 q 371 107 304 107 m 392 -249 q 326 -222 354 -249 q 299 -157 299 -194 q 326 -91 299 -118 q 392 -64 354 -64 q 456 -91 429 -64 q 483 -157 483 -118 q 456 -222 483 -196 q 392 -249 429 -249 z "},"ầ":{"ha":801,"x_min":-21,"x_max":725,"o":"m -21 1058 l 142 1058 l 226 881 l 86 881 l -21 1058 m 342 954 l 489 954 l 682 743 l 515 743 l 415 860 l 315 743 l 150 743 l 342 954 m 328 -21 q 132 42 208 -21 q 56 213 56 106 q 128 386 56 324 q 331 449 200 449 q 549 397 457 449 l 549 415 q 505 518 549 486 q 364 550 461 550 q 243 538 303 550 q 138 506 183 526 l 138 643 q 249 675 179 663 q 385 688 319 688 q 642 613 558 688 q 725 407 725 539 l 725 0 l 560 0 l 560 65 q 462 1 517 24 q 328 -21 407 -21 m 371 107 q 476 130 429 107 q 549 193 524 153 l 549 267 q 374 321 472 321 q 233 213 233 321 q 269 133 233 160 q 371 107 304 107 z "},"ẩ":{"ha":801,"x_min":56,"x_max":796,"o":"m 597 935 q 658 944 639 935 q 676 978 676 954 q 663 1006 676 999 q 618 1014 649 1014 q 561 1003 583 1014 l 561 1071 q 608 1082 581 1078 q 661 1086 636 1086 q 760 1060 724 1086 q 796 989 796 1033 q 772 930 796 954 q 707 899 749 906 l 707 865 l 597 865 l 597 935 m 335 954 l 482 954 l 674 743 l 508 743 l 408 860 l 308 743 l 142 743 l 335 954 m 328 -21 q 132 42 208 -21 q 56 213 56 106 q 128 386 56 324 q 331 449 200 449 q 549 397 457 449 l 549 415 q 505 518 549 486 q 364 550 461 550 q 243 538 303 550 q 138 506 183 526 l 138 643 q 249 675 179 663 q 385 688 319 688 q 642 613 558 688 q 725 407 725 539 l 725 0 l 560 0 l 560 65 q 462 1 517 24 q 328 -21 407 -21 m 371 107 q 476 130 429 107 q 549 193 524 153 l 549 267 q 374 321 472 321 q 233 213 233 321 q 269 133 233 160 q 371 107 304 107 z "},"ẫ":{"ha":801,"x_min":56,"x_max":725,"o":"m 526 971 q 475 979 500 971 q 413 1003 450 988 q 355 1024 376 1017 q 313 1031 333 1031 q 253 1017 279 1031 q 204 972 228 1004 l 204 1096 q 313 1144 238 1144 q 360 1137 336 1144 q 422 1114 385 1129 q 451 1103 429 1111 q 492 1090 474 1094 q 526 1085 511 1085 q 586 1098 560 1085 q 635 1143 613 1111 l 635 1018 q 526 971 601 971 m 342 954 l 489 954 l 681 743 l 515 743 l 415 860 l 315 743 l 149 743 l 342 954 m 328 -21 q 132 42 208 -21 q 56 213 56 106 q 128 386 56 324 q 331 449 200 449 q 549 397 457 449 l 549 415 q 505 518 549 486 q 364 550 461 550 q 243 538 303 550 q 138 506 183 526 l 138 643 q 249 675 179 663 q 385 688 319 688 q 642 613 558 688 q 725 407 725 539 l 725 0 l 560 0 l 560 65 q 462 1 517 24 q 328 -21 407 -21 m 371 107 q 476 130 429 107 q 549 193 524 153 l 549 267 q 374 321 472 321 q 233 213 233 321 q 269 133 233 160 q 371 107 304 107 z "},"ä":{"ha":801,"x_min":56,"x_max":725,"o":"m 240 757 q 175 784 203 757 q 147 849 147 811 q 175 915 147 888 q 240 942 203 942 q 305 915 278 942 q 332 849 332 888 q 305 783 332 810 q 240 757 278 757 m 569 757 q 504 784 532 757 q 476 849 476 811 q 504 915 476 888 q 569 942 532 942 q 634 915 607 942 q 661 849 661 888 q 634 783 661 810 q 569 757 607 757 m 328 -21 q 132 42 208 -21 q 56 213 56 106 q 128 386 56 324 q 331 449 200 449 q 549 397 457 449 l 549 415 q 505 518 549 486 q 364 550 461 550 q 243 538 303 550 q 138 506 183 526 l 138 643 q 249 675 179 663 q 385 688 319 688 q 642 613 558 688 q 725 407 725 539 l 725 0 l 560 0 l 560 65 q 462 1 517 24 q 328 -21 407 -21 m 371 107 q 476 130 429 107 q 549 193 524 153 l 549 267 q 374 321 472 321 q 233 213 233 321 q 269 133 233 160 q 371 107 304 107 z "},"ạ":{"ha":801,"x_min":56,"x_max":725,"o":"m 328 -21 q 132 42 208 -21 q 56 213 56 106 q 128 386 56 324 q 331 449 200 449 q 549 397 457 449 l 549 415 q 505 518 549 486 q 364 550 461 550 q 243 538 303 550 q 138 506 183 526 l 138 643 q 249 675 179 663 q 385 688 319 688 q 642 613 558 688 q 725 407 725 539 l 725 0 l 560 0 l 560 65 q 462 1 517 24 q 328 -21 407 -21 m 371 107 q 476 130 429 107 q 549 193 524 153 l 549 267 q 374 321 472 321 q 233 213 233 321 q 269 133 233 160 q 371 107 304 107 m 396 -249 q 331 -222 358 -249 q 303 -157 303 -194 q 331 -91 303 -118 q 396 -64 358 -64 q 460 -91 433 -64 q 488 -157 488 -118 q 460 -222 488 -196 q 396 -249 433 -249 z "},"à":{"ha":801,"x_min":56,"x_max":725,"o":"m 244 985 l 429 985 l 525 743 l 364 743 l 244 985 m 328 -21 q 132 42 208 -21 q 56 213 56 106 q 128 386 56 324 q 331 449 200 449 q 549 397 457 449 l 549 415 q 505 518 549 486 q 364 550 461 550 q 243 538 303 550 q 138 506 183 526 l 138 643 q 249 675 179 663 q 385 688 319 688 q 642 613 558 688 q 725 407 725 539 l 725 0 l 560 0 l 560 65 q 462 1 517 24 q 328 -21 407 -21 m 371 107 q 476 130 429 107 q 549 193 524 153 l 549 267 q 374 321 472 321 q 233 213 233 321 q 269 133 233 160 q 371 107 304 107 z "},"ả":{"ha":801,"x_min":56,"x_max":725,"o":"m 340 846 q 435 861 403 846 q 467 914 467 876 q 447 953 467 942 q 381 965 426 965 q 332 960 363 965 q 289 949 301 954 l 289 1040 q 353 1054 315 1049 q 425 1060 390 1060 q 569 1022 519 1060 q 619 921 619 985 q 586 835 619 869 q 493 790 553 800 l 493 743 l 340 743 l 340 846 m 328 -21 q 132 42 208 -21 q 56 213 56 106 q 128 386 56 324 q 331 449 200 449 q 549 397 457 449 l 549 415 q 505 518 549 486 q 364 550 461 550 q 243 538 303 550 q 138 506 183 526 l 138 643 q 249 675 179 663 q 385 688 319 688 q 642 613 558 688 q 725 407 725 539 l 725 0 l 560 0 l 560 65 q 462 1 517 24 q 328 -21 407 -21 m 371 107 q 476 130 429 107 q 549 193 524 153 l 549 267 q 374 321 472 321 q 233 213 233 321 q 269 133 233 160 q 371 107 304 107 z "},"ɑ":{"ha":924,"x_min":56,"x_max":840,"o":"m 407 -21 q 226 23 306 -21 q 101 147 146 67 q 56 332 56 226 q 101 517 56 436 q 226 642 146 597 q 407 688 306 688 q 665 601 571 688 l 665 667 l 840 667 l 840 0 l 671 0 l 671 78 q 553 2 614 25 q 407 -21 492 -21 m 450 117 q 583 157 525 117 q 665 265 642 197 l 665 400 q 584 509 643 468 q 450 550 525 550 q 294 489 356 550 q 233 332 233 428 q 294 176 233 236 q 450 117 356 117 z "},"ā":{"ha":801,"x_min":56,"x_max":725,"o":"m 200 874 l 649 874 l 649 757 l 200 757 l 200 874 m 328 -21 q 132 42 208 -21 q 56 213 56 106 q 128 386 56 324 q 331 449 200 449 q 549 397 457 449 l 549 415 q 505 518 549 486 q 364 550 461 550 q 243 538 303 550 q 138 506 183 526 l 138 643 q 249 675 179 663 q 385 688 319 688 q 642 613 558 688 q 725 407 725 539 l 725 0 l 560 0 l 560 65 q 462 1 517 24 q 328 -21 407 -21 m 371 107 q 476 130 429 107 q 549 193 524 153 l 549 267 q 374 321 472 321 q 233 213 233 321 q 269 133 233 160 q 371 107 304 107 z "},"ą":{"ha":801,"x_min":56,"x_max":735,"o":"m 668 -193 q 735 -178 704 -193 l 735 -278 q 614 -296 688 -296 q 501 -263 544 -296 q 458 -168 458 -231 q 486 -72 458 -115 q 560 0 514 -29 l 560 65 q 462 1 517 24 q 328 -21 407 -21 q 132 42 208 -21 q 56 213 56 106 q 128 386 56 324 q 331 449 200 449 q 549 397 457 449 l 549 415 q 505 518 549 486 q 364 550 461 550 q 243 538 303 550 q 138 506 183 526 l 138 643 q 249 675 179 663 q 385 688 319 688 q 642 613 558 688 q 725 407 725 539 l 725 0 l 721 0 q 638 -66 665 -33 q 611 -137 611 -99 q 627 -178 611 -164 q 668 -193 643 -193 m 549 267 q 374 321 472 321 q 233 213 233 321 q 269 133 233 160 q 371 107 304 107 q 476 130 429 107 q 549 193 524 153 l 549 267 z "},"å":{"ha":801,"x_min":56,"x_max":725,"o":"m 422 743 q 300 793 350 743 q 250 915 250 843 q 300 1038 250 988 q 422 1089 350 1089 q 545 1038 494 1089 q 596 915 596 988 q 545 793 596 843 q 422 743 494 743 m 422 844 q 472 865 451 844 q 493 915 493 886 q 472 965 493 944 q 422 986 451 986 q 372 965 393 986 q 351 915 351 944 q 372 865 351 886 q 422 844 393 844 m 328 -21 q 132 42 208 -21 q 56 213 56 106 q 128 386 56 324 q 331 449 200 449 q 549 397 457 449 l 549 415 q 505 518 549 486 q 364 550 461 550 q 243 538 303 550 q 138 506 183 526 l 138 643 q 249 675 179 663 q 385 688 319 688 q 642 613 558 688 q 725 407 725 539 l 725 0 l 560 0 l 560 65 q 462 1 517 24 q 328 -21 407 -21 m 371 107 q 476 130 429 107 q 549 193 524 153 l 549 267 q 374 321 472 321 q 233 213 233 321 q 269 133 233 160 q 371 107 304 107 z "},"ǻ":{"ha":801,"x_min":56,"x_max":725,"o":"m 439 1331 l 624 1331 l 504 1138 l 343 1138 l 439 1331 m 422 743 q 300 793 350 743 q 250 915 250 843 q 300 1038 250 988 q 422 1089 350 1089 q 545 1038 494 1089 q 596 915 596 988 q 545 793 596 843 q 422 743 494 743 m 422 844 q 472 865 451 844 q 493 915 493 886 q 472 965 493 944 q 422 986 451 986 q 372 965 393 986 q 351 915 351 944 q 372 865 351 886 q 422 844 393 844 m 328 -21 q 132 42 208 -21 q 56 213 56 106 q 128 386 56 324 q 331 449 200 449 q 549 397 457 449 l 549 415 q 505 518 549 486 q 364 550 461 550 q 243 538 303 550 q 138 506 183 526 l 138 643 q 249 675 179 663 q 385 688 319 688 q 642 613 558 688 q 725 407 725 539 l 725 0 l 560 0 l 560 65 q 462 1 517 24 q 328 -21 407 -21 m 371 107 q 476 130 429 107 q 549 193 524 153 l 549 267 q 374 321 472 321 q 233 213 233 321 q 269 133 233 160 q 371 107 304 107 z "},"ã":{"ha":801,"x_min":56,"x_max":725,"o":"m 160 883 q 299 943 204 943 q 358 935 329 943 q 433 908 388 926 q 501 883 472 892 q 561 874 531 874 q 700 944 647 874 l 700 801 q 561 743 657 743 q 494 752 526 743 q 421 779 463 761 q 353 804 379 796 q 299 813 328 813 q 224 796 258 813 q 160 740 190 779 l 160 883 m 328 -21 q 132 42 208 -21 q 56 213 56 106 q 128 386 56 324 q 331 449 200 449 q 549 397 457 449 l 549 415 q 505 518 549 486 q 364 550 461 550 q 243 538 303 550 q 138 506 183 526 l 138 643 q 249 675 179 663 q 385 688 319 688 q 642 613 558 688 q 725 407 725 539 l 725 0 l 560 0 l 560 65 q 462 1 517 24 q 328 -21 407 -21 m 371 107 q 476 130 429 107 q 549 193 524 153 l 549 267 q 374 321 472 321 q 233 213 233 321 q 269 133 233 160 q 371 107 304 107 z "},"æ":{"ha":1346,"x_min":56,"x_max":1290,"o":"m 339 -21 q 131 42 207 -21 q 56 213 56 104 q 128 386 56 324 q 331 449 200 449 q 549 397 457 449 l 549 415 q 505 518 549 486 q 364 550 461 550 q 243 538 303 550 q 138 506 183 526 l 138 643 q 249 675 179 663 q 385 688 319 688 q 651 590 565 688 q 769 663 699 638 q 925 688 839 688 q 1124 643 1042 688 q 1249 522 1207 599 q 1290 346 1290 444 l 1290 265 l 725 265 q 981 117 743 117 q 1111 128 1044 117 q 1228 158 1178 139 l 1228 24 q 1106 -8 1181 4 q 958 -21 1032 -21 q 647 86 765 -21 q 519 6 590 33 q 339 -21 449 -21 m 1125 385 q 1069 507 1122 464 q 922 550 1015 550 q 780 506 832 550 q 725 385 728 461 l 1125 385 m 371 107 q 476 128 429 107 q 549 189 522 150 l 549 267 q 374 321 472 321 q 233 213 233 321 q 269 133 233 160 q 371 107 304 107 z "},"ǽ":{"ha":1346,"x_min":56,"x_max":1290,"o":"m 663 985 l 847 985 l 728 743 l 567 743 l 663 985 m 339 -21 q 131 42 207 -21 q 56 213 56 104 q 128 386 56 324 q 331 449 200 449 q 549 397 457 449 l 549 415 q 505 518 549 486 q 364 550 461 550 q 243 538 303 550 q 138 506 183 526 l 138 643 q 249 675 179 663 q 385 688 319 688 q 651 590 565 688 q 769 663 699 638 q 925 688 839 688 q 1124 643 1042 688 q 1249 522 1207 599 q 1290 346 1290 444 l 1290 265 l 725 265 q 981 117 743 117 q 1111 128 1044 117 q 1228 158 1178 139 l 1228 24 q 1106 -8 1181 4 q 958 -21 1032 -21 q 647 86 765 -21 q 519 6 590 33 q 339 -21 449 -21 m 1125 385 q 1069 507 1122 464 q 922 550 1015 550 q 780 506 832 550 q 725 385 728 461 l 1125 385 m 371 107 q 476 128 429 107 q 549 189 522 150 l 549 267 q 374 321 472 321 q 233 213 233 321 q 269 133 233 160 q 371 107 304 107 z "},"b":{"ha":924,"x_min":83,"x_max":868,"o":"m 517 -21 q 371 2 432 -21 q 253 78 310 25 l 253 0 l 83 0 l 83 1026 l 258 1026 l 258 601 q 373 666 306 644 q 517 688 440 688 q 698 642 618 688 q 823 517 778 597 q 868 332 868 436 q 823 147 868 226 q 698 23 778 67 q 517 -21 618 -21 m 474 117 q 629 176 568 117 q 690 332 690 236 q 629 489 690 428 q 474 550 568 550 q 340 509 399 550 q 258 400 281 468 l 258 265 q 340 157 282 197 q 474 117 399 117 z "},"c":{"ha":761,"x_min":56,"x_max":706,"o":"m 446 -21 q 241 21 329 -21 q 104 142 153 63 q 56 332 56 221 q 105 523 56 443 q 242 645 154 603 q 449 688 331 688 q 697 626 604 688 l 697 486 q 467 550 607 550 q 297 497 360 550 q 233 332 233 443 q 297 169 233 222 q 464 117 360 117 q 706 183 604 117 l 706 44 q 592 -5 656 11 q 446 -21 529 -21 z "},"ć":{"ha":761,"x_min":56,"x_max":706,"o":"m 460 985 l 644 985 l 525 743 l 364 743 l 460 985 m 446 -21 q 241 21 329 -21 q 104 142 153 63 q 56 332 56 221 q 105 523 56 443 q 242 645 154 603 q 449 688 331 688 q 697 626 604 688 l 697 486 q 467 550 607 550 q 297 497 360 550 q 233 332 233 443 q 297 169 233 222 q 464 117 360 117 q 706 183 604 117 l 706 44 q 592 -5 656 11 q 446 -21 529 -21 z "},"č":{"ha":761,"x_min":56,"x_max":706,"o":"m 132 981 l 308 981 l 414 842 l 519 981 l 694 981 l 492 743 l 336 743 l 132 981 m 446 -21 q 241 21 329 -21 q 104 142 153 63 q 56 332 56 221 q 105 523 56 443 q 242 645 154 603 q 449 688 331 688 q 697 626 604 688 l 697 486 q 467 550 607 550 q 297 497 360 550 q 233 332 233 443 q 297 169 233 222 q 464 117 360 117 q 706 183 604 117 l 706 44 q 592 -5 656 11 q 446 -21 529 -21 z "},"ç":{"ha":761,"x_min":56,"x_max":706,"o":"m 706 44 q 522 -17 632 -4 l 501 -72 q 594 -116 561 -79 q 626 -208 626 -153 q 572 -309 626 -274 q 426 -344 518 -344 q 354 -340 389 -344 q 300 -328 319 -335 l 301 -232 q 339 -244 317 -239 q 382 -249 361 -249 q 464 -192 464 -249 q 431 -138 464 -158 q 326 -118 399 -118 l 367 -15 q 139 95 222 6 q 56 332 56 185 q 105 523 56 443 q 242 645 154 603 q 449 688 331 688 q 697 626 604 688 l 697 486 q 467 550 607 550 q 297 497 360 550 q 233 332 233 443 q 297 169 233 222 q 464 117 360 117 q 706 183 604 117 l 706 44 z "},"ĉ":{"ha":761,"x_min":56,"x_max":706,"o":"m 346 981 l 501 981 l 704 743 l 529 743 l 424 881 l 318 743 l 142 743 l 346 981 m 446 -21 q 241 21 329 -21 q 104 142 153 63 q 56 332 56 221 q 105 523 56 443 q 242 645 154 603 q 449 688 331 688 q 697 626 604 688 l 697 486 q 467 550 607 550 q 297 497 360 550 q 233 332 233 443 q 297 169 233 222 q 464 117 360 117 q 706 183 604 117 l 706 44 q 592 -5 656 11 q 446 -21 529 -21 z "},"ċ":{"ha":761,"x_min":56,"x_max":706,"o":"m 431 743 q 365 770 393 743 q 338 835 338 797 q 365 901 338 874 q 431 928 393 928 q 495 901 468 928 q 522 835 522 874 q 495 769 522 796 q 431 743 468 743 m 446 -21 q 241 21 329 -21 q 104 142 153 63 q 56 332 56 221 q 105 523 56 443 q 242 645 154 603 q 449 688 331 688 q 697 626 604 688 l 697 486 q 467 550 607 550 q 297 497 360 550 q 233 332 233 443 q 297 169 233 222 q 464 117 360 117 q 706 183 604 117 l 706 44 q 592 -5 656 11 q 446 -21 529 -21 z "},"d":{"ha":924,"x_min":56,"x_max":840,"o":"m 407 -21 q 226 23 306 -21 q 101 147 146 67 q 56 332 56 226 q 101 517 56 436 q 226 642 146 597 q 407 688 306 688 q 665 601 571 688 l 665 1026 l 840 1026 l 840 0 l 671 0 l 671 78 q 553 2 614 25 q 407 -21 492 -21 m 450 117 q 583 157 525 117 q 665 265 642 197 l 665 400 q 584 509 643 468 q 450 550 525 550 q 294 489 356 550 q 233 332 233 428 q 294 176 233 236 q 450 117 356 117 z "},"ð":{"ha":881,"x_min":56,"x_max":825,"o":"m 419 -21 q 222 21 304 -21 q 97 137 139 63 q 56 307 56 211 q 150 543 56 457 q 414 629 244 629 q 542 607 481 629 q 646 543 604 585 q 589 753 642 668 l 403 663 l 403 775 l 513 828 q 406 856 465 856 q 314 848 365 856 q 235 829 263 840 l 235 971 q 317 985 265 979 q 406 992 369 992 q 663 900 565 992 l 825 979 l 825 867 l 726 818 q 804 447 804 682 q 756 190 804 294 q 620 32 707 85 q 419 -21 533 -21 m 425 114 q 560 169 508 114 q 611 303 611 224 q 558 439 611 386 q 425 492 506 492 q 284 440 339 492 q 229 303 229 389 q 284 165 229 217 q 425 114 339 114 z "},"ď":{"ha":1146,"x_min":56,"x_max":1146,"o":"m 999 1068 l 1146 1068 l 1019 810 l 890 810 l 999 1068 m 407 -35 q 226 9 306 -35 q 101 133 146 53 q 56 319 56 213 q 101 504 56 424 q 226 629 146 585 q 407 674 306 674 q 560 642 489 674 q 667 553 631 610 l 667 1013 l 842 1013 l 842 -14 l 672 -14 l 672 93 q 561 -1 631 32 q 407 -35 492 -35 m 450 103 q 585 140 526 103 q 667 244 643 178 l 667 393 q 585 498 644 460 q 450 536 526 536 q 297 477 357 536 q 236 318 236 418 q 297 161 236 219 q 450 103 357 103 z "},"đ":{"ha":938,"x_min":56,"x_max":910,"o":"m 407 -21 q 226 23 306 -21 q 101 147 146 67 q 56 332 56 226 q 101 517 56 436 q 226 642 146 597 q 407 688 306 688 q 665 601 571 688 l 665 778 l 413 778 l 413 910 l 665 910 l 665 1026 l 840 1026 l 840 910 l 910 910 l 910 778 l 840 778 l 840 0 l 671 0 l 671 78 q 553 2 614 25 q 407 -21 492 -21 m 450 117 q 583 157 525 117 q 665 265 642 197 l 665 400 q 584 509 643 468 q 450 550 525 550 q 294 489 356 550 q 233 332 233 428 q 294 176 233 236 q 450 117 356 117 z "},"ḍ":{"ha":924,"x_min":56,"x_max":840,"o":"m 407 -21 q 226 23 306 -21 q 101 147 146 67 q 56 332 56 226 q 101 517 56 436 q 226 642 146 597 q 407 688 306 688 q 665 601 571 688 l 665 1026 l 840 1026 l 840 0 l 671 0 l 671 78 q 553 2 614 25 q 407 -21 492 -21 m 450 117 q 583 157 525 117 q 665 265 642 197 l 665 400 q 584 509 643 468 q 450 550 525 550 q 294 489 356 550 q 233 332 233 428 q 294 176 233 236 q 450 117 356 117 m 439 -249 q 374 -222 401 -249 q 346 -157 346 -194 q 374 -91 346 -118 q 439 -64 401 -64 q 503 -91 476 -64 q 531 -157 531 -118 q 503 -222 531 -196 q 439 -249 476 -249 z "},"ḏ":{"ha":924,"x_min":56,"x_max":840,"o":"m 407 -21 q 226 23 306 -21 q 101 147 146 67 q 56 332 56 226 q 101 517 56 436 q 226 642 146 597 q 407 688 306 688 q 665 601 571 688 l 665 1026 l 840 1026 l 840 0 l 671 0 l 671 78 q 553 2 614 25 q 407 -21 492 -21 m 450 117 q 583 157 525 117 q 665 265 642 197 l 665 400 q 584 509 643 468 q 450 550 525 550 q 294 489 356 550 q 233 332 233 428 q 294 176 233 236 q 450 117 356 117 m 247 -94 l 696 -94 l 696 -210 l 247 -210 l 247 -94 z "},"e":{"ha":846,"x_min":56,"x_max":790,"o":"m 458 -21 q 164 72 272 -21 q 56 332 56 165 q 151 592 56 496 q 425 688 247 688 q 624 643 542 688 q 749 522 707 599 q 790 346 790 444 l 790 265 l 222 265 q 481 117 240 117 q 611 128 544 117 q 728 158 678 139 l 728 24 q 606 -8 681 4 q 458 -21 532 -21 m 625 385 q 569 507 622 464 q 422 550 515 550 q 278 506 331 550 q 222 385 225 461 l 625 385 z "},"é":{"ha":846,"x_min":56,"x_max":790,"o":"m 425 985 l 610 985 l 490 743 l 329 743 l 425 985 m 458 -21 q 164 72 272 -21 q 56 332 56 165 q 151 592 56 496 q 425 688 247 688 q 624 643 542 688 q 749 522 707 599 q 790 346 790 444 l 790 265 l 222 265 q 481 117 240 117 q 611 128 544 117 q 728 158 678 139 l 728 24 q 606 -8 681 4 q 458 -21 532 -21 m 625 385 q 569 507 622 464 q 422 550 515 550 q 278 506 331 550 q 222 385 225 461 l 625 385 z "},"ĕ":{"ha":846,"x_min":56,"x_max":790,"o":"m 432 743 q 268 801 328 743 q 208 953 208 858 l 340 953 q 364 883 340 907 q 432 860 388 860 q 500 883 476 860 q 524 953 524 907 l 656 953 q 596 801 656 858 q 432 743 536 743 m 458 -21 q 164 72 272 -21 q 56 332 56 165 q 151 592 56 496 q 425 688 247 688 q 624 643 542 688 q 749 522 707 599 q 790 346 790 444 l 790 265 l 222 265 q 481 117 240 117 q 611 128 544 117 q 728 158 678 139 l 728 24 q 606 -8 681 4 q 458 -21 532 -21 m 625 385 q 569 507 622 464 q 422 550 515 550 q 278 506 331 550 q 222 385 225 461 l 625 385 z "},"ě":{"ha":846,"x_min":56,"x_max":790,"o":"m 150 981 l 326 981 l 432 842 l 538 981 l 713 981 l 510 743 l 354 743 l 150 981 m 458 -21 q 164 72 272 -21 q 56 332 56 165 q 151 592 56 496 q 425 688 247 688 q 624 643 542 688 q 749 522 707 599 q 790 346 790 444 l 790 265 l 222 265 q 481 117 240 117 q 611 128 544 117 q 728 158 678 139 l 728 24 q 606 -8 681 4 q 458 -21 532 -21 m 625 385 q 569 507 622 464 q 422 550 515 550 q 278 506 331 550 q 222 385 225 461 l 625 385 z "},"ê":{"ha":846,"x_min":56,"x_max":790,"o":"m 358 981 l 514 981 l 717 743 l 542 743 l 436 881 l 331 743 l 154 743 l 358 981 m 458 -21 q 164 72 272 -21 q 56 332 56 165 q 151 592 56 496 q 425 688 247 688 q 624 643 542 688 q 749 522 707 599 q 790 346 790 444 l 790 265 l 222 265 q 481 117 240 117 q 611 128 544 117 q 728 158 678 139 l 728 24 q 606 -8 681 4 q 458 -21 532 -21 m 625 385 q 569 507 622 464 q 422 550 515 550 q 278 506 331 550 q 222 385 225 461 l 625 385 z "},"ế":{"ha":846,"x_min":56,"x_max":871,"o":"m 708 1058 l 871 1058 l 764 881 l 624 881 l 708 1058 m 361 954 l 508 954 l 700 743 l 535 743 l 435 860 l 335 743 l 168 743 l 361 954 m 458 -21 q 164 72 272 -21 q 56 332 56 165 q 151 592 56 496 q 425 688 247 688 q 624 643 542 688 q 749 522 707 599 q 790 346 790 444 l 790 265 l 222 265 q 481 117 240 117 q 611 128 544 117 q 728 158 678 139 l 728 24 q 606 -8 681 4 q 458 -21 532 -21 m 625 385 q 569 507 622 464 q 422 550 515 550 q 278 506 331 550 q 222 385 225 461 l 625 385 z "},"ệ":{"ha":846,"x_min":56,"x_max":790,"o":"m 357 981 l 513 981 l 715 743 l 540 743 l 435 881 l 329 743 l 153 743 l 357 981 m 458 -21 q 164 72 272 -21 q 56 332 56 165 q 151 592 56 496 q 425 688 247 688 q 624 643 542 688 q 749 522 707 599 q 790 346 790 444 l 790 265 l 222 265 q 481 117 240 117 q 611 128 544 117 q 728 158 678 139 l 728 24 q 606 -8 681 4 q 458 -21 532 -21 m 625 385 q 569 507 622 464 q 422 550 515 550 q 278 506 331 550 q 222 385 225 461 l 625 385 m 435 -249 q 369 -222 397 -249 q 342 -157 342 -194 q 369 -91 342 -118 q 435 -64 397 -64 q 499 -91 472 -64 q 526 -157 526 -118 q 499 -222 526 -196 q 435 -249 472 -249 z "},"ề":{"ha":846,"x_min":4,"x_max":790,"o":"m 4 1058 l 167 1058 l 251 881 l 111 881 l 4 1058 m 367 954 l 514 954 l 707 743 l 540 743 l 440 860 l 340 743 l 175 743 l 367 954 m 458 -21 q 164 72 272 -21 q 56 332 56 165 q 151 592 56 496 q 425 688 247 688 q 624 643 542 688 q 749 522 707 599 q 790 346 790 444 l 790 265 l 222 265 q 481 117 240 117 q 611 128 544 117 q 728 158 678 139 l 728 24 q 606 -8 681 4 q 458 -21 532 -21 m 625 385 q 569 507 622 464 q 422 550 515 550 q 278 506 331 550 q 222 385 225 461 l 625 385 z "},"ể":{"ha":846,"x_min":56,"x_max":815,"o":"m 617 935 q 677 944 658 935 q 696 978 696 954 q 682 1006 696 999 q 638 1014 668 1014 q 581 1003 603 1014 l 581 1071 q 628 1082 600 1078 q 681 1086 656 1086 q 779 1060 743 1086 q 815 989 815 1033 q 792 930 815 954 q 726 899 768 906 l 726 865 l 617 865 l 617 935 m 354 954 l 501 954 l 693 743 l 528 743 l 428 860 l 328 743 l 161 743 l 354 954 m 458 -21 q 164 72 272 -21 q 56 332 56 165 q 151 592 56 496 q 425 688 247 688 q 624 643 542 688 q 749 522 707 599 q 790 346 790 444 l 790 265 l 222 265 q 481 117 240 117 q 611 128 544 117 q 728 158 678 139 l 728 24 q 606 -8 681 4 q 458 -21 532 -21 m 625 385 q 569 507 622 464 q 422 550 515 550 q 278 506 331 550 q 222 385 225 461 l 625 385 z "},"ễ":{"ha":846,"x_min":56,"x_max":790,"o":"m 535 971 q 483 979 508 971 q 421 1003 458 988 q 363 1024 385 1017 q 321 1031 342 1031 q 262 1017 288 1031 q 213 972 236 1004 l 213 1096 q 321 1144 246 1144 q 369 1137 344 1144 q 431 1114 393 1129 q 460 1103 438 1111 q 501 1090 482 1094 q 535 1085 519 1085 q 594 1098 568 1085 q 643 1143 621 1111 l 643 1018 q 535 971 610 971 m 350 954 l 497 954 l 689 743 l 524 743 l 424 860 l 324 743 l 157 743 l 350 954 m 458 -21 q 164 72 272 -21 q 56 332 56 165 q 151 592 56 496 q 425 688 247 688 q 624 643 542 688 q 749 522 707 599 q 790 346 790 444 l 790 265 l 222 265 q 481 117 240 117 q 611 128 544 117 q 728 158 678 139 l 728 24 q 606 -8 681 4 q 458 -21 532 -21 m 625 385 q 569 507 622 464 q 422 550 515 550 q 278 506 331 550 q 222 385 225 461 l 625 385 z "},"ë":{"ha":846,"x_min":56,"x_max":790,"o":"m 267 757 q 201 784 229 757 q 174 849 174 811 q 201 915 174 888 q 267 942 229 942 q 331 915 304 942 q 358 849 358 888 q 331 783 358 810 q 267 757 304 757 m 596 757 q 531 784 558 757 q 503 849 503 811 q 531 915 503 888 q 596 942 558 942 q 660 915 633 942 q 688 849 688 888 q 660 783 688 810 q 596 757 633 757 m 458 -21 q 164 72 272 -21 q 56 332 56 165 q 151 592 56 496 q 425 688 247 688 q 624 643 542 688 q 749 522 707 599 q 790 346 790 444 l 790 265 l 222 265 q 481 117 240 117 q 611 128 544 117 q 728 158 678 139 l 728 24 q 606 -8 681 4 q 458 -21 532 -21 m 625 385 q 569 507 622 464 q 422 550 515 550 q 278 506 331 550 q 222 385 225 461 l 625 385 z "},"ė":{"ha":846,"x_min":56,"x_max":790,"o":"m 428 757 q 363 784 390 757 q 335 849 335 811 q 363 915 335 888 q 428 942 390 942 q 492 915 465 942 q 519 849 519 888 q 492 783 519 810 q 428 757 465 757 m 458 -21 q 164 72 272 -21 q 56 332 56 165 q 151 592 56 496 q 425 688 247 688 q 624 643 542 688 q 749 522 707 599 q 790 346 790 444 l 790 265 l 222 265 q 481 117 240 117 q 611 128 544 117 q 728 158 678 139 l 728 24 q 606 -8 681 4 q 458 -21 532 -21 m 625 385 q 569 507 622 464 q 422 550 515 550 q 278 506 331 550 q 222 385 225 461 l 625 385 z "},"ẹ":{"ha":846,"x_min":56,"x_max":790,"o":"m 458 -21 q 164 72 272 -21 q 56 332 56 165 q 151 592 56 496 q 425 688 247 688 q 624 643 542 688 q 749 522 707 599 q 790 346 790 444 l 790 265 l 222 265 q 481 117 240 117 q 611 128 544 117 q 728 158 678 139 l 728 24 q 606 -8 681 4 q 458 -21 532 -21 m 625 385 q 569 507 622 464 q 422 550 515 550 q 278 506 331 550 q 222 385 225 461 l 625 385 m 449 -249 q 383 -222 411 -249 q 356 -157 356 -194 q 383 -91 356 -118 q 449 -64 411 -64 q 513 -91 486 -64 q 540 -157 540 -118 q 513 -222 540 -196 q 449 -249 486 -249 z "},"è":{"ha":846,"x_min":56,"x_max":790,"o":"m 242 985 l 426 985 l 522 743 l 361 743 l 242 985 m 458 -21 q 164 72 272 -21 q 56 332 56 165 q 151 592 56 496 q 425 688 247 688 q 624 643 542 688 q 749 522 707 599 q 790 346 790 444 l 790 265 l 222 265 q 481 117 240 117 q 611 128 544 117 q 728 158 678 139 l 728 24 q 606 -8 681 4 q 458 -21 532 -21 m 625 385 q 569 507 622 464 q 422 550 515 550 q 278 506 331 550 q 222 385 225 461 l 625 385 z "},"ẻ":{"ha":846,"x_min":56,"x_max":790,"o":"m 354 846 q 449 861 417 846 q 481 914 481 876 q 460 953 481 942 q 394 965 440 965 q 346 960 376 965 q 303 949 315 954 l 303 1040 q 367 1054 329 1049 q 439 1060 404 1060 q 583 1022 533 1060 q 633 921 633 985 q 600 835 633 869 q 507 790 567 800 l 507 743 l 354 743 l 354 846 m 458 -21 q 164 72 272 -21 q 56 332 56 165 q 151 592 56 496 q 425 688 247 688 q 624 643 542 688 q 749 522 707 599 q 790 346 790 444 l 790 265 l 222 265 q 481 117 240 117 q 611 128 544 117 q 728 158 678 139 l 728 24 q 606 -8 681 4 q 458 -21 532 -21 m 625 385 q 569 507 622 464 q 422 550 515 550 q 278 506 331 550 q 222 385 225 461 l 625 385 z "},"ē":{"ha":846,"x_min":56,"x_max":790,"o":"m 210 874 l 658 874 l 658 757 l 210 757 l 210 874 m 458 -21 q 164 72 272 -21 q 56 332 56 165 q 151 592 56 496 q 425 688 247 688 q 624 643 542 688 q 749 522 707 599 q 790 346 790 444 l 790 265 l 222 265 q 481 117 240 117 q 611 128 544 117 q 728 158 678 139 l 728 24 q 606 -8 681 4 q 458 -21 532 -21 m 625 385 q 569 507 622 464 q 422 550 515 550 q 278 506 331 550 q 222 385 225 461 l 625 385 z "},"ę":{"ha":846,"x_min":56,"x_max":790,"o":"m 790 265 l 222 265 q 481 117 240 117 q 611 128 544 117 q 728 158 678 139 l 728 24 q 614 -7 690 7 q 540 -69 564 -37 q 515 -137 515 -101 q 531 -178 515 -164 q 572 -193 547 -193 q 639 -178 608 -193 l 639 -278 q 518 -296 592 -296 q 406 -263 449 -296 q 363 -168 363 -231 q 436 -21 363 -81 q 157 78 258 -14 q 56 332 56 171 q 151 592 56 496 q 425 688 247 688 q 624 643 542 688 q 749 522 707 599 q 790 346 790 444 l 790 265 m 625 385 q 569 507 622 464 q 422 550 515 550 q 278 506 331 550 q 222 385 225 461 l 625 385 z "},"ẽ":{"ha":846,"x_min":56,"x_max":790,"o":"m 172 886 q 311 946 217 946 q 371 938 342 946 q 446 911 400 929 q 514 885 485 894 q 574 876 543 876 q 713 947 660 876 l 713 804 q 574 746 669 746 q 507 755 539 746 q 433 782 475 764 q 366 807 392 799 q 311 815 340 815 q 237 799 271 815 q 172 743 203 782 l 172 886 m 458 -21 q 164 72 272 -21 q 56 332 56 165 q 151 592 56 496 q 425 688 247 688 q 624 643 542 688 q 749 522 707 599 q 790 346 790 444 l 790 265 l 222 265 q 481 117 240 117 q 611 128 544 117 q 728 158 678 139 l 728 24 q 606 -8 681 4 q 458 -21 532 -21 m 625 385 q 569 507 622 464 q 422 550 515 550 q 278 506 331 550 q 222 385 225 461 l 625 385 z "},"f":{"ha":506,"x_min":28,"x_max":506,"o":"m 126 533 l 28 533 l 28 667 l 126 667 l 126 782 q 199 969 126 904 q 389 1033 271 1033 q 506 1014 456 1033 l 506 872 q 424 889 468 889 q 331 861 361 889 q 301 769 301 833 l 301 667 l 464 667 l 464 533 l 301 533 l 301 0 l 126 0 l 126 533 z "},"g":{"ha":924,"x_min":56,"x_max":840,"o":"m 436 -319 q 303 -307 369 -319 q 192 -274 236 -294 l 192 -135 q 436 -182 300 -182 q 612 -131 558 -182 q 665 22 665 -79 l 665 65 q 553 1 618 22 q 413 -21 488 -21 q 229 24 311 -21 q 101 150 147 69 q 56 335 56 231 q 101 520 56 440 q 226 644 146 600 q 407 688 306 688 q 553 665 492 688 q 671 589 614 642 l 671 667 l 840 667 l 840 40 q 741 -226 840 -132 q 436 -319 642 -319 m 450 117 q 584 158 525 117 q 665 267 643 199 l 665 401 q 583 510 642 469 q 450 550 525 550 q 294 490 356 550 q 233 335 233 431 q 294 178 233 239 q 450 117 356 117 z "},"ğ":{"ha":924,"x_min":56,"x_max":840,"o":"m 474 743 q 310 801 369 743 q 250 953 250 858 l 382 953 q 406 883 382 907 q 474 860 429 860 q 542 883 518 860 q 565 953 565 907 l 697 953 q 638 801 697 858 q 474 743 578 743 m 436 -319 q 303 -307 369 -319 q 192 -274 236 -294 l 192 -135 q 436 -182 300 -182 q 612 -131 558 -182 q 665 22 665 -79 l 665 65 q 553 1 618 22 q 413 -21 488 -21 q 229 24 311 -21 q 101 150 147 69 q 56 335 56 231 q 101 520 56 440 q 226 644 146 600 q 407 688 306 688 q 553 665 492 688 q 671 589 614 642 l 671 667 l 840 667 l 840 40 q 741 -226 840 -132 q 436 -319 642 -319 m 450 117 q 584 158 525 117 q 665 267 643 199 l 665 401 q 583 510 642 469 q 450 550 525 550 q 294 490 356 550 q 233 335 233 431 q 294 178 233 239 q 450 117 356 117 z "},"ǧ":{"ha":924,"x_min":56,"x_max":840,"o":"m 167 981 l 343 981 l 449 842 l 554 981 l 729 981 l 526 743 l 371 743 l 167 981 m 436 -319 q 303 -307 369 -319 q 192 -274 236 -294 l 192 -135 q 436 -182 300 -182 q 612 -131 558 -182 q 665 22 665 -79 l 665 65 q 553 1 618 22 q 413 -21 488 -21 q 229 24 311 -21 q 101 150 147 69 q 56 335 56 231 q 101 520 56 440 q 226 644 146 600 q 407 688 306 688 q 553 665 492 688 q 671 589 614 642 l 671 667 l 840 667 l 840 40 q 741 -226 840 -132 q 436 -319 642 -319 m 450 117 q 584 158 525 117 q 665 267 643 199 l 665 401 q 583 510 642 469 q 450 550 525 550 q 294 490 356 550 q 233 335 233 431 q 294 178 233 239 q 450 117 356 117 z "},"ĝ":{"ha":924,"x_min":56,"x_max":840,"o":"m 401 981 l 557 981 l 760 743 l 585 743 l 479 881 l 374 743 l 197 743 l 401 981 m 436 -319 q 303 -307 369 -319 q 192 -274 236 -294 l 192 -135 q 436 -182 300 -182 q 612 -131 558 -182 q 665 22 665 -79 l 665 65 q 553 1 618 22 q 413 -21 488 -21 q 229 24 311 -21 q 101 150 147 69 q 56 335 56 231 q 101 520 56 440 q 226 644 146 600 q 407 688 306 688 q 553 665 492 688 q 671 589 614 642 l 671 667 l 840 667 l 840 40 q 741 -226 840 -132 q 436 -319 642 -319 m 450 117 q 584 158 525 117 q 665 267 643 199 l 665 401 q 583 510 642 469 q 450 550 525 550 q 294 490 356 550 q 233 335 233 431 q 294 178 233 239 q 450 117 356 117 z "},"ģ":{"ha":924,"x_min":56,"x_max":840,"o":"m 536 1025 l 696 1025 l 582 743 l 400 743 l 536 1025 m 436 -319 q 303 -307 369 -319 q 192 -274 236 -294 l 192 -135 q 436 -182 300 -182 q 612 -131 558 -182 q 665 22 665 -79 l 665 65 q 553 1 618 22 q 413 -21 488 -21 q 229 24 311 -21 q 101 150 147 69 q 56 335 56 231 q 101 520 56 440 q 226 644 146 600 q 407 688 306 688 q 553 665 492 688 q 671 589 614 642 l 671 667 l 840 667 l 840 40 q 741 -226 840 -132 q 436 -319 642 -319 m 450 117 q 584 158 525 117 q 665 267 643 199 l 665 401 q 583 510 642 469 q 450 550 525 550 q 294 490 356 550 q 233 335 233 431 q 294 178 233 239 q 450 117 356 117 z "},"ġ":{"ha":924,"x_min":56,"x_max":840,"o":"m 479 757 q 414 784 442 757 q 386 849 386 811 q 414 915 386 888 q 479 942 442 942 q 544 915 517 942 q 571 849 571 888 q 544 783 571 810 q 479 757 517 757 m 436 -319 q 303 -307 369 -319 q 192 -274 236 -294 l 192 -135 q 436 -182 300 -182 q 612 -131 558 -182 q 665 22 665 -79 l 665 65 q 553 1 618 22 q 413 -21 488 -21 q 229 24 311 -21 q 101 150 147 69 q 56 335 56 231 q 101 520 56 440 q 226 644 146 600 q 407 688 306 688 q 553 665 492 688 q 671 589 614 642 l 671 667 l 840 667 l 840 40 q 741 -226 840 -132 q 436 -319 642 -319 m 450 117 q 584 158 525 117 q 665 267 643 199 l 665 401 q 583 510 642 469 q 450 550 525 550 q 294 490 356 550 q 233 335 233 431 q 294 178 233 239 q 450 117 356 117 z "},"ḡ":{"ha":924,"x_min":56,"x_max":840,"o":"m 235 874 l 683 874 l 683 757 l 235 757 l 235 874 m 436 -319 q 303 -307 369 -319 q 192 -274 236 -294 l 192 -135 q 436 -182 300 -182 q 612 -131 558 -182 q 665 22 665 -79 l 665 65 q 553 1 618 22 q 413 -21 488 -21 q 229 24 311 -21 q 101 150 147 69 q 56 335 56 231 q 101 520 56 440 q 226 644 146 600 q 407 688 306 688 q 553 665 492 688 q 671 589 614 642 l 671 667 l 840 667 l 840 40 q 741 -226 840 -132 q 436 -319 642 -319 m 450 117 q 584 158 525 117 q 665 267 643 199 l 665 401 q 583 510 642 469 q 450 550 525 550 q 294 490 356 550 q 233 335 233 431 q 294 178 233 239 q 450 117 356 117 z "},"h":{"ha":847,"x_min":83,"x_max":771,"o":"m 83 1026 l 258 1026 l 258 582 q 503 688 353 688 q 704 615 638 688 q 771 421 771 542 l 771 0 l 596 0 l 596 404 q 460 550 596 550 q 347 522 400 550 q 258 436 294 493 l 258 0 l 83 0 l 83 1026 z "},"ħ":{"ha":854,"x_min":28,"x_max":778,"o":"m 90 760 l 28 760 l 28 886 l 90 886 l 90 1026 l 265 1026 l 265 886 l 476 886 l 476 760 l 265 760 l 265 579 q 377 661 314 635 q 511 688 440 688 q 713 618 647 688 q 778 428 778 549 l 778 0 l 603 0 l 603 404 q 461 550 603 550 q 265 436 338 550 l 265 0 l 90 0 l 90 760 z "},"ḫ":{"ha":847,"x_min":83,"x_max":771,"o":"m 83 1026 l 258 1026 l 258 582 q 503 688 353 688 q 704 615 638 688 q 771 421 771 542 l 771 0 l 596 0 l 596 404 q 460 550 596 550 q 347 522 400 550 q 258 436 294 493 l 258 0 l 83 0 l 83 1026 m 433 -292 q 269 -234 329 -292 q 210 -82 210 -176 l 342 -82 q 365 -151 342 -128 q 433 -175 389 -175 q 501 -151 478 -175 q 525 -82 525 -128 l 657 -82 q 597 -234 657 -176 q 433 -292 538 -292 z "},"ĥ":{"ha":847,"x_min":83,"x_max":771,"o":"m 293 1303 l 449 1303 l 651 1065 l 476 1065 l 371 1203 l 265 1065 l 89 1065 l 293 1303 m 83 1026 l 258 1026 l 258 582 q 503 688 353 688 q 704 615 638 688 q 771 421 771 542 l 771 0 l 596 0 l 596 404 q 460 550 596 550 q 347 522 400 550 q 258 436 294 493 l 258 0 l 83 0 l 83 1026 z "},"ḥ":{"ha":847,"x_min":83,"x_max":771,"o":"m 83 1026 l 258 1026 l 258 582 q 503 688 353 688 q 704 615 638 688 q 771 421 771 542 l 771 0 l 596 0 l 596 404 q 460 550 596 550 q 347 522 400 550 q 258 436 294 493 l 258 0 l 83 0 l 83 1026 m 425 -249 q 360 -222 388 -249 q 332 -157 332 -194 q 360 -91 332 -118 q 425 -64 388 -64 q 490 -91 463 -64 q 517 -157 517 -118 q 490 -222 517 -196 q 425 -249 463 -249 z "},"i":{"ha":365,"x_min":83,"x_max":282,"o":"m 182 783 q 112 811 140 783 q 83 881 83 839 q 112 951 83 922 q 182 979 140 979 q 253 951 224 979 q 282 881 282 922 q 253 811 282 839 q 182 783 224 783 m 93 667 l 271 667 l 271 0 l 93 0 l 93 667 z "},"ı":{"ha":344,"x_min":83,"x_max":261,"o":"m 83 667 l 261 667 l 261 0 l 83 0 l 83 667 z "},"í":{"ha":344,"x_min":83,"x_max":369,"o":"m 185 985 l 369 985 l 250 743 l 89 743 l 185 985 m 83 667 l 261 667 l 261 0 l 83 0 l 83 667 z "},"ĭ":{"ha":344,"x_min":-51,"x_max":396,"o":"m 172 743 q 8 801 68 743 q -51 953 -51 858 l 81 953 q 104 883 81 907 q 172 860 128 860 q 240 883 217 860 q 264 953 264 907 l 396 953 q 336 801 396 858 q 172 743 276 743 m 83 667 l 261 667 l 261 0 l 83 0 l 83 667 z "},"ǐ":{"ha":344,"x_min":-108,"x_max":454,"o":"m -108 981 l 68 981 l 174 842 l 279 981 l 454 981 l 251 743 l 96 743 l -108 981 m 83 667 l 261 667 l 261 0 l 83 0 l 83 667 z "},"î":{"ha":344,"x_min":-108,"x_max":454,"o":"m 96 981 l 251 981 l 454 743 l 279 743 l 174 881 l 68 743 l -108 743 l 96 981 m 83 667 l 261 667 l 261 0 l 83 0 l 83 667 z "},"ï":{"ha":344,"x_min":-85,"x_max":429,"o":"m 8 757 q -57 784 -29 757 q -85 849 -85 811 q -57 915 -85 888 q 8 942 -29 942 q 73 915 46 942 q 100 849 100 888 q 73 783 100 810 q 8 757 46 757 m 338 757 q 272 784 300 757 q 244 849 244 811 q 272 915 244 888 q 338 942 300 942 q 402 915 375 942 q 429 849 429 888 q 402 783 429 810 q 338 757 375 757 m 83 667 l 261 667 l 261 0 l 83 0 l 83 667 z "},"ị":{"ha":365,"x_min":83,"x_max":282,"o":"m 182 783 q 112 811 140 783 q 83 881 83 839 q 112 951 83 922 q 182 979 140 979 q 253 951 224 979 q 282 881 282 922 q 253 811 282 839 q 182 783 224 783 m 93 667 l 271 667 l 271 0 l 93 0 l 93 667 m 183 -249 q 118 -222 146 -249 q 90 -157 90 -194 q 118 -91 90 -118 q 183 -64 146 -64 q 248 -91 221 -64 q 275 -157 275 -118 q 248 -222 275 -196 q 183 -249 221 -249 z "},"ì":{"ha":344,"x_min":-28,"x_max":261,"o":"m -28 985 l 157 985 l 253 743 l 92 743 l -28 985 m 83 667 l 261 667 l 261 0 l 83 0 l 83 667 z "},"ỉ":{"ha":344,"x_min":44,"x_max":375,"o":"m 96 846 q 190 861 158 846 q 222 914 222 876 q 202 953 222 942 q 136 965 182 965 q 88 960 118 965 q 44 949 57 954 l 44 1040 q 108 1054 71 1049 q 181 1060 146 1060 q 325 1022 275 1060 q 375 921 375 985 q 342 835 375 869 q 249 790 308 800 l 249 743 l 96 743 l 96 846 m 83 667 l 261 667 l 261 0 l 83 0 l 83 667 z "},"ĳ":{"ha":658,"x_min":83,"x_max":575,"o":"m 182 783 q 112 811 140 783 q 83 881 83 839 q 112 951 83 922 q 182 979 140 979 q 253 951 224 979 q 282 881 282 922 q 253 811 282 839 q 182 783 224 783 m 476 783 q 406 811 435 783 q 378 881 378 839 q 406 949 378 921 q 476 978 435 978 q 546 949 517 978 q 575 881 575 921 q 547 811 575 839 q 476 783 518 783 m 93 667 l 271 667 l 271 0 l 93 0 l 93 667 m 307 -321 q 190 -303 240 -321 l 190 -161 q 276 -178 228 -178 q 361 -149 333 -178 q 389 -60 389 -121 l 389 667 l 564 667 l 564 -78 q 494 -260 564 -199 q 307 -321 425 -321 z "},"ī":{"ha":344,"x_min":-58,"x_max":403,"o":"m -58 874 l 403 874 l 403 757 l -58 757 l -58 874 m 83 667 l 261 667 l 261 0 l 83 0 l 83 667 z "},"į":{"ha":365,"x_min":1,"x_max":282,"o":"m 182 783 q 112 811 140 783 q 83 881 83 839 q 112 951 83 922 q 182 979 140 979 q 253 951 224 979 q 282 881 282 922 q 253 811 282 839 q 182 783 224 783 m 154 -137 q 170 -178 154 -164 q 211 -193 186 -193 q 278 -178 247 -193 l 278 -278 q 157 -296 231 -296 q 44 -263 88 -296 q 1 -168 1 -231 q 29 -72 1 -115 q 103 0 57 -29 l 93 0 l 93 667 l 271 667 l 271 0 l 264 0 q 181 -66 208 -33 q 154 -137 154 -99 z "},"ĩ":{"ha":344,"x_min":-97,"x_max":443,"o":"m -97 883 q 42 943 -53 943 q 101 935 72 943 q 176 908 131 926 q 244 883 215 892 q 304 874 274 874 q 443 944 390 874 l 443 801 q 304 743 400 743 q 238 752 269 743 q 164 779 206 761 q 97 804 122 796 q 42 813 71 813 q -33 796 1 813 q -97 740 -67 779 l -97 883 m 83 667 l 261 667 l 261 0 l 83 0 l 83 667 z "},"j":{"ha":357,"x_min":-111,"x_max":274,"o":"m 175 783 q 105 811 133 783 q 76 881 76 839 q 105 949 76 921 q 175 978 133 978 q 244 949 215 978 q 274 881 274 921 q 245 811 274 839 q 175 783 217 783 m 6 -321 q -111 -303 -61 -321 l -111 -161 q -25 -178 -74 -178 q 60 -149 32 -178 q 88 -60 88 -121 l 88 667 l 263 667 l 263 -78 q 193 -260 263 -199 q 6 -321 124 -321 z "},"ȷ":{"ha":346,"x_min":-111,"x_max":263,"o":"m 6 -321 q -111 -303 -61 -321 l -111 -161 q -25 -178 -74 -178 q 60 -149 32 -178 q 88 -60 88 -121 l 88 667 l 263 667 l 263 -78 q 193 -260 263 -199 q 6 -321 124 -321 z "},"ĵ":{"ha":346,"x_min":-111,"x_max":456,"o":"m 97 981 l 253 981 l 456 743 l 281 743 l 175 881 l 69 743 l -107 743 l 97 981 m 6 -321 q -111 -303 -61 -321 l -111 -161 q -25 -178 -74 -178 q 60 -149 32 -178 q 88 -60 88 -121 l 88 667 l 263 667 l 263 -78 q 193 -260 263 -199 q 6 -321 124 -321 z "},"k":{"ha":818,"x_min":83,"x_max":763,"o":"m 83 1026 l 258 1026 l 258 374 l 524 667 l 729 667 l 432 340 l 763 0 l 557 0 l 258 308 l 258 0 l 83 0 l 83 1026 z "},"ķ":{"ha":818,"x_min":83,"x_max":763,"o":"m 83 1026 l 258 1026 l 258 374 l 524 667 l 729 667 l 432 340 l 763 0 l 557 0 l 258 308 l 258 0 l 83 0 l 83 1026 m 304 -78 l 486 -78 l 350 -360 l 190 -360 l 304 -78 z "},"ĸ":{"ha":818,"x_min":83,"x_max":763,"o":"m 83 667 l 251 667 l 251 350 l 532 667 l 729 667 l 432 333 l 763 0 l 565 0 l 251 318 l 251 0 l 83 0 l 83 667 z "},"l":{"ha":342,"x_min":83,"x_max":258,"o":"m 83 1026 l 258 1026 l 258 0 l 83 0 l 83 1026 z "},"ĺ":{"ha":342,"x_min":83,"x_max":372,"o":"m 188 1304 l 372 1304 l 253 1063 l 92 1063 l 188 1304 m 83 1026 l 258 1026 l 258 0 l 83 0 l 83 1026 z "},"ľ":{"ha":657,"x_min":83,"x_max":615,"o":"m 433 1046 l 615 1046 l 479 764 l 319 764 l 433 1046 m 83 1026 l 258 1026 l 258 0 l 83 0 l 83 1026 z "},"ļ":{"ha":376,"x_min":4,"x_max":300,"o":"m 121 1026 l 296 1026 l 296 0 l 121 0 l 121 1026 m 118 -78 l 300 -78 l 164 -360 l 4 -360 l 118 -78 z "},"ŀ":{"ha":532,"x_min":83,"x_max":518,"o":"m 83 1026 l 258 1026 l 258 0 l 83 0 l 83 1026 m 426 440 q 361 467 389 440 q 333 532 333 494 q 361 598 333 571 q 426 625 389 625 q 491 598 464 625 q 518 532 518 571 q 491 467 518 493 q 426 440 464 440 z "},"ḷ":{"ha":342,"x_min":79,"x_max":264,"o":"m 83 1026 l 258 1026 l 258 0 l 83 0 l 83 1026 m 172 -249 q 107 -222 135 -249 q 79 -157 79 -194 q 107 -91 79 -118 q 172 -64 135 -64 q 237 -91 210 -64 q 264 -157 264 -118 q 237 -222 264 -196 q 172 -249 210 -249 z "},"ḹ":{"ha":342,"x_min":-53,"x_max":396,"o":"m -53 1181 l 396 1181 l 396 1064 l -53 1064 l -53 1181 m 83 1026 l 258 1026 l 258 0 l 83 0 l 83 1026 m 172 -249 q 107 -222 135 -249 q 79 -157 79 -194 q 107 -91 79 -118 q 172 -64 135 -64 q 237 -91 210 -64 q 264 -157 264 -118 q 237 -222 264 -196 q 172 -249 210 -249 z "},"ḻ":{"ha":342,"x_min":-53,"x_max":396,"o":"m 83 1026 l 258 1026 l 258 0 l 83 0 l 83 1026 m -53 -94 l 396 -94 l 396 -210 l -53 -210 l -53 -94 z "},"ł":{"ha":550,"x_min":14,"x_max":536,"o":"m 174 385 l 14 314 l 14 482 l 174 553 l 174 1026 l 349 1026 l 349 631 l 536 715 l 536 547 l 349 463 l 349 0 l 174 0 l 174 385 z "},"m":{"ha":1211,"x_min":83,"x_max":1135,"o":"m 83 667 l 247 667 l 247 579 q 351 660 292 632 q 472 688 411 688 q 597 662 550 688 q 668 585 644 636 q 776 661 713 635 q 901 688 839 688 q 1081 625 1026 688 q 1135 442 1135 563 l 1135 0 l 967 0 l 967 418 q 938 519 967 489 q 847 550 910 550 q 766 533 803 550 q 699 474 729 515 q 701 401 701 429 l 701 0 l 532 0 l 532 421 q 508 522 532 493 q 422 550 485 550 q 253 443 328 550 l 253 0 l 83 0 l 83 667 z "},"ṃ":{"ha":1211,"x_min":83,"x_max":1135,"o":"m 83 667 l 247 667 l 247 579 q 351 660 292 632 q 472 688 411 688 q 597 662 550 688 q 668 585 644 636 q 776 661 713 635 q 901 688 839 688 q 1081 625 1026 688 q 1135 442 1135 563 l 1135 0 l 967 0 l 967 418 q 938 519 967 489 q 847 550 910 550 q 766 533 803 550 q 699 474 729 515 q 701 401 701 429 l 701 0 l 532 0 l 532 421 q 508 522 532 493 q 422 550 485 550 q 253 443 328 550 l 253 0 l 83 0 l 83 667 m 621 -249 q 556 -222 583 -249 q 528 -157 528 -194 q 556 -91 528 -118 q 621 -64 583 -64 q 685 -91 658 -64 q 713 -157 713 -118 q 685 -222 713 -196 q 621 -249 658 -249 z "},"n":{"ha":847,"x_min":83,"x_max":771,"o":"m 83 667 l 253 667 l 253 576 q 365 660 300 633 q 503 688 431 688 q 704 615 638 688 q 771 421 771 542 l 771 0 l 596 0 l 596 404 q 460 550 596 550 q 347 522 400 550 q 258 436 294 493 l 258 0 l 83 0 l 83 667 z "},"ń":{"ha":847,"x_min":83,"x_max":771,"o":"m 401 985 l 586 985 l 467 743 l 306 743 l 401 985 m 83 667 l 253 667 l 253 576 q 365 660 300 633 q 503 688 431 688 q 704 615 638 688 q 771 421 771 542 l 771 0 l 596 0 l 596 404 q 460 550 596 550 q 347 522 400 550 q 258 436 294 493 l 258 0 l 83 0 l 83 667 z "},"ŉ":{"ha":1017,"x_min":28,"x_max":940,"o":"m 142 982 l 324 982 l 188 700 l 28 700 l 142 982 m 253 667 l 422 667 l 422 576 q 535 660 469 633 q 672 688 600 688 q 874 615 807 688 q 940 421 940 542 l 940 0 l 765 0 l 765 404 q 629 550 765 550 q 517 522 569 550 q 428 436 464 493 l 428 0 l 253 0 l 253 667 z "},"ň":{"ha":847,"x_min":83,"x_max":771,"o":"m 157 981 l 333 981 l 439 842 l 544 981 l 719 981 l 517 743 l 361 743 l 157 981 m 83 667 l 253 667 l 253 576 q 365 660 300 633 q 503 688 431 688 q 704 615 638 688 q 771 421 771 542 l 771 0 l 596 0 l 596 404 q 460 550 596 550 q 347 522 400 550 q 258 436 294 493 l 258 0 l 83 0 l 83 667 z "},"ņ":{"ha":847,"x_min":83,"x_max":771,"o":"m 83 667 l 253 667 l 253 576 q 365 660 300 633 q 503 688 431 688 q 704 615 638 688 q 771 421 771 542 l 771 0 l 596 0 l 596 404 q 460 550 596 550 q 347 522 400 550 q 258 436 294 493 l 258 0 l 83 0 l 83 667 m 353 -78 l 535 -78 l 399 -360 l 239 -360 l 353 -78 z "},"ṅ":{"ha":847,"x_min":83,"x_max":771,"o":"m 419 757 q 354 784 382 757 q 326 849 326 811 q 354 915 326 888 q 419 942 382 942 q 484 915 457 942 q 511 849 511 888 q 484 783 511 810 q 419 757 457 757 m 83 667 l 253 667 l 253 576 q 365 660 300 633 q 503 688 431 688 q 704 615 638 688 q 771 421 771 542 l 771 0 l 596 0 l 596 404 q 460 550 596 550 q 347 522 400 550 q 258 436 294 493 l 258 0 l 83 0 l 83 667 z "},"ṇ":{"ha":847,"x_min":83,"x_max":771,"o":"m 83 667 l 253 667 l 253 576 q 365 660 300 633 q 503 688 431 688 q 704 615 638 688 q 771 421 771 542 l 771 0 l 596 0 l 596 404 q 460 550 596 550 q 347 522 400 550 q 258 436 294 493 l 258 0 l 83 0 l 83 667 m 425 -249 q 360 -222 388 -249 q 332 -157 332 -194 q 360 -91 332 -118 q 425 -64 388 -64 q 490 -91 463 -64 q 517 -157 517 -118 q 490 -222 517 -196 q 425 -249 463 -249 z "},"ŋ":{"ha":847,"x_min":83,"x_max":771,"o":"m 514 -319 q 397 -301 447 -319 l 397 -160 q 483 -176 435 -176 q 568 -148 540 -176 q 596 -58 596 -119 l 596 404 q 460 550 596 550 q 347 522 400 550 q 258 436 294 493 l 258 0 l 83 0 l 83 667 l 253 667 l 253 576 q 365 660 300 633 q 503 688 431 688 q 704 615 638 688 q 771 421 771 542 l 771 -76 q 701 -258 771 -197 q 514 -319 632 -319 z "},"ṉ":{"ha":847,"x_min":83,"x_max":771,"o":"m 83 667 l 253 667 l 253 576 q 365 660 300 633 q 503 688 431 688 q 704 615 638 688 q 771 421 771 542 l 771 0 l 596 0 l 596 404 q 460 550 596 550 q 347 522 400 550 q 258 436 294 493 l 258 0 l 83 0 l 83 667 m 219 -94 l 668 -94 l 668 -210 l 219 -210 l 219 -94 z "},"ñ":{"ha":847,"x_min":83,"x_max":771,"o":"m 140 886 q 279 946 185 946 q 339 938 310 946 q 414 911 368 929 q 482 885 453 894 q 542 876 511 876 q 681 947 628 876 l 681 804 q 542 746 638 746 q 475 755 507 746 q 401 782 443 764 q 334 807 360 799 q 279 815 308 815 q 205 799 239 815 q 140 743 171 782 l 140 886 m 83 667 l 253 667 l 253 576 q 365 660 300 633 q 503 688 431 688 q 704 615 638 688 q 771 421 771 542 l 771 0 l 596 0 l 596 404 q 460 550 596 550 q 347 522 400 550 q 258 436 294 493 l 258 0 l 83 0 l 83 667 z "},"o":{"ha":892,"x_min":56,"x_max":836,"o":"m 446 -21 q 241 22 329 -21 q 104 144 153 64 q 56 333 56 224 q 103 520 56 440 q 240 644 151 600 q 446 688 329 688 q 651 644 563 688 q 788 520 739 600 q 836 333 836 440 q 788 144 836 224 q 651 22 739 64 q 446 -21 563 -21 m 446 117 q 599 177 542 117 q 656 333 656 238 q 599 492 656 435 q 446 550 543 550 q 292 492 349 550 q 236 333 236 435 q 293 177 236 238 q 446 117 350 117 z "},"ó":{"ha":892,"x_min":56,"x_max":836,"o":"m 457 985 l 642 985 l 522 743 l 361 743 l 457 985 m 446 -21 q 241 22 329 -21 q 104 144 153 64 q 56 333 56 224 q 103 520 56 440 q 240 644 151 600 q 446 688 329 688 q 651 644 563 688 q 788 520 739 600 q 836 333 836 440 q 788 144 836 224 q 651 22 739 64 q 446 -21 563 -21 m 446 117 q 599 177 542 117 q 656 333 656 238 q 599 492 656 435 q 446 550 543 550 q 292 492 349 550 q 236 333 236 435 q 293 177 236 238 q 446 117 350 117 z "},"ŏ":{"ha":892,"x_min":56,"x_max":836,"o":"m 446 743 q 282 801 342 743 q 222 953 222 858 l 354 953 q 378 883 354 907 q 446 860 401 860 q 514 883 490 860 q 538 953 538 907 l 669 953 q 610 801 669 858 q 446 743 550 743 m 446 -21 q 241 22 329 -21 q 104 144 153 64 q 56 333 56 224 q 103 520 56 440 q 240 644 151 600 q 446 688 329 688 q 651 644 563 688 q 788 520 739 600 q 836 333 836 440 q 788 144 836 224 q 651 22 739 64 q 446 -21 563 -21 m 446 117 q 599 177 542 117 q 656 333 656 238 q 599 492 656 435 q 446 550 543 550 q 292 492 349 550 q 236 333 236 435 q 293 177 236 238 q 446 117 350 117 z "},"ǒ":{"ha":942,"x_min":106,"x_max":886,"o":"m 215 981 l 392 981 l 497 842 l 603 981 l 778 981 l 575 743 l 419 743 l 215 981 m 496 -21 q 291 22 379 -21 q 154 144 203 64 q 106 333 106 224 q 153 520 106 440 q 290 644 201 600 q 496 688 379 688 q 701 644 613 688 q 838 520 789 600 q 886 333 886 440 q 838 144 886 224 q 701 22 789 64 q 496 -21 613 -21 m 496 117 q 649 177 592 117 q 706 333 706 238 q 649 492 706 435 q 496 550 593 550 q 342 492 399 550 q 286 333 286 435 q 343 177 286 238 q 496 117 400 117 z "},"ô":{"ha":942,"x_min":106,"x_max":886,"o":"m 419 981 l 575 981 l 778 743 l 603 743 l 497 881 l 392 743 l 215 743 l 419 981 m 496 -21 q 291 22 379 -21 q 154 144 203 64 q 106 333 106 224 q 153 520 106 440 q 290 644 201 600 q 496 688 379 688 q 701 644 613 688 q 838 520 789 600 q 886 333 886 440 q 838 144 886 224 q 701 22 789 64 q 496 -21 613 -21 m 496 117 q 649 177 592 117 q 706 333 706 238 q 649 492 706 435 q 496 550 593 550 q 342 492 399 550 q 286 333 286 435 q 343 177 286 238 q 496 117 400 117 z "},"ố":{"ha":892,"x_min":56,"x_max":882,"o":"m 719 1058 l 882 1058 l 775 881 l 635 881 l 719 1058 m 372 954 l 519 954 l 711 743 l 546 743 l 446 860 l 346 743 l 179 743 l 372 954 m 446 -21 q 241 22 329 -21 q 104 144 153 64 q 56 333 56 224 q 103 520 56 440 q 240 644 151 600 q 446 688 329 688 q 651 644 563 688 q 788 520 739 600 q 836 333 836 440 q 788 144 836 224 q 651 22 739 64 q 446 -21 563 -21 m 446 117 q 599 177 542 117 q 656 333 656 238 q 599 492 656 435 q 446 550 543 550 q 292 492 349 550 q 236 333 236 435 q 293 177 236 238 q 446 117 350 117 z "},"ộ":{"ha":892,"x_min":56,"x_max":836,"o":"m 369 981 l 525 981 l 728 743 l 553 743 l 447 881 l 342 743 l 165 743 l 369 981 m 446 -21 q 241 22 329 -21 q 104 144 153 64 q 56 333 56 224 q 103 520 56 440 q 240 644 151 600 q 446 688 329 688 q 651 644 563 688 q 788 520 739 600 q 836 333 836 440 q 788 144 836 224 q 651 22 739 64 q 446 -21 563 -21 m 446 117 q 599 177 542 117 q 656 333 656 238 q 599 492 656 435 q 446 550 543 550 q 292 492 349 550 q 236 333 236 435 q 293 177 236 238 q 446 117 350 117 m 447 -249 q 382 -222 410 -249 q 354 -157 354 -194 q 382 -91 354 -118 q 447 -64 410 -64 q 512 -91 485 -64 q 539 -157 539 -118 q 512 -222 539 -196 q 447 -249 485 -249 z "},"ồ":{"ha":892,"x_min":19,"x_max":836,"o":"m 19 1058 l 182 1058 l 267 881 l 126 881 l 19 1058 m 382 954 l 529 954 l 722 743 l 556 743 l 456 860 l 356 743 l 190 743 l 382 954 m 446 -21 q 241 22 329 -21 q 104 144 153 64 q 56 333 56 224 q 103 520 56 440 q 240 644 151 600 q 446 688 329 688 q 651 644 563 688 q 788 520 739 600 q 836 333 836 440 q 788 144 836 224 q 651 22 739 64 q 446 -21 563 -21 m 446 117 q 599 177 542 117 q 656 333 656 238 q 599 492 656 435 q 446 550 543 550 q 292 492 349 550 q 236 333 236 435 q 293 177 236 238 q 446 117 350 117 z "},"ổ":{"ha":892,"x_min":56,"x_max":836,"o":"m 636 935 q 697 944 678 935 q 715 978 715 954 q 701 1006 715 999 q 657 1014 688 1014 q 600 1003 622 1014 l 600 1071 q 647 1082 619 1078 q 700 1086 675 1086 q 799 1060 763 1086 q 835 989 835 1033 q 811 930 835 954 q 746 899 788 906 l 746 865 l 636 865 l 636 935 m 374 954 l 521 954 l 713 743 l 547 743 l 447 860 l 347 743 l 181 743 l 374 954 m 446 -21 q 241 22 329 -21 q 104 144 153 64 q 56 333 56 224 q 103 520 56 440 q 240 644 151 600 q 446 688 329 688 q 651 644 563 688 q 788 520 739 600 q 836 333 836 440 q 788 144 836 224 q 651 22 739 64 q 446 -21 563 -21 m 446 117 q 599 177 542 117 q 656 333 656 238 q 599 492 656 435 q 446 550 543 550 q 292 492 349 550 q 236 333 236 435 q 293 177 236 238 q 446 117 350 117 z "},"ỗ":{"ha":892,"x_min":56,"x_max":836,"o":"m 554 997 q 503 1006 528 997 q 440 1029 478 1014 q 383 1050 404 1043 q 340 1057 361 1057 q 281 1044 307 1057 q 232 999 256 1031 l 232 1122 q 340 1171 265 1171 q 388 1163 364 1171 q 450 1140 413 1156 q 479 1129 457 1138 q 520 1116 501 1121 q 554 1111 539 1111 q 614 1124 588 1111 q 663 1169 640 1138 l 663 1044 q 554 997 629 997 m 446 743 q 287 799 344 743 q 229 947 229 854 l 357 947 q 380 880 357 903 q 446 857 403 857 q 512 880 489 857 q 535 947 535 903 l 663 947 q 605 799 663 854 q 446 743 547 743 m 446 -21 q 241 22 329 -21 q 104 144 153 64 q 56 333 56 224 q 103 520 56 440 q 240 644 151 600 q 446 688 329 688 q 651 644 563 688 q 788 520 739 600 q 836 333 836 440 q 788 144 836 224 q 651 22 739 64 q 446 -21 563 -21 m 446 117 q 599 177 542 117 q 656 333 656 238 q 599 492 656 435 q 446 550 543 550 q 292 492 349 550 q 236 333 236 435 q 293 177 236 238 q 446 117 350 117 z "},"ö":{"ha":917,"x_min":81,"x_max":861,"o":"m 307 757 q 242 784 269 757 q 214 849 214 811 q 242 915 214 888 q 307 942 269 942 q 372 915 344 942 q 399 849 399 888 q 372 783 399 810 q 307 757 344 757 m 636 757 q 571 784 599 757 q 543 849 543 811 q 571 915 543 888 q 636 942 599 942 q 701 915 674 942 q 728 849 728 888 q 701 783 728 810 q 636 757 674 757 m 471 -21 q 266 22 354 -21 q 129 144 178 64 q 81 333 81 224 q 128 520 81 440 q 265 644 176 600 q 471 688 354 688 q 676 644 588 688 q 813 520 764 600 q 861 333 861 440 q 813 144 861 224 q 676 22 764 64 q 471 -21 588 -21 m 471 117 q 624 177 567 117 q 681 333 681 238 q 624 492 681 435 q 471 550 568 550 q 317 492 374 550 q 261 333 261 435 q 318 177 261 238 q 471 117 375 117 z "},"ọ":{"ha":892,"x_min":56,"x_max":836,"o":"m 446 -21 q 241 22 329 -21 q 104 144 153 64 q 56 333 56 224 q 103 520 56 440 q 240 644 151 600 q 446 688 329 688 q 651 644 563 688 q 788 520 739 600 q 836 333 836 440 q 788 144 836 224 q 651 22 739 64 q 446 -21 563 -21 m 446 117 q 599 177 542 117 q 656 333 656 238 q 599 492 656 435 q 446 550 543 550 q 292 492 349 550 q 236 333 236 435 q 293 177 236 238 q 446 117 350 117 m 447 -249 q 382 -222 410 -249 q 354 -157 354 -194 q 382 -91 354 -118 q 447 -64 410 -64 q 512 -91 485 -64 q 539 -157 539 -118 q 512 -222 539 -196 q 447 -249 485 -249 z "},"ò":{"ha":892,"x_min":56,"x_max":836,"o":"m 268 985 l 453 985 l 549 743 l 388 743 l 268 985 m 446 -21 q 241 22 329 -21 q 104 144 153 64 q 56 333 56 224 q 103 520 56 440 q 240 644 151 600 q 446 688 329 688 q 651 644 563 688 q 788 520 739 600 q 836 333 836 440 q 788 144 836 224 q 651 22 739 64 q 446 -21 563 -21 m 446 117 q 599 177 542 117 q 656 333 656 238 q 599 492 656 435 q 446 550 543 550 q 292 492 349 550 q 236 333 236 435 q 293 177 236 238 q 446 117 350 117 z "},"ỏ":{"ha":892,"x_min":56,"x_max":836,"o":"m 374 846 q 468 861 436 846 q 500 914 500 876 q 480 953 500 942 q 414 965 460 965 q 365 960 396 965 q 322 949 335 954 l 322 1040 q 386 1054 349 1049 q 458 1060 424 1060 q 603 1022 553 1060 q 653 921 653 985 q 619 835 653 869 q 526 790 586 800 l 526 743 l 374 743 l 374 846 m 446 -21 q 241 22 329 -21 q 104 144 153 64 q 56 333 56 224 q 103 520 56 440 q 240 644 151 600 q 446 688 329 688 q 651 644 563 688 q 788 520 739 600 q 836 333 836 440 q 788 144 836 224 q 651 22 739 64 q 446 -21 563 -21 m 446 117 q 599 177 542 117 q 656 333 656 238 q 599 492 656 435 q 446 550 543 550 q 292 492 349 550 q 236 333 236 435 q 293 177 236 238 q 446 117 350 117 z "},"ơ":{"ha":958,"x_min":56,"x_max":944,"o":"m 446 -21 q 241 22 329 -21 q 104 144 153 64 q 56 333 56 224 q 103 520 56 440 q 240 644 151 600 q 446 688 329 688 q 708 608 603 688 q 803 726 803 625 l 803 775 l 944 775 l 944 717 q 905 586 944 643 q 796 504 865 529 q 836 333 836 426 q 788 144 836 224 q 651 22 739 64 q 446 -21 563 -21 m 446 117 q 599 177 542 117 q 656 333 656 238 q 599 492 656 435 q 446 550 543 550 q 292 492 349 550 q 236 333 236 435 q 293 177 236 238 q 446 117 350 117 z "},"ớ":{"ha":958,"x_min":56,"x_max":944,"o":"m 450 985 l 635 985 l 515 743 l 354 743 l 450 985 m 446 -21 q 241 22 329 -21 q 104 144 153 64 q 56 333 56 224 q 103 520 56 440 q 240 644 151 600 q 446 688 329 688 q 708 608 603 688 q 803 726 803 625 l 803 775 l 944 775 l 944 717 q 905 586 944 643 q 796 504 865 529 q 836 333 836 426 q 788 144 836 224 q 651 22 739 64 q 446 -21 563 -21 m 446 117 q 599 177 542 117 q 656 333 656 238 q 599 492 656 435 q 446 550 543 550 q 292 492 349 550 q 236 333 236 435 q 293 177 236 238 q 446 117 350 117 z "},"ợ":{"ha":958,"x_min":56,"x_max":944,"o":"m 446 -21 q 241 22 329 -21 q 104 144 153 64 q 56 333 56 224 q 103 520 56 440 q 240 644 151 600 q 446 688 329 688 q 708 608 603 688 q 803 726 803 625 l 803 775 l 944 775 l 944 717 q 905 586 944 643 q 796 504 865 529 q 836 333 836 426 q 788 144 836 224 q 651 22 739 64 q 446 -21 563 -21 m 446 117 q 599 177 542 117 q 656 333 656 238 q 599 492 656 435 q 446 550 543 550 q 292 492 349 550 q 236 333 236 435 q 293 177 236 238 q 446 117 350 117 m 439 -249 q 374 -222 401 -249 q 346 -157 346 -194 q 374 -91 346 -118 q 439 -64 401 -64 q 503 -91 476 -64 q 531 -157 531 -118 q 503 -222 531 -196 q 439 -249 476 -249 z "},"ờ":{"ha":958,"x_min":56,"x_max":944,"o":"m 239 985 l 424 985 l 519 743 l 358 743 l 239 985 m 446 -21 q 241 22 329 -21 q 104 144 153 64 q 56 333 56 224 q 103 520 56 440 q 240 644 151 600 q 446 688 329 688 q 708 608 603 688 q 803 726 803 625 l 803 775 l 944 775 l 944 717 q 905 586 944 643 q 796 504 865 529 q 836 333 836 426 q 788 144 836 224 q 651 22 739 64 q 446 -21 563 -21 m 446 117 q 599 177 542 117 q 656 333 656 238 q 599 492 656 435 q 446 550 543 550 q 292 492 349 550 q 236 333 236 435 q 293 177 236 238 q 446 117 350 117 z "},"ở":{"ha":958,"x_min":56,"x_max":944,"o":"m 354 846 q 449 861 417 846 q 481 914 481 876 q 460 953 481 942 q 394 965 440 965 q 346 960 376 965 q 303 949 315 954 l 303 1040 q 367 1054 329 1049 q 439 1060 404 1060 q 583 1022 533 1060 q 633 921 633 985 q 600 835 633 869 q 507 790 567 800 l 507 743 l 354 743 l 354 846 m 446 -21 q 241 22 329 -21 q 104 144 153 64 q 56 333 56 224 q 103 520 56 440 q 240 644 151 600 q 446 688 329 688 q 708 608 603 688 q 803 726 803 625 l 803 775 l 944 775 l 944 717 q 905 586 944 643 q 796 504 865 529 q 836 333 836 426 q 788 144 836 224 q 651 22 739 64 q 446 -21 563 -21 m 446 117 q 599 177 542 117 q 656 333 656 238 q 599 492 656 435 q 446 550 543 550 q 292 492 349 550 q 236 333 236 435 q 293 177 236 238 q 446 117 350 117 z "},"ỡ":{"ha":958,"x_min":56,"x_max":944,"o":"m 169 904 q 308 964 214 964 q 368 956 339 964 q 443 929 397 947 q 511 903 482 913 q 571 894 540 894 q 710 965 657 894 l 710 822 q 571 764 667 764 q 504 773 536 764 q 431 800 472 782 q 363 825 389 817 q 308 833 338 833 q 234 817 268 833 q 169 761 200 800 l 169 904 m 446 -21 q 241 22 329 -21 q 104 144 153 64 q 56 333 56 224 q 103 520 56 440 q 240 644 151 600 q 446 688 329 688 q 708 608 603 688 q 803 726 803 625 l 803 775 l 944 775 l 944 717 q 905 586 944 643 q 796 504 865 529 q 836 333 836 426 q 788 144 836 224 q 651 22 739 64 q 446 -21 563 -21 m 446 117 q 599 177 542 117 q 656 333 656 238 q 599 492 656 435 q 446 550 543 550 q 292 492 349 550 q 236 333 236 435 q 293 177 236 238 q 446 117 350 117 z "},"ő":{"ha":918,"x_min":82,"x_max":863,"o":"m 325 985 l 496 985 l 376 743 l 229 743 l 325 985 m 636 985 l 806 985 l 686 743 l 539 743 l 636 985 m 472 -21 q 267 22 356 -21 q 131 144 179 64 q 82 333 82 224 q 130 520 82 440 q 267 644 178 600 q 472 688 356 688 q 677 644 589 688 q 814 520 765 600 q 863 333 863 440 q 814 144 863 224 q 677 22 765 64 q 472 -21 589 -21 m 472 117 q 625 177 568 117 q 682 333 682 238 q 626 492 682 435 q 472 550 569 550 q 319 492 375 550 q 263 333 263 435 q 319 177 263 238 q 472 117 376 117 z "},"ō":{"ha":892,"x_min":56,"x_max":836,"o":"m 222 874 l 671 874 l 671 757 l 222 757 l 222 874 m 446 -21 q 241 22 329 -21 q 104 144 153 64 q 56 333 56 224 q 103 520 56 440 q 240 644 151 600 q 446 688 329 688 q 651 644 563 688 q 788 520 739 600 q 836 333 836 440 q 788 144 836 224 q 651 22 739 64 q 446 -21 563 -21 m 446 117 q 599 177 542 117 q 656 333 656 238 q 599 492 656 435 q 446 550 543 550 q 292 492 349 550 q 236 333 236 435 q 293 177 236 238 q 446 117 350 117 z "},"ø":{"ha":892,"x_min":56,"x_max":836,"o":"m 232 25 q 101 147 147 68 q 56 333 56 226 q 103 520 56 440 q 240 644 151 600 q 446 688 329 688 q 497 685 464 688 l 538 786 l 710 786 l 651 643 q 788 519 739 600 q 836 333 836 439 q 788 144 836 224 q 651 22 739 64 q 446 -21 563 -21 q 386 -18 425 -21 l 346 -119 l 174 -119 l 232 25 m 443 550 q 292 491 347 549 q 236 333 236 433 q 293 176 236 236 l 443 550 m 446 117 q 599 177 542 117 q 656 333 656 238 q 593 497 656 439 l 440 117 l 446 117 z "},"ǿ":{"ha":892,"x_min":56,"x_max":836,"o":"m 404 985 l 589 985 l 469 743 l 308 743 l 404 985 m 232 25 q 101 147 147 68 q 56 333 56 226 q 103 520 56 440 q 240 644 151 600 q 446 688 329 688 q 497 685 464 688 l 538 786 l 710 786 l 651 643 q 788 519 739 600 q 836 333 836 439 q 788 144 836 224 q 651 22 739 64 q 446 -21 563 -21 q 386 -18 425 -21 l 346 -119 l 174 -119 l 232 25 m 443 550 q 292 491 347 549 q 236 333 236 433 q 293 176 236 236 l 443 550 m 446 117 q 599 177 542 117 q 656 333 656 238 q 593 497 656 439 l 440 117 l 446 117 z "},"õ":{"ha":931,"x_min":94,"x_max":875,"o":"m 215 904 q 354 964 260 964 q 414 956 385 964 q 489 929 443 947 q 557 903 528 913 q 617 894 586 894 q 756 965 703 894 l 756 822 q 617 764 713 764 q 550 773 582 764 q 476 800 518 782 q 409 825 435 817 q 354 833 383 833 q 280 817 314 833 q 215 761 246 800 l 215 904 m 485 -21 q 280 22 368 -21 q 143 144 192 64 q 94 333 94 224 q 142 520 94 440 q 279 644 190 600 q 485 688 368 688 q 690 644 601 688 q 826 520 778 600 q 875 333 875 440 q 826 144 875 224 q 690 22 778 64 q 485 -21 601 -21 m 485 117 q 638 177 581 117 q 694 333 694 238 q 638 492 694 435 q 485 550 582 550 q 331 492 388 550 q 275 333 275 435 q 332 177 275 238 q 485 117 389 117 z "},"œ":{"ha":1429,"x_min":56,"x_max":1374,"o":"m 831 265 q 819 217 825 232 q 1064 117 868 117 q 1194 128 1128 117 q 1311 158 1261 139 l 1311 24 q 1190 -8 1264 4 q 1042 -21 1115 -21 q 738 81 846 -21 q 612 6 686 32 q 446 -21 538 -21 q 241 22 329 -21 q 104 144 153 64 q 56 333 56 224 q 103 520 56 440 q 240 644 151 600 q 446 688 329 688 q 608 662 535 688 q 732 589 681 636 q 1008 688 831 688 q 1208 643 1125 688 q 1332 522 1290 599 q 1374 346 1374 444 l 1374 265 l 831 265 m 446 117 q 573 155 521 117 q 644 258 625 193 q 639 332 639 290 q 646 411 639 369 q 574 514 626 478 q 446 550 522 550 q 292 492 349 550 q 236 333 236 435 q 293 177 236 238 q 446 117 350 117 m 1006 550 q 887 524 935 550 q 819 449 839 497 q 833 385 831 407 l 1208 385 q 1152 507 1206 464 q 1006 550 1099 550 z "},"p":{"ha":924,"x_min":83,"x_max":868,"o":"m 83 667 l 253 667 l 253 586 q 371 663 307 638 q 517 688 435 688 q 698 644 618 688 q 823 520 778 600 q 868 335 868 440 q 823 150 868 231 q 698 24 778 69 q 517 -21 618 -21 q 373 1 440 -21 q 258 65 306 22 l 258 -304 l 83 -304 l 83 667 m 474 117 q 629 178 568 117 q 690 335 690 239 q 629 490 690 431 q 474 550 568 550 q 340 510 399 550 q 258 401 282 469 l 258 267 q 340 158 281 199 q 474 117 399 117 z "},"þ":{"ha":924,"x_min":83,"x_max":868,"o":"m 83 971 l 258 971 l 258 601 q 373 666 306 644 q 517 688 440 688 q 698 644 618 688 q 823 520 778 600 q 868 335 868 440 q 823 150 868 231 q 698 24 778 69 q 517 -21 618 -21 q 373 1 440 -21 q 258 65 306 22 l 258 -304 l 83 -304 l 83 971 m 474 117 q 629 178 568 117 q 690 335 690 239 q 629 490 690 431 q 474 550 568 550 q 340 510 399 550 q 258 401 282 469 l 258 267 q 340 158 281 199 q 474 117 399 117 z "},"q":{"ha":924,"x_min":56,"x_max":840,"o":"m 665 65 q 551 1 618 22 q 407 -21 483 -21 q 226 24 306 -21 q 101 150 146 69 q 56 335 56 231 q 101 520 56 440 q 226 644 146 600 q 407 688 306 688 q 553 663 489 688 q 671 586 617 638 l 671 667 l 840 667 l 840 -304 l 665 -304 l 665 65 m 450 117 q 584 158 525 117 q 665 267 643 199 l 665 401 q 583 510 642 469 q 450 550 525 550 q 294 490 356 550 q 233 335 233 431 q 294 178 233 239 q 450 117 356 117 z "},"r":{"ha":565,"x_min":83,"x_max":538,"o":"m 83 667 l 253 667 l 253 560 q 367 640 293 614 q 538 667 442 667 l 538 533 q 362 502 436 533 q 258 404 288 471 l 258 0 l 83 0 l 83 667 z "},"ŕ":{"ha":565,"x_min":83,"x_max":538,"o":"m 188 985 l 372 985 l 253 743 l 92 743 l 188 985 m 83 667 l 253 667 l 253 560 q 367 640 293 614 q 538 667 442 667 l 538 533 q 362 502 436 533 q 258 404 288 471 l 258 0 l 83 0 l 83 667 z "},"ř":{"ha":681,"x_min":26,"x_max":653,"o":"m 26 981 l 203 981 l 308 842 l 414 981 l 589 981 l 386 743 l 231 743 l 26 981 m 199 667 l 368 667 l 368 560 q 483 640 408 614 q 653 667 557 667 l 653 533 q 477 502 551 533 q 374 404 403 471 l 374 0 l 199 0 l 199 667 z "},"ŗ":{"ha":565,"x_min":-36,"x_max":538,"o":"m 83 667 l 253 667 l 253 560 q 367 640 293 614 q 538 667 442 667 l 538 533 q 362 502 436 533 q 258 404 288 471 l 258 0 l 83 0 l 83 667 m 78 -78 l 260 -78 l 124 -360 l -36 -360 l 78 -78 z "},"ṛ":{"ha":565,"x_min":68,"x_max":538,"o":"m 83 667 l 253 667 l 253 560 q 367 640 293 614 q 538 667 442 667 l 538 533 q 362 502 436 533 q 258 404 288 471 l 258 0 l 83 0 l 83 667 m 161 -249 q 96 -222 124 -249 q 68 -157 68 -194 q 96 -91 68 -118 q 161 -64 124 -64 q 226 -91 199 -64 q 253 -157 253 -118 q 226 -222 253 -196 q 161 -249 199 -249 z "},"ṝ":{"ha":603,"x_min":97,"x_max":575,"o":"m 97 874 l 546 874 l 546 757 l 97 757 l 97 874 m 121 667 l 290 667 l 290 560 q 405 640 331 614 q 575 667 479 667 l 575 533 q 399 502 474 533 q 296 404 325 471 l 296 0 l 121 0 l 121 667 m 203 -249 q 138 -222 165 -249 q 110 -157 110 -194 q 138 -91 110 -118 q 203 -64 165 -64 q 267 -91 240 -64 q 294 -157 294 -118 q 267 -222 294 -196 q 203 -249 240 -249 z "},"ṟ":{"ha":565,"x_min":24,"x_max":538,"o":"m 83 667 l 253 667 l 253 560 q 367 640 293 614 q 538 667 442 667 l 538 533 q 362 502 436 533 q 258 404 288 471 l 258 0 l 83 0 l 83 667 m 24 -94 l 472 -94 l 472 -210 l 24 -210 l 24 -94 z "},"s":{"ha":693,"x_min":56,"x_max":638,"o":"m 343 -21 q 189 -4 271 -21 q 61 42 107 13 l 61 190 q 190 137 115 157 q 332 117 265 117 q 429 128 399 117 q 460 172 460 140 q 444 213 460 197 q 392 242 428 229 q 283 275 357 256 q 152 324 200 299 q 80 387 104 349 q 56 486 56 425 q 135 637 56 586 q 349 688 214 688 q 487 674 418 688 q 594 638 556 661 l 594 494 q 493 535 553 519 q 371 550 433 550 q 268 537 303 550 q 233 486 233 524 q 252 447 233 461 q 301 422 271 432 q 413 390 332 411 q 547 339 499 367 q 617 272 596 311 q 638 175 638 233 q 562 33 638 86 q 343 -21 486 -21 z "},"ś":{"ha":693,"x_min":56,"x_max":638,"o":"m 324 985 l 508 985 l 389 743 l 228 743 l 324 985 m 343 -21 q 189 -4 271 -21 q 61 42 107 13 l 61 190 q 190 137 115 157 q 332 117 265 117 q 429 128 399 117 q 460 172 460 140 q 444 213 460 197 q 392 242 428 229 q 283 275 357 256 q 152 324 200 299 q 80 387 104 349 q 56 486 56 425 q 135 637 56 586 q 349 688 214 688 q 487 674 418 688 q 594 638 556 661 l 594 494 q 493 535 553 519 q 371 550 433 550 q 268 537 303 550 q 233 486 233 524 q 252 447 233 461 q 301 422 271 432 q 413 390 332 411 q 547 339 499 367 q 617 272 596 311 q 638 175 638 233 q 562 33 638 86 q 343 -21 486 -21 z "},"š":{"ha":693,"x_min":56,"x_max":638,"o":"m 61 981 l 238 981 l 343 842 l 449 981 l 624 981 l 421 743 l 265 743 l 61 981 m 343 -21 q 189 -4 271 -21 q 61 42 107 13 l 61 190 q 190 137 115 157 q 332 117 265 117 q 429 128 399 117 q 460 172 460 140 q 444 213 460 197 q 392 242 428 229 q 283 275 357 256 q 152 324 200 299 q 80 387 104 349 q 56 486 56 425 q 135 637 56 586 q 349 688 214 688 q 487 674 418 688 q 594 638 556 661 l 594 494 q 493 535 553 519 q 371 550 433 550 q 268 537 303 550 q 233 486 233 524 q 252 447 233 461 q 301 422 271 432 q 413 390 332 411 q 547 339 499 367 q 617 272 596 311 q 638 175 638 233 q 562 33 638 86 q 343 -21 486 -21 z "},"ş":{"ha":693,"x_min":56,"x_max":638,"o":"m 638 175 q 576 42 638 94 q 394 -19 514 -10 l 374 -72 q 466 -116 433 -79 q 499 -208 499 -153 q 444 -309 499 -274 q 299 -344 390 -344 q 226 -340 261 -344 q 172 -328 192 -335 l 174 -232 q 211 -244 189 -239 q 254 -249 233 -249 q 336 -192 336 -249 q 303 -138 336 -158 q 199 -118 271 -118 l 239 -12 q 61 42 122 4 l 61 190 q 190 137 115 157 q 332 117 265 117 q 429 128 399 117 q 460 172 460 140 q 444 213 460 197 q 392 242 428 229 q 283 275 357 256 q 152 324 200 299 q 80 387 104 349 q 56 486 56 425 q 135 637 56 586 q 349 688 214 688 q 487 674 418 688 q 594 638 556 661 l 594 494 q 493 535 553 519 q 371 550 433 550 q 268 537 303 550 q 233 486 233 524 q 252 447 233 461 q 301 422 271 432 q 413 390 332 411 q 547 339 499 367 q 617 272 596 311 q 638 175 638 233 z "},"ŝ":{"ha":693,"x_min":56,"x_max":638,"o":"m 271 981 l 426 981 l 629 743 l 454 743 l 349 881 l 243 743 l 67 743 l 271 981 m 343 -21 q 189 -4 271 -21 q 61 42 107 13 l 61 190 q 190 137 115 157 q 332 117 265 117 q 429 128 399 117 q 460 172 460 140 q 444 213 460 197 q 392 242 428 229 q 283 275 357 256 q 152 324 200 299 q 80 387 104 349 q 56 486 56 425 q 135 637 56 586 q 349 688 214 688 q 487 674 418 688 q 594 638 556 661 l 594 494 q 493 535 553 519 q 371 550 433 550 q 268 537 303 550 q 233 486 233 524 q 252 447 233 461 q 301 422 271 432 q 413 390 332 411 q 547 339 499 367 q 617 272 596 311 q 638 175 638 233 q 562 33 638 86 q 343 -21 486 -21 z "},"ș":{"ha":693,"x_min":56,"x_max":638,"o":"m 343 -21 q 189 -4 271 -21 q 61 42 107 13 l 61 190 q 190 137 115 157 q 332 117 265 117 q 429 128 399 117 q 460 172 460 140 q 444 213 460 197 q 392 242 428 229 q 283 275 357 256 q 152 324 200 299 q 80 387 104 349 q 56 486 56 425 q 135 637 56 586 q 349 688 214 688 q 487 674 418 688 q 594 638 556 661 l 594 494 q 493 535 553 519 q 371 550 433 550 q 268 537 303 550 q 233 486 233 524 q 252 447 233 461 q 301 422 271 432 q 413 390 332 411 q 547 339 499 367 q 617 272 596 311 q 638 175 638 233 q 562 33 638 86 q 343 -21 486 -21 m 256 -78 l 438 -78 l 301 -360 l 142 -360 l 256 -78 z "},"ṡ":{"ha":693,"x_min":56,"x_max":638,"o":"m 343 757 q 278 784 306 757 q 250 849 250 811 q 278 915 250 888 q 343 942 306 942 q 408 915 381 942 q 435 849 435 888 q 408 783 435 810 q 343 757 381 757 m 343 -21 q 189 -4 271 -21 q 61 42 107 13 l 61 190 q 190 137 115 157 q 332 117 265 117 q 429 128 399 117 q 460 172 460 140 q 444 213 460 197 q 392 242 428 229 q 283 275 357 256 q 152 324 200 299 q 80 387 104 349 q 56 486 56 425 q 135 637 56 586 q 349 688 214 688 q 487 674 418 688 q 594 638 556 661 l 594 494 q 493 535 553 519 q 371 550 433 550 q 268 537 303 550 q 233 486 233 524 q 252 447 233 461 q 301 422 271 432 q 413 390 332 411 q 547 339 499 367 q 617 272 596 311 q 638 175 638 233 q 562 33 638 86 q 343 -21 486 -21 z "},"ṣ":{"ha":693,"x_min":56,"x_max":638,"o":"m 343 -21 q 189 -4 271 -21 q 61 42 107 13 l 61 190 q 190 137 115 157 q 332 117 265 117 q 429 128 399 117 q 460 172 460 140 q 444 213 460 197 q 392 242 428 229 q 283 275 357 256 q 152 324 200 299 q 80 387 104 349 q 56 486 56 425 q 135 637 56 586 q 349 688 214 688 q 487 674 418 688 q 594 638 556 661 l 594 494 q 493 535 553 519 q 371 550 433 550 q 268 537 303 550 q 233 486 233 524 q 252 447 233 461 q 301 422 271 432 q 413 390 332 411 q 547 339 499 367 q 617 272 596 311 q 638 175 638 233 q 562 33 638 86 q 343 -21 486 -21 m 339 -249 q 274 -222 301 -249 q 246 -157 246 -194 q 274 -91 246 -118 q 339 -64 301 -64 q 403 -91 376 -64 q 431 -157 431 -118 q 403 -222 431 -196 q 339 -249 376 -249 z "},"ß":{"ha":900,"x_min":76,"x_max":844,"o":"m 528 -21 q 347 6 410 -21 l 347 168 q 499 139 404 139 q 621 185 576 139 q 665 306 665 231 q 619 416 665 382 q 481 450 572 450 l 401 450 l 401 597 l 464 597 q 597 733 597 597 q 553 833 597 796 q 435 871 510 871 q 253 703 253 871 l 253 0 l 76 0 l 76 692 q 167 942 76 851 q 433 1033 257 1033 q 626 991 549 1033 q 740 880 703 949 q 776 733 776 811 q 747 611 776 667 q 661 529 717 556 q 799 440 753 503 q 844 281 844 376 q 763 60 844 142 q 528 -21 681 -21 z "},"ə":{"ha":846,"x_min":56,"x_max":790,"o":"m 421 -21 q 222 24 304 -21 q 97 145 139 68 q 56 321 56 222 l 56 401 l 624 401 q 365 550 606 550 q 235 539 301 550 q 118 508 168 528 l 118 643 q 240 675 165 663 q 388 688 314 688 q 682 594 574 688 q 790 335 790 501 q 694 75 790 171 q 421 -21 599 -21 m 424 117 q 568 161 515 117 q 624 282 621 206 l 221 282 q 277 160 224 203 q 424 117 331 117 z "},"t":{"ha":539,"x_min":28,"x_max":497,"o":"m 351 -21 q 185 40 242 -21 q 128 213 128 101 l 128 533 l 28 533 l 28 667 l 128 667 l 128 867 l 303 867 l 303 667 l 463 667 l 463 533 l 303 533 l 303 235 q 326 144 303 171 q 413 117 350 117 q 497 136 456 117 l 497 3 q 351 -21 438 -21 z "},"ŧ":{"ha":540,"x_min":28,"x_max":499,"o":"m 353 -21 q 187 40 244 -21 q 129 213 129 101 l 129 310 l 28 310 l 28 408 l 129 408 l 129 547 l 29 547 l 29 667 l 129 667 l 129 867 l 304 867 l 304 667 l 465 667 l 465 547 l 304 547 l 304 408 l 464 408 l 464 310 l 304 310 l 304 235 q 331 144 304 172 q 415 117 357 117 q 499 136 460 117 l 499 3 q 353 -21 439 -21 z "},"ť":{"ha":682,"x_min":28,"x_max":668,"o":"m 486 1094 l 668 1094 l 532 813 l 372 813 l 486 1094 m 351 -21 q 185 40 242 -21 q 128 213 128 101 l 128 533 l 28 533 l 28 667 l 128 667 l 128 867 l 303 867 l 303 667 l 463 667 l 463 533 l 303 533 l 303 235 q 326 144 303 171 q 413 117 350 117 q 497 136 456 117 l 497 3 q 351 -21 438 -21 z "},"ţ":{"ha":549,"x_min":28,"x_max":507,"o":"m 382 -72 q 474 -116 442 -79 q 507 -208 507 -153 q 453 -309 507 -274 q 307 -344 399 -344 q 235 -340 269 -344 q 181 -328 200 -335 l 182 -232 q 219 -244 197 -239 q 263 -249 242 -249 q 344 -192 344 -249 q 312 -138 344 -158 q 207 -118 279 -118 l 251 -4 q 159 74 190 19 q 128 213 128 129 l 128 533 l 28 533 l 28 667 l 128 667 l 128 867 l 303 867 l 303 667 l 463 667 l 463 533 l 303 533 l 303 235 q 326 144 303 171 q 413 117 350 117 q 497 136 456 117 l 497 3 q 403 -19 457 -14 l 382 -72 z "},"ț":{"ha":539,"x_min":28,"x_max":497,"o":"m 351 -21 q 185 40 242 -21 q 128 213 128 101 l 128 533 l 28 533 l 28 667 l 128 667 l 128 867 l 303 867 l 303 667 l 463 667 l 463 533 l 303 533 l 303 235 q 326 144 303 171 q 413 117 350 117 q 497 136 456 117 l 497 3 q 351 -21 438 -21 m 247 -78 l 429 -78 l 293 -360 l 133 -360 l 247 -78 z "},"ẗ":{"ha":539,"x_min":-36,"x_max":497,"o":"m 57 921 q -8 948 19 921 q -36 1013 -36 975 q -8 1078 -36 1051 q 57 1106 19 1106 q 122 1078 94 1106 q 149 1013 149 1051 q 122 947 149 974 q 57 921 94 921 m 386 921 q 321 948 349 921 q 293 1013 293 975 q 321 1078 293 1051 q 386 1106 349 1106 q 451 1078 424 1106 q 478 1013 478 1051 q 451 947 478 974 q 386 921 424 921 m 351 -21 q 185 40 242 -21 q 128 213 128 101 l 128 533 l 28 533 l 28 667 l 128 667 l 128 867 l 303 867 l 303 667 l 463 667 l 463 533 l 303 533 l 303 235 q 326 144 303 171 q 413 117 350 117 q 497 136 456 117 l 497 3 q 351 -21 438 -21 z "},"ṭ":{"ha":539,"x_min":28,"x_max":497,"o":"m 351 -21 q 185 40 242 -21 q 128 213 128 101 l 128 533 l 28 533 l 28 667 l 128 667 l 128 867 l 303 867 l 303 667 l 463 667 l 463 533 l 303 533 l 303 235 q 326 144 303 171 q 413 117 350 117 q 497 136 456 117 l 497 3 q 351 -21 438 -21 m 319 -249 q 254 -222 282 -249 q 226 -157 226 -194 q 254 -91 226 -118 q 319 -64 282 -64 q 384 -91 357 -64 q 411 -157 411 -118 q 384 -222 411 -196 q 319 -249 357 -249 z "},"ṯ":{"ha":554,"x_min":42,"x_max":513,"o":"m 365 -21 q 199 40 256 -21 q 142 213 142 101 l 142 533 l 42 533 l 42 667 l 142 667 l 142 867 l 317 867 l 317 667 l 476 667 l 476 533 l 317 533 l 317 235 q 340 144 317 171 q 426 117 364 117 q 511 136 469 117 l 511 3 q 365 -21 451 -21 m 64 -94 l 513 -94 l 513 -210 l 64 -210 l 64 -94 z "},"u":{"ha":847,"x_min":76,"x_max":764,"o":"m 344 -21 q 143 52 210 -21 q 76 246 76 125 l 76 667 l 251 667 l 251 263 q 388 117 251 117 q 500 145 447 117 q 589 231 553 174 l 589 667 l 764 667 l 764 0 l 594 0 l 594 90 q 482 6 547 33 q 344 -21 417 -21 z "},"ú":{"ha":847,"x_min":76,"x_max":764,"o":"m 424 985 l 608 985 l 489 743 l 328 743 l 424 985 m 344 -21 q 143 52 210 -21 q 76 246 76 125 l 76 667 l 251 667 l 251 263 q 388 117 251 117 q 500 145 447 117 q 589 231 553 174 l 589 667 l 764 667 l 764 0 l 594 0 l 594 90 q 482 6 547 33 q 344 -21 417 -21 z "},"ŭ":{"ha":847,"x_min":76,"x_max":764,"o":"m 418 743 q 254 801 314 743 q 194 953 194 858 l 326 953 q 350 883 326 907 q 418 860 374 860 q 486 883 463 860 q 510 953 510 907 l 642 953 q 582 801 642 858 q 418 743 522 743 m 344 -21 q 143 52 210 -21 q 76 246 76 125 l 76 667 l 251 667 l 251 263 q 388 117 251 117 q 500 145 447 117 q 589 231 553 174 l 589 667 l 764 667 l 764 0 l 594 0 l 594 90 q 482 6 547 33 q 344 -21 417 -21 z "},"ǔ":{"ha":847,"x_min":76,"x_max":764,"o":"m 139 981 l 315 981 l 421 842 l 526 981 l 701 981 l 499 743 l 343 743 l 139 981 m 344 -21 q 143 52 210 -21 q 76 246 76 125 l 76 667 l 251 667 l 251 263 q 388 117 251 117 q 500 145 447 117 q 589 231 553 174 l 589 667 l 764 667 l 764 0 l 594 0 l 594 90 q 482 6 547 33 q 344 -21 417 -21 z "},"û":{"ha":847,"x_min":76,"x_max":764,"o":"m 336 981 l 492 981 l 694 743 l 519 743 l 414 881 l 308 743 l 132 743 l 336 981 m 344 -21 q 143 52 210 -21 q 76 246 76 125 l 76 667 l 251 667 l 251 263 q 388 117 251 117 q 500 145 447 117 q 589 231 553 174 l 589 667 l 764 667 l 764 0 l 594 0 l 594 90 q 482 6 547 33 q 344 -21 417 -21 z "},"ü":{"ha":847,"x_min":76,"x_max":764,"o":"m 251 757 q 186 784 214 757 q 158 849 158 811 q 186 915 158 888 q 251 942 214 942 q 316 915 289 942 q 343 849 343 888 q 316 783 343 810 q 251 757 289 757 m 581 757 q 515 784 543 757 q 488 849 488 811 q 515 915 488 888 q 581 942 543 942 q 645 915 618 942 q 672 849 672 888 q 645 783 672 810 q 581 757 618 757 m 344 -21 q 143 52 210 -21 q 76 246 76 125 l 76 667 l 251 667 l 251 263 q 388 117 251 117 q 500 145 447 117 q 589 231 553 174 l 589 667 l 764 667 l 764 0 l 594 0 l 594 90 q 482 6 547 33 q 344 -21 417 -21 z "},"ǘ":{"ha":847,"x_min":76,"x_max":764,"o":"m 424 1090 l 586 1090 l 479 913 l 339 913 l 424 1090 m 233 757 q 168 784 196 757 q 140 849 140 811 q 168 915 140 888 q 233 942 196 942 q 298 915 271 942 q 325 849 325 888 q 298 783 325 810 q 233 757 271 757 m 590 757 q 525 784 553 757 q 497 849 497 811 q 525 915 497 888 q 590 942 553 942 q 655 915 628 942 q 682 849 682 888 q 655 783 682 810 q 590 757 628 757 m 344 -21 q 143 52 210 -21 q 76 246 76 125 l 76 667 l 251 667 l 251 263 q 388 117 251 117 q 500 145 447 117 q 589 231 553 174 l 589 667 l 764 667 l 764 0 l 594 0 l 594 90 q 482 6 547 33 q 344 -21 417 -21 z "},"ǚ":{"ha":847,"x_min":76,"x_max":764,"o":"m 168 1101 l 315 1101 l 404 997 l 493 1101 l 642 1101 l 469 913 l 339 913 l 168 1101 m 225 757 q 160 783 188 757 q 133 849 133 810 q 160 915 133 888 q 225 942 188 942 q 290 915 263 942 q 318 849 318 888 q 290 784 318 811 q 225 757 263 757 m 582 757 q 517 783 544 757 q 490 849 490 810 q 517 915 490 888 q 582 942 544 942 q 647 915 619 942 q 675 849 675 888 q 647 784 675 811 q 582 757 619 757 m 344 -21 q 143 52 210 -21 q 76 246 76 125 l 76 667 l 251 667 l 251 263 q 388 117 251 117 q 500 145 447 117 q 589 231 553 174 l 589 667 l 764 667 l 764 0 l 594 0 l 594 90 q 482 6 547 33 q 344 -21 417 -21 z "},"ǜ":{"ha":847,"x_min":76,"x_max":764,"o":"m 243 1090 l 406 1090 l 490 913 l 350 913 l 243 1090 m 239 757 q 174 783 201 757 q 147 849 147 810 q 174 915 147 888 q 239 942 201 942 q 304 915 276 942 q 332 849 332 888 q 304 784 332 811 q 239 757 276 757 m 596 757 q 531 783 558 757 q 504 849 504 810 q 531 915 504 888 q 596 942 558 942 q 661 915 633 942 q 689 849 689 888 q 661 784 689 811 q 596 757 633 757 m 344 -21 q 143 52 210 -21 q 76 246 76 125 l 76 667 l 251 667 l 251 263 q 388 117 251 117 q 500 145 447 117 q 589 231 553 174 l 589 667 l 764 667 l 764 0 l 594 0 l 594 90 q 482 6 547 33 q 344 -21 417 -21 z "},"ǖ":{"ha":847,"x_min":76,"x_max":764,"o":"m 197 1122 l 646 1122 l 646 1006 l 197 1006 l 197 1122 m 257 757 q 192 784 219 757 q 164 849 164 811 q 192 915 164 888 q 257 942 219 942 q 322 915 294 942 q 349 849 349 888 q 322 783 349 810 q 257 757 294 757 m 586 757 q 521 784 549 757 q 493 849 493 811 q 521 915 493 888 q 586 942 549 942 q 651 915 624 942 q 678 849 678 888 q 651 783 678 810 q 586 757 624 757 m 344 -21 q 143 52 210 -21 q 76 246 76 125 l 76 667 l 251 667 l 251 263 q 388 117 251 117 q 500 145 447 117 q 589 231 553 174 l 589 667 l 764 667 l 764 0 l 594 0 l 594 90 q 482 6 547 33 q 344 -21 417 -21 z "},"ụ":{"ha":847,"x_min":76,"x_max":764,"o":"m 344 -21 q 143 52 210 -21 q 76 246 76 125 l 76 667 l 251 667 l 251 263 q 388 117 251 117 q 500 145 447 117 q 589 231 553 174 l 589 667 l 764 667 l 764 0 l 594 0 l 594 90 q 482 6 547 33 q 344 -21 417 -21 m 415 -249 q 350 -222 378 -249 q 322 -157 322 -194 q 350 -91 322 -118 q 415 -64 378 -64 q 480 -91 453 -64 q 507 -157 507 -118 q 480 -222 507 -196 q 415 -249 453 -249 z "},"ù":{"ha":847,"x_min":76,"x_max":764,"o":"m 231 985 l 415 985 l 511 743 l 350 743 l 231 985 m 344 -21 q 143 52 210 -21 q 76 246 76 125 l 76 667 l 251 667 l 251 263 q 388 117 251 117 q 500 145 447 117 q 589 231 553 174 l 589 667 l 764 667 l 764 0 l 594 0 l 594 90 q 482 6 547 33 q 344 -21 417 -21 z "},"ủ":{"ha":847,"x_min":76,"x_max":764,"o":"m 329 846 q 424 861 392 846 q 456 914 456 876 q 435 953 456 942 q 369 965 415 965 q 321 960 351 965 q 278 949 290 954 l 278 1040 q 342 1054 304 1049 q 414 1060 379 1060 q 558 1022 508 1060 q 608 921 608 985 q 575 835 608 869 q 482 790 542 800 l 482 743 l 329 743 l 329 846 m 344 -21 q 143 52 210 -21 q 76 246 76 125 l 76 667 l 251 667 l 251 263 q 388 117 251 117 q 500 145 447 117 q 589 231 553 174 l 589 667 l 764 667 l 764 0 l 594 0 l 594 90 q 482 6 547 33 q 344 -21 417 -21 z "},"ư":{"ha":1025,"x_min":76,"x_max":1011,"o":"m 344 -21 q 143 52 210 -21 q 76 246 76 125 l 76 667 l 251 667 l 251 263 q 388 117 251 117 q 500 145 447 117 q 589 231 553 174 l 589 667 l 764 667 l 764 604 q 843 640 817 610 q 869 721 869 669 l 869 775 l 1011 775 l 1011 717 q 947 558 1011 621 q 764 489 882 494 l 764 0 l 594 0 l 594 90 q 482 6 547 33 q 344 -21 417 -21 z "},"ứ":{"ha":1025,"x_min":76,"x_max":1011,"o":"m 421 985 l 606 985 l 486 743 l 325 743 l 421 985 m 344 -21 q 143 52 210 -21 q 76 246 76 125 l 76 667 l 251 667 l 251 263 q 388 117 251 117 q 500 145 447 117 q 589 231 553 174 l 589 667 l 764 667 l 764 604 q 843 640 817 610 q 869 721 869 669 l 869 775 l 1011 775 l 1011 717 q 947 558 1011 621 q 764 489 882 494 l 764 0 l 594 0 l 594 90 q 482 6 547 33 q 344 -21 417 -21 z "},"ự":{"ha":1025,"x_min":76,"x_max":1011,"o":"m 344 -21 q 143 52 210 -21 q 76 246 76 125 l 76 667 l 251 667 l 251 263 q 388 117 251 117 q 500 145 447 117 q 589 231 553 174 l 589 667 l 764 667 l 764 604 q 843 640 817 610 q 869 721 869 669 l 869 775 l 1011 775 l 1011 717 q 947 558 1011 621 q 764 489 882 494 l 764 0 l 594 0 l 594 90 q 482 6 547 33 q 344 -21 417 -21 m 415 -249 q 350 -222 378 -249 q 322 -157 322 -194 q 350 -91 322 -118 q 415 -64 378 -64 q 480 -91 453 -64 q 507 -157 507 -118 q 480 -222 507 -196 q 415 -249 453 -249 z "},"ừ":{"ha":1025,"x_min":76,"x_max":1011,"o":"m 215 985 l 400 985 l 496 743 l 335 743 l 215 985 m 344 -21 q 143 52 210 -21 q 76 246 76 125 l 76 667 l 251 667 l 251 263 q 388 117 251 117 q 500 145 447 117 q 589 231 553 174 l 589 667 l 764 667 l 764 604 q 843 640 817 610 q 869 721 869 669 l 869 775 l 1011 775 l 1011 717 q 947 558 1011 621 q 764 489 882 494 l 764 0 l 594 0 l 594 90 q 482 6 547 33 q 344 -21 417 -21 z "},"ử":{"ha":1025,"x_min":76,"x_max":1011,"o":"m 328 846 q 422 861 390 846 q 454 914 454 876 q 434 953 454 942 q 368 965 414 965 q 319 960 350 965 q 276 949 289 954 l 276 1040 q 340 1054 303 1049 q 413 1060 378 1060 q 557 1022 507 1060 q 607 921 607 985 q 574 835 607 869 q 481 790 540 800 l 481 743 l 328 743 l 328 846 m 344 -21 q 143 52 210 -21 q 76 246 76 125 l 76 667 l 251 667 l 251 263 q 388 117 251 117 q 500 145 447 117 q 589 231 553 174 l 589 667 l 764 667 l 764 604 q 843 640 817 610 q 869 721 869 669 l 869 775 l 1011 775 l 1011 717 q 947 558 1011 621 q 764 489 882 494 l 764 0 l 594 0 l 594 90 q 482 6 547 33 q 344 -21 417 -21 z "},"ữ":{"ha":1025,"x_min":76,"x_max":1011,"o":"m 156 886 q 294 946 200 946 q 354 938 325 946 q 429 911 383 929 q 497 885 468 894 q 557 876 526 876 q 696 947 643 876 l 696 804 q 557 746 653 746 q 490 755 522 746 q 417 782 458 764 q 349 807 375 799 q 294 815 324 815 q 220 799 254 815 q 156 743 186 782 l 156 886 m 344 -21 q 143 52 210 -21 q 76 246 76 125 l 76 667 l 251 667 l 251 263 q 388 117 251 117 q 500 145 447 117 q 589 231 553 174 l 589 667 l 764 667 l 764 604 q 843 640 817 610 q 869 721 869 669 l 869 775 l 1011 775 l 1011 717 q 947 558 1011 621 q 764 489 882 494 l 764 0 l 594 0 l 594 90 q 482 6 547 33 q 344 -21 417 -21 z "},"ű":{"ha":847,"x_min":76,"x_max":764,"o":"m 272 985 l 443 985 l 324 743 l 176 743 l 272 985 m 583 985 l 753 985 l 633 743 l 486 743 l 583 985 m 344 -21 q 143 52 210 -21 q 76 246 76 125 l 76 667 l 251 667 l 251 263 q 388 117 251 117 q 500 145 447 117 q 589 231 553 174 l 589 667 l 764 667 l 764 0 l 594 0 l 594 90 q 482 6 547 33 q 344 -21 417 -21 z "},"ū":{"ha":847,"x_min":76,"x_max":764,"o":"m 194 874 l 643 874 l 643 757 l 194 757 l 194 874 m 344 -21 q 143 52 210 -21 q 76 246 76 125 l 76 667 l 251 667 l 251 263 q 388 117 251 117 q 500 145 447 117 q 589 231 553 174 l 589 667 l 764 667 l 764 0 l 594 0 l 594 90 q 482 6 547 33 q 344 -21 417 -21 z "},"ų":{"ha":854,"x_min":76,"x_max":771,"o":"m 704 -193 q 771 -178 740 -193 l 771 -278 q 650 -296 724 -296 q 538 -263 581 -296 q 494 -168 494 -231 q 522 -72 494 -115 q 596 0 550 -29 l 594 0 l 594 90 q 482 6 547 33 q 344 -21 417 -21 q 143 52 210 -21 q 76 246 76 125 l 76 667 l 251 667 l 251 263 q 388 117 251 117 q 500 145 447 117 q 589 231 553 174 l 589 667 l 764 667 l 764 0 l 757 0 q 674 -66 701 -33 q 647 -137 647 -99 q 663 -178 647 -164 q 704 -193 679 -193 z "},"ů":{"ha":847,"x_min":76,"x_max":764,"o":"m 418 743 q 296 793 346 743 q 246 915 246 843 q 296 1038 246 988 q 418 1089 346 1089 q 541 1038 490 1089 q 592 915 592 988 q 541 793 592 843 q 418 743 490 743 m 418 844 q 468 865 447 844 q 489 915 489 886 q 468 965 489 944 q 418 986 447 986 q 368 965 389 986 q 347 915 347 944 q 368 865 347 886 q 418 844 389 844 m 344 -21 q 143 52 210 -21 q 76 246 76 125 l 76 667 l 251 667 l 251 263 q 388 117 251 117 q 500 145 447 117 q 589 231 553 174 l 589 667 l 764 667 l 764 0 l 594 0 l 594 90 q 482 6 547 33 q 344 -21 417 -21 z "},"ũ":{"ha":847,"x_min":76,"x_max":764,"o":"m 157 886 q 296 946 201 946 q 356 938 326 946 q 431 911 385 929 q 499 885 469 894 q 558 876 528 876 q 697 947 644 876 l 697 804 q 558 746 654 746 q 492 755 524 746 q 418 782 460 764 q 351 807 376 799 q 296 815 325 815 q 222 799 256 815 q 157 743 188 782 l 157 886 m 344 -21 q 143 52 210 -21 q 76 246 76 125 l 76 667 l 251 667 l 251 263 q 388 117 251 117 q 500 145 447 117 q 589 231 553 174 l 589 667 l 764 667 l 764 0 l 594 0 l 594 90 q 482 6 547 33 q 344 -21 417 -21 z "},"v":{"ha":825,"x_min":56,"x_max":769,"o":"m 56 667 l 232 667 l 413 206 l 593 667 l 769 667 l 494 0 l 331 0 l 56 667 z "},"w":{"ha":1153,"x_min":56,"x_max":1097,"o":"m 56 667 l 231 667 l 367 215 l 500 667 l 653 667 l 786 215 l 922 667 l 1097 667 l 879 0 l 718 0 l 576 453 l 435 0 l 274 0 l 56 667 z "},"ẃ":{"ha":1153,"x_min":56,"x_max":1097,"o":"m 592 985 l 776 985 l 657 743 l 496 743 l 592 985 m 56 667 l 231 667 l 367 215 l 500 667 l 653 667 l 786 215 l 922 667 l 1097 667 l 879 0 l 718 0 l 576 453 l 435 0 l 274 0 l 56 667 z "},"ŵ":{"ha":1153,"x_min":56,"x_max":1097,"o":"m 500 981 l 656 981 l 858 743 l 683 743 l 578 881 l 472 743 l 296 743 l 500 981 m 56 667 l 231 667 l 367 215 l 500 667 l 653 667 l 786 215 l 922 667 l 1097 667 l 879 0 l 718 0 l 576 453 l 435 0 l 274 0 l 56 667 z "},"ẅ":{"ha":1153,"x_min":56,"x_max":1097,"o":"m 413 757 q 347 784 375 757 q 319 849 319 811 q 347 915 319 888 q 413 942 375 942 q 477 915 450 942 q 504 849 504 888 q 477 783 504 810 q 413 757 450 757 m 742 757 q 676 784 704 757 q 649 849 649 811 q 676 915 649 888 q 742 942 704 942 q 806 915 779 942 q 833 849 833 888 q 806 783 833 810 q 742 757 779 757 m 56 667 l 231 667 l 367 215 l 500 667 l 653 667 l 786 215 l 922 667 l 1097 667 l 879 0 l 718 0 l 576 453 l 435 0 l 274 0 l 56 667 z "},"ẁ":{"ha":1153,"x_min":56,"x_max":1097,"o":"m 367 985 l 551 985 l 647 743 l 486 743 l 367 985 m 56 667 l 231 667 l 367 215 l 500 667 l 653 667 l 786 215 l 922 667 l 1097 667 l 879 0 l 718 0 l 576 453 l 435 0 l 274 0 l 56 667 z "},"x":{"ha":875,"x_min":56,"x_max":819,"o":"m 340 346 l 75 667 l 269 667 l 438 463 l 606 667 l 800 667 l 535 346 l 819 0 l 626 0 l 438 228 l 249 0 l 56 0 l 340 346 z "},"y":{"ha":833,"x_min":56,"x_max":806,"o":"m 243 -275 q 167 -270 207 -275 q 106 -257 128 -265 l 106 -124 q 192 -137 140 -137 q 271 -114 244 -137 q 317 -39 297 -90 l 343 31 l 56 667 l 232 667 l 438 181 l 631 667 l 806 667 l 514 -60 q 406 -222 469 -169 q 243 -275 343 -275 z "},"ý":{"ha":833,"x_min":56,"x_max":806,"o":"m 435 985 l 619 985 l 500 743 l 339 743 l 435 985 m 243 -275 q 167 -270 207 -275 q 106 -257 128 -265 l 106 -124 q 192 -137 140 -137 q 271 -114 244 -137 q 317 -39 297 -90 l 343 31 l 56 667 l 232 667 l 438 181 l 631 667 l 806 667 l 514 -60 q 406 -222 469 -169 q 243 -275 343 -275 z "},"ŷ":{"ha":833,"x_min":56,"x_max":806,"o":"m 363 981 l 518 981 l 721 743 l 546 743 l 440 881 l 335 743 l 158 743 l 363 981 m 243 -275 q 167 -270 207 -275 q 106 -257 128 -265 l 106 -124 q 192 -137 140 -137 q 271 -114 244 -137 q 317 -39 297 -90 l 343 31 l 56 667 l 232 667 l 438 181 l 631 667 l 806 667 l 514 -60 q 406 -222 469 -169 q 243 -275 343 -275 z "},"ÿ":{"ha":833,"x_min":56,"x_max":806,"o":"m 274 757 q 208 784 236 757 q 181 849 181 811 q 208 915 181 888 q 274 942 236 942 q 338 915 311 942 q 365 849 365 888 q 338 783 365 810 q 274 757 311 757 m 603 757 q 538 784 565 757 q 510 849 510 811 q 538 915 510 888 q 603 942 565 942 q 667 915 640 942 q 694 849 694 888 q 667 783 694 810 q 603 757 640 757 m 243 -275 q 167 -270 207 -275 q 106 -257 128 -265 l 106 -124 q 192 -137 140 -137 q 271 -114 244 -137 q 317 -39 297 -90 l 343 31 l 56 667 l 232 667 l 438 181 l 631 667 l 806 667 l 514 -60 q 406 -222 469 -169 q 243 -275 343 -275 z "},"ẏ":{"ha":833,"x_min":56,"x_max":806,"o":"m 439 757 q 374 784 401 757 q 346 849 346 811 q 374 915 346 888 q 439 942 401 942 q 503 915 476 942 q 531 849 531 888 q 503 783 531 810 q 439 757 476 757 m 243 -275 q 167 -270 207 -275 q 106 -257 128 -265 l 106 -124 q 192 -137 140 -137 q 271 -114 244 -137 q 317 -39 297 -90 l 343 31 l 56 667 l 232 667 l 438 181 l 631 667 l 806 667 l 514 -60 q 406 -222 469 -169 q 243 -275 343 -275 z "},"ỵ":{"ha":833,"x_min":56,"x_max":806,"o":"m 243 -275 q 167 -270 207 -275 q 106 -257 128 -265 l 106 -124 q 192 -137 140 -137 q 271 -114 244 -137 q 317 -39 297 -90 l 343 31 l 56 667 l 232 667 l 438 181 l 631 667 l 806 667 l 514 -60 q 406 -222 469 -169 q 243 -275 343 -275 m 639 -242 q 574 -215 601 -242 q 546 -150 546 -187 q 574 -84 546 -111 q 639 -57 601 -57 q 703 -84 676 -57 q 731 -150 731 -111 q 703 -215 731 -189 q 639 -242 676 -242 z "},"ỳ":{"ha":833,"x_min":56,"x_max":806,"o":"m 239 985 l 424 985 l 519 743 l 358 743 l 239 985 m 243 -275 q 167 -270 207 -275 q 106 -257 128 -265 l 106 -124 q 192 -137 140 -137 q 271 -114 244 -137 q 317 -39 297 -90 l 343 31 l 56 667 l 232 667 l 438 181 l 631 667 l 806 667 l 514 -60 q 406 -222 469 -169 q 243 -275 343 -275 z "},"ỷ":{"ha":833,"x_min":56,"x_max":806,"o":"m 349 846 q 443 861 411 846 q 475 914 475 876 q 455 953 475 942 q 389 965 435 965 q 340 960 371 965 q 297 949 310 954 l 297 1040 q 361 1054 324 1049 q 433 1060 399 1060 q 578 1022 528 1060 q 628 921 628 985 q 594 835 628 869 q 501 790 561 800 l 501 743 l 349 743 l 349 846 m 243 -275 q 167 -270 207 -275 q 106 -257 128 -265 l 106 -124 q 192 -137 140 -137 q 271 -114 244 -137 q 317 -39 297 -90 l 343 31 l 56 667 l 232 667 l 438 181 l 631 667 l 806 667 l 514 -60 q 406 -222 469 -169 q 243 -275 343 -275 z "},"ỹ":{"ha":833,"x_min":56,"x_max":806,"o":"m 168 886 q 307 946 213 946 q 367 938 338 946 q 442 911 396 929 q 510 885 481 894 q 569 876 539 876 q 708 947 656 876 l 708 804 q 569 746 665 746 q 503 755 535 746 q 429 782 471 764 q 362 807 388 799 q 307 815 336 815 q 233 799 267 815 q 168 743 199 782 l 168 886 m 243 -275 q 167 -270 207 -275 q 106 -257 128 -265 l 106 -124 q 192 -137 140 -137 q 271 -114 244 -137 q 317 -39 297 -90 l 343 31 l 56 667 l 232 667 l 438 181 l 631 667 l 806 667 l 514 -60 q 406 -222 469 -169 q 243 -275 343 -275 z "},"z":{"ha":696,"x_min":56,"x_max":640,"o":"m 56 110 l 410 533 l 65 533 l 65 667 l 629 667 l 629 557 l 276 133 l 640 133 l 640 0 l 56 0 l 56 110 z "},"ź":{"ha":696,"x_min":56,"x_max":640,"o":"m 344 985 l 529 985 l 410 743 l 249 743 l 344 985 m 56 110 l 410 533 l 65 533 l 65 667 l 629 667 l 629 557 l 276 133 l 640 133 l 640 0 l 56 0 l 56 110 z "},"ž":{"ha":696,"x_min":56,"x_max":640,"o":"m 74 981 l 250 981 l 356 842 l 461 981 l 636 981 l 433 743 l 278 743 l 74 981 m 56 110 l 410 533 l 65 533 l 65 667 l 629 667 l 629 557 l 276 133 l 640 133 l 640 0 l 56 0 l 56 110 z "},"ż":{"ha":696,"x_min":56,"x_max":640,"o":"m 349 757 q 283 784 311 757 q 256 849 256 811 q 283 915 256 888 q 349 942 311 942 q 413 915 386 942 q 440 849 440 888 q 413 783 440 810 q 349 757 386 757 m 56 110 l 410 533 l 65 533 l 65 667 l 629 667 l 629 557 l 276 133 l 640 133 l 640 0 l 56 0 l 56 110 z "},"ẓ":{"ha":696,"x_min":56,"x_max":640,"o":"m 56 110 l 410 533 l 65 533 l 65 667 l 629 667 l 629 557 l 276 133 l 640 133 l 640 0 l 56 0 l 56 110 m 351 -249 q 286 -222 314 -249 q 258 -157 258 -194 q 286 -91 258 -118 q 351 -64 314 -64 q 416 -91 389 -64 q 443 -157 443 -118 q 416 -222 443 -196 q 351 -249 389 -249 z "},"ﬁ":{"ha":861,"x_min":28,"x_max":778,"o":"m 126 533 l 28 533 l 28 667 l 126 667 l 126 776 q 163 916 126 858 q 263 1003 200 974 q 403 1033 325 1033 q 519 1014 469 1033 l 519 872 q 438 889 482 889 q 336 857 371 889 q 301 764 301 825 l 301 667 l 768 667 l 768 0 l 593 0 l 593 533 l 301 533 l 301 0 l 126 0 l 126 533 m 679 783 q 609 811 638 783 q 581 881 581 839 q 609 949 581 921 q 679 978 638 978 q 749 949 719 978 q 778 881 778 921 q 749 811 778 839 q 679 783 721 783 z "},"ﬂ":{"ha":854,"x_min":28,"x_max":771,"o":"m 126 533 l 28 533 l 28 667 l 126 667 l 126 782 q 205 968 126 903 q 403 1033 283 1033 q 519 1014 469 1033 l 519 872 q 438 889 482 889 q 338 858 374 889 q 301 769 301 828 l 301 667 l 596 667 l 596 982 l 771 982 l 771 0 l 596 0 l 596 533 l 301 533 l 301 0 l 126 0 l 126 533 z "},"ª":{"ha":590,"x_min":56,"x_max":535,"o":"m 250 485 q 110 530 164 485 q 56 651 56 575 q 108 776 56 731 q 253 821 160 821 q 408 783 344 821 l 408 797 q 377 870 408 847 q 276 893 346 893 q 114 861 182 893 l 114 960 q 195 983 144 974 q 292 992 246 992 q 475 938 415 992 q 535 790 535 885 l 535 500 l 417 500 l 417 546 q 347 501 386 517 q 250 485 307 485 m 281 576 q 356 592 322 576 q 408 638 390 608 l 408 690 q 283 729 356 729 q 183 651 183 729 q 208 595 183 614 q 281 576 233 576 z "},"º":{"ha":671,"x_min":56,"x_max":615,"o":"m 336 483 q 132 551 208 483 q 56 738 56 619 q 132 922 56 853 q 336 992 208 992 q 539 922 463 992 q 615 738 615 853 q 540 551 615 619 q 336 483 464 483 m 336 585 q 443 627 403 585 q 483 738 483 669 q 444 849 483 808 q 336 890 404 890 q 227 850 267 890 q 188 738 188 810 q 228 627 188 669 q 336 585 268 585 z "},"ⁿ":{"ha":622,"x_min":63,"x_max":567,"o":"m 63 971 l 190 971 l 190 913 q 271 972 224 953 q 369 992 318 992 q 518 942 469 992 q 567 806 567 892 l 567 500 l 435 500 l 435 783 q 411 860 435 833 q 333 888 388 888 q 194 807 246 888 l 194 500 l 63 500 l 63 971 z "},"Δ":{"ha":958,"x_min":56,"x_max":903,"o":"m 56 119 l 403 992 l 556 992 l 903 119 l 903 0 l 56 0 l 56 119 m 736 143 l 479 800 l 221 143 l 736 143 z "},"Ω":{"ha":1136,"x_min":56,"x_max":1081,"o":"m 56 146 l 226 146 q 104 298 151 206 q 57 496 57 390 q 120 754 57 642 q 299 929 183 867 q 568 992 415 992 q 837 929 721 992 q 1016 754 953 867 q 1079 496 1079 642 q 1032 298 1079 390 q 910 146 985 206 l 1081 146 l 1081 0 l 669 0 l 669 132 q 901 496 901 260 q 858 672 901 596 q 740 790 815 749 q 568 831 664 831 q 397 790 472 831 q 278 672 321 749 q 235 496 235 596 q 467 132 235 260 l 467 0 l 56 0 l 56 146 z "},"μ":{"ha":854,"x_min":83,"x_max":771,"o":"m 83 667 l 258 667 l 258 254 q 292 151 258 185 q 394 117 325 117 q 507 145 454 117 q 596 231 560 174 l 596 667 l 771 667 l 771 0 l 601 0 l 601 90 q 489 6 554 33 q 351 -21 424 -21 q 258 -1 293 -21 l 258 -304 l 83 -304 l 83 667 z "},"π":{"ha":967,"x_min":42,"x_max":925,"o":"m 808 -21 q 628 40 692 -21 q 564 222 564 100 l 564 521 l 339 521 l 339 0 l 163 0 l 163 521 l 42 521 l 42 667 l 861 667 l 861 521 l 740 521 l 740 240 q 762 149 740 176 q 839 122 783 122 q 925 139 888 122 l 925 -3 q 808 -21 875 -21 z "},"ก":{"ha":903,"x_min":56,"x_max":819,"o":"m 125 453 l 56 568 q 231 714 132 664 q 461 764 331 764 q 727 686 635 764 q 819 471 819 608 l 819 0 l 643 0 l 643 457 q 597 585 643 543 q 461 626 551 626 q 341 607 393 626 q 244 543 289 588 l 301 451 l 301 0 l 125 0 l 125 453 z "},"ถ":{"ha":903,"x_min":56,"x_max":819,"o":"m 276 0 q 164 42 203 0 q 125 156 125 83 l 125 453 l 56 568 q 231 714 132 664 q 461 764 331 764 q 727 686 635 764 q 819 471 819 608 l 819 0 l 643 0 l 643 457 q 597 585 643 543 q 461 626 551 626 q 341 607 393 626 q 244 543 289 588 l 301 451 l 301 213 q 317 162 301 176 q 371 147 333 147 l 446 147 l 446 0 l 276 0 z "},"ภ":{"ha":922,"x_min":56,"x_max":839,"o":"m 56 147 l 110 147 q 159 161 146 147 q 172 213 172 175 l 172 453 l 75 568 q 482 764 224 764 q 747 686 654 764 q 839 471 839 608 l 839 0 l 663 0 l 663 457 q 617 585 663 543 q 481 626 571 626 q 363 607 414 626 q 268 549 313 588 l 349 453 l 349 157 q 309 42 349 83 q 197 0 269 0 l 56 0 l 56 147 z "},"ฤ":{"ha":903,"x_min":56,"x_max":819,"o":"m 643 457 q 597 585 643 543 q 461 626 551 626 q 341 607 393 626 q 244 543 289 588 l 301 451 l 301 213 q 317 162 301 176 q 371 147 333 147 l 446 147 l 446 0 l 276 0 q 164 42 203 0 q 125 156 125 83 l 125 453 l 56 568 q 231 714 132 664 q 461 764 331 764 q 727 686 635 764 q 819 471 819 608 l 819 -272 l 643 -272 l 643 457 z "},"ฦ":{"ha":922,"x_min":56,"x_max":839,"o":"m 663 457 q 617 585 663 543 q 481 626 571 626 q 363 607 414 626 q 268 549 313 588 l 349 453 l 349 157 q 309 42 349 83 q 197 0 269 0 l 56 0 l 56 147 l 110 147 q 159 161 146 147 q 172 213 172 175 l 172 453 l 75 568 q 482 764 224 764 q 747 686 654 764 q 839 471 839 608 l 839 -272 l 663 -272 l 663 457 z "},"ฎ":{"ha":922,"x_min":56,"x_max":839,"o":"m 240 -171 q 342 -116 279 -136 q 468 -96 404 -96 q 663 -143 589 -96 l 663 457 q 617 585 663 543 q 481 626 571 626 q 363 607 414 626 q 268 549 313 588 l 349 453 l 349 157 q 309 42 349 83 q 197 0 269 0 l 56 0 l 56 147 l 110 147 q 159 161 146 147 q 172 213 172 175 l 172 453 l 75 568 q 482 764 224 764 q 747 686 654 764 q 839 471 839 608 l 839 -307 l 683 -307 q 583 -251 635 -268 q 468 -233 531 -233 q 344 -255 404 -233 q 240 -315 283 -276 l 240 -171 z "},"ฏ":{"ha":922,"x_min":56,"x_max":839,"o":"m 306 -311 q 223 -299 263 -311 q 156 -268 183 -287 l 156 -135 q 294 -174 215 -174 q 384 -150 349 -174 q 429 -78 419 -126 l 526 -78 l 663 -156 l 663 457 q 617 585 663 543 q 481 626 571 626 q 363 607 414 626 q 268 549 313 588 l 349 453 l 349 157 q 309 42 349 83 q 197 0 269 0 l 56 0 l 56 147 l 110 147 q 159 161 146 147 q 172 213 172 175 l 172 453 l 75 568 q 482 764 224 764 q 747 686 654 764 q 839 471 839 608 l 839 -307 l 671 -307 l 506 -212 q 426 -286 478 -261 q 306 -311 375 -311 z "},"ญ":{"ha":1404,"x_min":56,"x_max":1335,"o":"m 976 -136 q 825 -121 900 -136 q 704 -79 750 -106 l 704 67 q 976 1 825 1 q 1125 23 1076 1 q 1174 90 1174 44 q 1151 146 1174 121 q 961 101 1060 101 q 703 183 790 101 q 615 410 615 264 l 615 457 q 574 585 615 544 q 447 626 532 626 q 335 607 383 626 q 244 543 286 588 l 301 451 l 301 213 q 317 162 301 176 q 368 147 332 147 l 446 147 l 446 0 l 276 0 q 164 42 203 0 q 125 156 125 83 l 125 453 l 56 568 q 227 714 132 664 q 447 764 322 764 q 703 687 615 764 q 790 471 790 610 l 790 424 q 830 284 790 329 q 965 239 869 239 q 1142 424 1142 239 l 1142 743 l 1318 743 l 1318 410 q 1264 242 1318 324 q 1335 90 1335 179 q 1235 -77 1335 -18 q 976 -136 1135 -136 z "},"ข":{"ha":829,"x_min":56,"x_max":746,"o":"m 407 -21 q 225 15 303 -21 q 106 113 147 50 q 64 257 64 176 l 64 292 q 84 381 64 340 q 140 472 104 421 q 175 525 164 506 q 186 563 186 544 q 135 604 186 604 l 56 604 l 56 743 l 228 743 q 327 708 290 743 q 364 613 364 672 q 348 536 364 571 q 301 451 332 501 q 256 369 271 401 q 240 299 240 336 l 240 264 q 282 155 240 193 q 407 117 324 117 q 569 271 569 117 l 569 743 l 746 743 l 746 300 q 658 66 746 153 q 407 -21 569 -21 z "},"ฃ":{"ha":843,"x_min":56,"x_max":760,"o":"m 421 -21 q 239 15 317 -21 q 119 113 161 50 q 78 257 78 176 l 78 297 q 103 385 78 343 q 172 481 128 428 q 213 533 201 517 q 224 564 224 550 l 224 568 q 160 554 196 554 q 56 671 56 554 l 56 743 l 179 743 l 179 693 q 219 653 179 653 q 260 669 243 653 l 260 743 l 393 743 l 393 613 q 373 522 393 564 q 315 426 353 481 q 269 353 285 382 q 254 294 254 324 l 254 264 q 296 155 254 193 q 421 117 338 117 q 583 271 583 117 l 583 743 l 760 743 l 760 300 q 672 66 760 153 q 421 -21 583 -21 z "},"ช":{"ha":821,"x_min":56,"x_max":765,"o":"m 408 -21 q 228 15 306 -21 q 107 113 150 50 q 64 257 64 176 l 64 292 q 85 382 64 340 q 142 475 106 424 q 176 529 167 513 q 186 563 186 546 q 135 604 186 604 l 56 604 l 56 743 l 228 743 q 327 708 290 743 q 364 613 364 672 q 348 536 364 571 q 301 451 332 501 q 256 369 271 401 q 240 299 240 336 l 240 264 q 284 156 240 194 q 408 117 328 117 q 538 163 493 117 q 583 300 583 210 q 435 482 583 482 l 435 575 l 576 764 l 765 764 l 611 558 q 725 458 690 521 q 760 300 760 396 q 717 134 760 207 q 594 20 674 61 q 408 -21 514 -21 z "},"ซ":{"ha":835,"x_min":56,"x_max":779,"o":"m 422 -21 q 242 15 319 -21 q 121 113 164 50 q 78 257 78 176 l 78 297 q 103 385 78 343 q 172 481 128 428 q 213 533 201 517 q 224 564 224 550 l 224 568 q 160 554 196 554 q 56 671 56 554 l 56 743 l 179 743 l 179 693 q 219 653 179 653 q 260 669 243 653 l 260 743 l 393 743 l 393 613 q 373 522 393 564 q 315 426 353 481 q 269 353 285 382 q 254 294 254 324 l 254 264 q 298 156 254 194 q 422 117 342 117 q 552 163 507 117 q 597 300 597 210 q 449 482 597 482 l 449 575 l 590 764 l 779 764 l 625 558 q 739 458 704 521 q 774 300 774 396 q 731 134 774 207 q 608 20 688 61 q 422 -21 528 -21 z "},"ค":{"ha":901,"x_min":83,"x_max":818,"o":"m 83 450 q 183 682 83 600 q 451 764 282 764 q 719 682 621 764 q 818 450 818 600 l 818 0 l 642 0 l 642 457 q 592 584 642 542 q 451 626 543 626 q 310 585 360 626 q 260 457 260 543 l 260 335 q 313 382 278 364 q 396 400 349 400 l 508 400 l 508 253 l 383 253 q 294 217 329 253 q 260 132 260 182 l 260 0 l 83 0 l 83 450 z "},"ฅ":{"ha":901,"x_min":83,"x_max":818,"o":"m 83 515 q 135 697 83 629 q 294 764 186 764 q 390 744 350 764 q 450 685 431 724 q 512 744 472 724 q 607 764 551 764 q 767 697 715 764 q 818 515 818 631 l 818 0 l 642 0 l 642 519 q 628 602 642 578 q 572 626 614 626 q 524 608 540 626 q 500 547 508 589 l 401 547 q 377 608 393 589 q 329 626 361 626 q 274 602 289 626 q 260 521 260 578 l 260 335 q 313 382 278 364 q 396 400 349 400 l 508 400 l 508 253 l 383 253 q 294 217 329 253 q 260 132 260 182 l 260 0 l 83 0 l 83 515 z "},"ศ":{"ha":922,"x_min":83,"x_max":867,"o":"m 83 450 q 183 682 83 600 q 451 764 282 764 q 618 738 547 764 l 672 799 l 867 799 l 744 658 q 818 450 818 578 l 818 0 l 642 0 l 642 457 q 592 584 642 542 q 451 626 543 626 q 310 585 360 626 q 260 457 260 543 l 260 335 q 313 382 278 364 q 396 400 349 400 l 508 400 l 508 253 l 383 253 q 294 217 329 253 q 260 132 260 182 l 260 0 l 83 0 l 83 450 z "},"ด":{"ha":953,"x_min":56,"x_max":869,"o":"m 421 -21 q 153 74 251 -21 q 56 353 56 169 q 106 573 56 481 q 252 715 157 665 q 476 764 347 764 q 775 669 681 764 q 869 424 869 575 l 869 0 l 693 0 l 693 425 q 642 574 693 522 q 476 626 592 626 q 301 555 365 626 q 236 353 236 483 q 292 175 236 233 q 451 117 347 117 q 547 131 503 117 l 547 -4 q 421 -21 493 -21 z "},"ต":{"ha":953,"x_min":56,"x_max":869,"o":"m 421 -21 q 154 74 253 -21 q 56 353 56 169 q 92 571 56 478 q 192 714 128 664 q 335 764 256 764 q 485 685 438 764 q 560 745 511 726 q 667 764 608 764 q 818 701 767 764 q 869 532 869 638 l 869 0 l 693 0 l 693 519 q 676 601 693 575 q 619 626 660 626 q 535 546 550 626 l 436 546 q 364 626 428 626 q 272 556 307 626 q 236 353 236 486 q 451 117 236 117 q 547 131 503 117 l 547 -4 q 421 -21 493 -21 z "},"ท":{"ha":882,"x_min":83,"x_max":799,"o":"m 83 743 l 253 743 l 253 651 q 376 735 306 707 q 517 764 446 764 q 726 687 654 764 q 799 489 799 610 l 799 0 l 622 0 l 622 481 q 467 626 622 626 q 260 513 332 626 l 260 0 l 83 0 l 83 743 z "},"ฑ":{"ha":883,"x_min":56,"x_max":800,"o":"m 99 297 q 119 385 99 343 q 178 481 140 426 q 211 533 201 515 q 221 564 221 550 l 221 568 q 157 554 193 554 q 56 671 56 554 l 56 743 l 179 743 l 179 693 q 219 653 179 653 q 260 669 243 653 l 260 743 l 393 743 l 393 697 q 475 746 422 728 q 581 764 528 764 q 800 513 800 764 l 800 0 l 624 0 l 624 533 q 602 603 624 581 q 536 626 581 626 q 379 549 433 626 q 358 494 369 518 q 325 438 346 471 q 288 365 300 396 q 275 294 275 335 l 275 0 l 99 0 l 99 297 z "},"น":{"ha":882,"x_min":83,"x_max":799,"o":"m 372 -21 q 217 16 282 -21 q 117 117 151 53 q 83 261 83 182 l 83 743 l 260 743 l 260 269 q 422 117 260 117 q 622 231 550 117 l 622 743 l 799 743 l 799 0 l 629 0 l 629 92 q 509 8 576 36 q 372 -21 442 -21 z "},"ม":{"ha":882,"x_min":83,"x_max":799,"o":"m 510 -21 q 373 8 440 -21 q 253 92 306 36 l 253 0 l 83 0 l 83 743 l 260 743 l 260 231 q 460 117 332 117 q 624 269 624 117 l 624 743 l 799 743 l 799 261 q 765 117 799 182 q 665 16 731 53 q 510 -21 600 -21 z "},"ฌ":{"ha":1386,"x_min":56,"x_max":1303,"o":"m 1028 -21 q 897 6 960 -21 q 785 88 835 32 l 785 0 l 615 0 l 615 457 q 574 585 615 544 q 447 626 532 626 q 335 607 383 626 q 244 543 286 588 l 301 451 l 301 213 q 317 162 301 176 q 371 147 333 147 l 446 147 l 446 0 l 276 0 q 164 42 203 0 q 125 156 125 83 l 125 453 l 56 568 q 227 714 132 664 q 447 764 322 764 q 703 687 615 764 q 790 471 790 610 l 790 231 q 978 117 863 117 q 1092 154 1056 117 q 1128 269 1128 192 l 1128 743 l 1303 743 l 1303 261 q 1271 117 1303 182 q 1177 16 1239 53 q 1028 -21 1115 -21 z "},"ณ":{"ha":1386,"x_min":56,"x_max":1303,"o":"m 890 -21 q 741 16 803 -21 q 647 117 679 53 q 615 261 615 182 l 615 457 q 574 585 615 544 q 447 626 532 626 q 335 607 383 626 q 244 543 286 588 l 301 451 l 301 213 q 317 162 301 176 q 371 147 333 147 l 446 147 l 446 0 l 276 0 q 164 42 203 0 q 125 156 125 83 l 125 453 l 56 568 q 227 714 132 664 q 447 764 322 764 q 703 687 615 764 q 790 471 790 610 l 790 269 q 826 154 790 192 q 940 117 863 117 q 1052 147 1001 117 q 1128 231 1103 176 l 1128 743 l 1303 743 l 1303 0 l 1133 0 l 1133 88 q 890 -21 1046 -21 z "}}}
